<?xml version="1.0" encoding="UTF-8" standalone="no"?>
<!-- Created with Inkscape (http://www.inkscape.org/) -->

<svg
   xmlns:dc="http://purl.org/dc/elements/1.1/"
   xmlns:cc="http://creativecommons.org/ns#"
   xmlns:rdf="http://www.w3.org/1999/02/22-rdf-syntax-ns#"
   xmlns:svg="http://www.w3.org/2000/svg"
   xmlns="http://www.w3.org/2000/svg"
   xmlns:xlink="http://www.w3.org/1999/xlink"
   xmlns:sodipodi="http://sodipodi.sourceforge.net/DTD/sodipodi-0.dtd"
   xmlns:inkscape="http://www.inkscape.org/namespaces/inkscape"
   inkscape:export-ydpi="56.150002"
   inkscape:export-xdpi="56.150002"
   inkscape:export-filename="/home/rj/Repositories/rjz/reactjs-pdx-ts/my-app/src/bg.svg.png"
   sodipodi:docname="bg.svg"
   inkscape:version="0.91 r13725"
   version="1.1"
   id="svg11726"
   viewBox="0 0 1596.0409 295.82764"
   height="83.489136mm"
   width="450.43823mm">
  <sodipodi:namedview
     inkscape:window-maximized="1"
     inkscape:window-y="24"
     inkscape:window-x="1920"
     inkscape:window-height="1176"
     inkscape:window-width="1920"
     fit-margin-bottom="0"
     fit-margin-right="0"
     fit-margin-left="0"
     fit-margin-top="0"
     showgrid="false"
     inkscape:current-layer="layer1"
     inkscape:document-units="px"
     inkscape:cy="-109.50319"
     inkscape:cx="820.86192"
     inkscape:zoom="0.70710678"
     inkscape:pageshadow="2"
     inkscape:pageopacity="0.0"
     borderopacity="1.0"
     bordercolor="#666666"
     pagecolor="#ffffff"
     id="base" />
  <defs
     id="defs11728">
    <linearGradient
       inkscape:collect="always"
       id="linearGradient18661">
      <stop
         style="stop-color:#0e6c8b;stop-opacity:1"
         offset="0"
         id="stop18663" />
      <stop
         style="stop-color:#128eb6;stop-opacity:0;"
         offset="1"
         id="stop18665" />
    </linearGradient>
    <linearGradient
       inkscape:collect="always"
       id="linearGradient18653">
      <stop
         style="stop-color:#0e6c8b;stop-opacity:1"
         offset="0"
         id="stop18655" />
      <stop
         style="stop-color:#084154;stop-opacity:0;"
         offset="1"
         id="stop18657" />
    </linearGradient>
    <linearGradient
       id="linearGradient15563"
       inkscape:collect="always">
      <stop
         style="stop-color:#6f907b;stop-opacity:1"
         offset="0"
         id="stop15567" />
      <stop
         style="stop-color:#c8beb7;stop-opacity:1;"
         offset="1"
         id="stop15565" />
    </linearGradient>
    <clipPath
       id="clipPath11679"
       clipPathUnits="userSpaceOnUse">
      <circle
         style="opacity:1;fill:#14a0cc;fill-opacity:1;stroke:none;stroke-width:1;stroke-linecap:round;stroke-linejoin:miter;stroke-miterlimit:4;stroke-dasharray:none;stroke-dashoffset:0;stroke-opacity:1"
         id="circle11681"
         cx="-1227.75"
         cy="508.63776"
         r="70.75"
         transform="scale(1,-1)" />
    </clipPath>
    <radialGradient
       gradientUnits="userSpaceOnUse"
       gradientTransform="matrix(-1,0,0,-0.30618656,329.00305,136.9263)"
       r="726.1123"
       fy="-278.5311"
       fx="42.879158"
       cy="-278.5311"
       cx="42.879158"
       id="radialGradient15569"
       xlink:href="#linearGradient15563"
       inkscape:collect="always" />
    <clipPath
       id="clipPath11679-0"
       clipPathUnits="userSpaceOnUse">
      <circle
         style="opacity:1;fill:#14a0cc;fill-opacity:1;stroke:none;stroke-width:1;stroke-linecap:round;stroke-linejoin:miter;stroke-miterlimit:4;stroke-dasharray:none;stroke-dashoffset:0;stroke-opacity:1"
         id="circle11681-3"
         cx="-1227.75"
         cy="508.63776"
         r="70.75"
         transform="scale(1,-1)" />
    </clipPath>
    <linearGradient
       spreadMethod="reflect"
       gradientUnits="userSpaceOnUse"
       y2="215.70905"
       x2="133.37981"
       y1="215.70905"
       x1="107.1298"
       id="linearGradient16319"
       xlink:href="#linearGradient16313"
       inkscape:collect="always"
       gradientTransform="translate(-726.75,335.42235)" />
    <linearGradient
       id="linearGradient16313"
       inkscape:collect="always">
      <stop
         id="stop16315"
         offset="0"
         style="stop-color:#0d6683;stop-opacity:1;" />
      <stop
         id="stop16317"
         offset="1"
         style="stop-color:#14a0cc;stop-opacity:1" />
    </linearGradient>
    <linearGradient
       spreadMethod="reflect"
       gradientUnits="userSpaceOnUse"
       y2="55.325768"
       x2="62.701679"
       y1="79.611481"
       x1="62.701679"
       id="linearGradient11569"
       xlink:href="#linearGradient11563"
       inkscape:collect="always"
       gradientTransform="translate(-678.7143,464.39169)" />
    <linearGradient
       id="linearGradient11563"
       inkscape:collect="always">
      <stop
         style="stop-color:#0d6683;stop-opacity:1"
         offset="0"
         id="stop11567" />
      <stop
         style="stop-color:#084154;stop-opacity:1;"
         offset="1"
         id="stop11565" />
    </linearGradient>
    <linearGradient
       spreadMethod="reflect"
       gradientUnits="userSpaceOnUse"
       y2="104.75757"
       x2="122.87945"
       y1="79.889885"
       x1="123.00368"
       id="linearGradient11583"
       xlink:href="#linearGradient11577"
       inkscape:collect="always"
       gradientTransform="translate(-678.7143,464.39169)" />
    <linearGradient
       id="linearGradient11577"
       inkscape:collect="always">
      <stop
         style="stop-color:#0f799b;stop-opacity:1"
         offset="0"
         id="stop11581" />
      <stop
         style="stop-color:#0d6683;stop-opacity:1;"
         offset="1"
         id="stop11579" />
    </linearGradient>
    <linearGradient
       spreadMethod="reflect"
       gradientUnits="userSpaceOnUse"
       y2="104.75757"
       x2="122.87945"
       y1="79.889885"
       x1="123.00368"
       id="linearGradient16438"
       xlink:href="#linearGradient11577"
       inkscape:collect="always"
       gradientTransform="translate(48.0357,128.96934)" />
    <clipPath
       id="clipPath11679-3"
       clipPathUnits="userSpaceOnUse">
      <circle
         style="opacity:1;fill:#14a0cc;fill-opacity:1;stroke:none;stroke-width:1;stroke-linecap:round;stroke-linejoin:miter;stroke-miterlimit:4;stroke-dasharray:none;stroke-dashoffset:0;stroke-opacity:1"
         id="circle11681-6"
         cx="-1227.75"
         cy="508.63776"
         r="70.75"
         transform="scale(1,-1)" />
    </clipPath>
    <clipPath
       id="clipPath16414"
       clipPathUnits="userSpaceOnUse">
      <circle
         style="opacity:1;fill:#14a0cc;fill-opacity:1;stroke:#0f789a;stroke-width:2;stroke-linecap:round;stroke-linejoin:miter;stroke-miterlimit:4;stroke-dasharray:none;stroke-dashoffset:0;stroke-opacity:1"
         id="circle16416"
         cx="-86.655891"
         cy="-85.844109"
         r="70.75"
         transform="matrix(0,-1,-1,0,0,0)" />
    </clipPath>
    <filter
       height="1.1469047"
       y="-0.073452339"
       width="1.1238571"
       x="-0.061928578"
       id="filter16408"
       style="color-interpolation-filters:sRGB"
       inkscape:collect="always">
      <feGaussianBlur
         id="feGaussianBlur16410"
         stdDeviation="3.4950235"
         inkscape:collect="always" />
    </filter>
    <filter
       height="1.168"
       y="-0.083999999"
       width="1.168"
       x="-0.083999999"
       id="filter11647"
       style="color-interpolation-filters:sRGB"
       inkscape:collect="always">
      <feGaussianBlur
         id="feGaussianBlur11649"
         stdDeviation="4.9525"
         inkscape:collect="always" />
    </filter>
    <linearGradient
       y2="104.75757"
       x2="122.87945"
       y1="79.889885"
       x1="123.00368"
       spreadMethod="reflect"
       gradientTransform="translate(-678.7143,464.39169)"
       gradientUnits="userSpaceOnUse"
       id="linearGradient16591"
       xlink:href="#linearGradient11577"
       inkscape:collect="always" />
    <linearGradient
       y2="104.75757"
       x2="122.87945"
       y1="79.889885"
       x1="123.00368"
       spreadMethod="reflect"
       gradientTransform="translate(-678.7143,464.39169)"
       gradientUnits="userSpaceOnUse"
       id="linearGradient16593"
       xlink:href="#linearGradient11577"
       inkscape:collect="always" />
    <linearGradient
       y2="104.75757"
       x2="122.87945"
       y1="79.889885"
       x1="123.00368"
       spreadMethod="reflect"
       gradientTransform="translate(-678.7143,464.39169)"
       gradientUnits="userSpaceOnUse"
       id="linearGradient16595"
       xlink:href="#linearGradient11577"
       inkscape:collect="always" />
    <linearGradient
       y2="104.75757"
       x2="122.87945"
       y1="79.889885"
       x1="123.00368"
       spreadMethod="reflect"
       gradientTransform="translate(-678.7143,464.39169)"
       gradientUnits="userSpaceOnUse"
       id="linearGradient16597"
       xlink:href="#linearGradient11577"
       inkscape:collect="always" />
    <filter
       inkscape:collect="always"
       style="color-interpolation-filters:sRGB"
       id="filter16741"
       x="-0.084518444"
       width="1.1690369"
       y="-0.083487877"
       height="1.1669758">
      <feGaussianBlur
         inkscape:collect="always"
         stdDeviation="9.8781265"
         id="feGaussianBlur16743" />
    </filter>
    <clipPath
       clipPathUnits="userSpaceOnUse"
       id="clipPath16747">
      <path
         style="opacity:1;fill:#14a0cc;fill-opacity:1;stroke:#084154;stroke-width:2;stroke-linecap:round;stroke-linejoin:miter;stroke-miterlimit:4;stroke-dasharray:none;stroke-dashoffset:0;stroke-opacity:1"
         d="m 12.035288,-45.843944 0,140.457288 c 0,67.930426 55.081185,122.618106 123.500412,122.618106 68.41923,0 123.50041,-54.68768 123.50041,-122.618106 l 0,-140.457288"
         id="path16749"
         inkscape:connector-curvature="0"
         sodipodi:nodetypes="csssc" />
    </clipPath>
    <filter
       inkscape:collect="always"
       style="color-interpolation-filters:sRGB"
       id="filter16797"
       x="-0.049782805"
       width="1.0995656"
       y="-0.051032691"
       height="1.1020654">
      <feGaussianBlur
         inkscape:collect="always"
         stdDeviation="5.5777575"
         id="feGaussianBlur16799" />
    </filter>
    <filter
       inkscape:collect="always"
       style="color-interpolation-filters:sRGB"
       id="filter18233"
       x="-0.087306924"
       width="1.1746138"
       y="-0.07048617"
       height="1.1409723">
      <feGaussianBlur
         inkscape:collect="always"
         stdDeviation="8.5475952"
         id="feGaussianBlur18235" />
    </filter>
    <clipPath
       clipPathUnits="userSpaceOnUse"
       id="clipPath18251">
      <path
         style="opacity:1;fill:#a2d0de;fill-opacity:1;stroke:#084154;stroke-width:2;stroke-linecap:round;stroke-linejoin:miter;stroke-miterlimit:4;stroke-dasharray:none;stroke-dashoffset:0;stroke-opacity:1"
         d="m 705.57888,-117.50108 0,138.788274 c 0,51.405007 41.67499,92.788826 93.44168,92.788826 51.76669,0 93.44168,-41.383819 93.44168,-92.788826 l 0,-138.788274"
         id="path18253"
         inkscape:connector-curvature="0" />
    </clipPath>
    <clipPath
       clipPathUnits="userSpaceOnUse"
       id="clipPath18560">
      <path
         style="opacity:1;fill:#a2d0de;fill-opacity:1;stroke:#084154;stroke-width:2;stroke-linecap:round;stroke-linejoin:miter;stroke-miterlimit:4;stroke-dasharray:none;stroke-dashoffset:0;stroke-opacity:1"
         d="m 42.094022,-46.346535 0,138.788278 c 0,51.405007 41.674989,92.788827 93.441678,92.788827 51.76669,0 93.44168,-41.38382 93.44168,-92.788827 l 0,-138.788278"
         id="path18562"
         inkscape:connector-curvature="0" />
    </clipPath>
    <linearGradient
       inkscape:collect="always"
       xlink:href="#linearGradient18653"
       id="linearGradient18659"
       x1="134.78877"
       y1="73.947968"
       x2="134.78877"
       y2="128.44797"
       gradientUnits="userSpaceOnUse" />
    <linearGradient
       inkscape:collect="always"
       xlink:href="#linearGradient18661"
       id="linearGradient18667"
       x1="134.78877"
       y1="73.947968"
       x2="134.78877"
       y2="128.44797"
       gradientUnits="userSpaceOnUse" />
    <clipPath
       clipPathUnits="userSpaceOnUse"
       id="clipPath7377">
      <path
         style="fill:none;fill-rule:evenodd;stroke:#000000;stroke-width:1px;stroke-linecap:butt;stroke-linejoin:miter;stroke-opacity:1"
         d="m -81.484873,-130.01779 c -4.64676,-1.16169 -2.62563,-1 -6,-1 -0.33334,0 -0.72265,-0.1849 -1,0 -1.77591,1.18394 -3.14685,2.94105 -5,4 -0.57883,0.33076 -1.38102,-0.24759 -2,0 -4.17637,1.67055 -1.8426,1.38195 -4,3 -0.961477,0.72111 -1.925037,1.46252 -2.999997,2 -0.29815,0.14907 -0.68377,-0.10541 -1,0 -0.70711,0.2357 -1.33334,0.66667 -2,1 -0.66667,0.33333 -1.47296,0.47295 -2,1 -0.52705,0.52705 -0.58655,1.37983 -1,2 -0.26149,0.39223 -0.66667,0.66667 -1,1 -0.33334,1 -0.5286,2.05719 -1,3 -0.14354,0.28707 -1.92556,1.77668 -2,2 -0.21082,0.63245 0,1.33333 0,2 0,0.33333 0,0.66667 0,1 0,2.33333 0,4.66667 0,7 0,1.66667 0,3.333329 0,4.999999 0,0.66667 -0.21082,1.36754 0,2 0.14907,0.44721 0.66666,0.66667 1,1 0.33333,0.33333 0.57836,0.78918 1,1 0.29814,0.14907 0.66666,0 1,0 0.66666,0 1.33333,0 2,0 2,0 4,0 6,0 0.33333,0 0.66666,0 1,0 0.666657,0 1.367537,-0.21082 1.999997,0 0.22331,0.0744 1.71293,1.85646 2,2 0.29814,0.14907 0.66666,0 1,0 0.66666,0 1.40371,-0.29814 2,0 6.51169,3.25585 -1.99342,1.00219 4,3 0.63245,0.21082 1.36754,-0.21082 2,0 0.7071,0.2357 1.29289,0.7643 2,1 0.31622,0.10541 0.66666,0 1,0 0.33333,0 0.66666,0 1,0 0.33333,0 0.70185,-0.14907 1,0 0.42163,0.21082 0.57836,0.78918 1,1 0.29814,0.14907 0.70185,-0.14907 1,0 0.84327,0.42164 1.15672,1.57836 2,2 0.41715,0.20857 1.76719,-0.23281 2,0 0.2328,0.2328 -0.20858,1.58285 0,2 0.21082,0.42164 0.66666,0.66666 1,1 0.33333,0.33333 1.33333,0.66666 1,1 -0.33334,0.33333 -1.33334,-1.33334 -1,-1 0.66666,0.66666 1.47702,1.21553 2,2 0.1849,0.27735 -0.23571,0.7643 0,1 0.2357,0.2357 0.76429,-0.2357 1,0 0.2357,0.2357 -0.14907,0.70186 0,1 0.21081,0.42164 0.78918,0.57836 1,1 0.14907,0.29814 0,0.66666 0,1 0,0.33333 0,0.66666 0,1 0,0.33333 -0.23571,0.7643 0,1 0.2357,0.2357 0.66666,0 1,0 0.66666,0 1.33333,0 2,0 0.33333,0 0.70185,0.14907 1,0 0.42163,-0.21082 0.66666,-0.66667 1,-1 2.29283,-2.29284 -0.42164,0.63245 2,-3 0.26148,-0.39223 0.66666,-0.66667 1,-1 0.33333,-0.33334 0.66666,-0.66667 1,-1 1.33333,-1.33334 2.66666,-2.66667 4,-4 0.33333,-0.33334 0.73851,-0.60777 1,-1 0.41345,-0.62018 0.58655,-1.37983 1,-2 0.26148,-0.39223 0.78918,-0.57836 1,-1 0.4714,-0.94281 0.52859,-2.05719 1,-3 0.21081,-0.42164 0.66666,-0.66667 1,-1 0.33333,-0.33333 0.66666,-0.66667 1,-1 1,-1 2,-2 3,-3 0.33333,-0.33333 0.73851,-0.60777 1,-1 0.41344,-0.62018 0.58655,-1.37983 1,-2 0.26148,-0.39223 0.78918,-0.57836 1,-1 0.14907,-0.29814 0,-0.66667 0,-0.999999 0,-1 0,-2 0,-3 0,-2.66667 0,-5.33333 0,-8 0,-1.66667 0,-3.33333 0,-5 0,-0.66667 0,-1.33333 0,-2 0,-0.33333 0.14907,-0.70186 0,-1 -0.21082,-0.42164 -0.66667,-0.66667 -1,-1 -0.33334,-0.33333 -0.57837,-0.78918 -1,-1 -0.14888,-0.0744 -1.7847,0.0718 -2,0 -0.70711,-0.2357 -1.2929,-0.7643 -2,-1 -0.31623,-0.10541 -0.66667,0 -1,0 -0.66667,0 -1.33334,0 -2,0 -2.66667,0 -5.33334,0 -8,0 -0.66667,0 -1.33334,0 -2,0 -0.66667,0 -1.38102,0.24759 -2,0 -5.89522,-2.35809 -1.16841,-1.11227 -4,-3 -0.62018,-0.41345 -1.37983,-0.58655 -2,-1 -0.39224,-0.26149 -0.57837,-0.78918 -1,-1 -0.29815,-0.14907 -0.70186,0.14907 -1,0 -0.42164,-0.21082 -0.66667,-0.66667 -1,-1 -0.33334,-0.33333 -1.33334,-0.66667 -1,-1 0.33333,-0.33333 1.45733,1.11433 1,1 -1.74146,-0.43537 -3.33334,-1.33333 -5,-2 z"
         id="path7379"
         inkscape:connector-curvature="0" />
    </clipPath>
  </defs>
  <metadata
     id="metadata11731">
    <rdf:RDF>
      <cc:Work
         rdf:about="">
        <dc:format>image/svg+xml</dc:format>
        <dc:type
           rdf:resource="http://purl.org/dc/dcmitype/StillImage" />
        <dc:title />
      </cc:Work>
    </rdf:RDF>
  </metadata>
  <g
     transform="translate(663.4848,-71.154549)"
     id="layer1"
     inkscape:groupmode="layer"
     inkscape:label="Layer 1">
    <rect
       ry="4"
       rx="4"
       y="71.154549"
       x="-663.4848"
       height="295.82764"
       width="1596.041"
       id="rect14272"
       style="opacity:1;fill:#6f907b;fill-opacity:1;stroke:none;stroke-width:2;stroke-linecap:round;stroke-linejoin:miter;stroke-miterlimit:4;stroke-dasharray:none;stroke-dashoffset:0;stroke-opacity:1" />
    <rect
       transform="scale(1,-1)"
       ry="3.9999998"
       rx="3.9999998"
       y="-201.81525"
       x="61.504196"
       height="143.97566"
       width="143.97566"
       id="rect6518"
       style="opacity:1;fill:#00ff00;fill-opacity:0;stroke:none;stroke-width:0.5;stroke-linecap:round;stroke-linejoin:miter;stroke-miterlimit:4;stroke-dasharray:none;stroke-dashoffset:0;stroke-opacity:1" />
    <path
       inkscape:connector-curvature="0"
       id="path14274"
       d="m -561.61078,-32.845113 c 68.6966,10.638295 144.93672,-4.248499 202.53515,49.066403 86.27975,-2.96568 187.00422,32.05937 208.64063,120.23438 85.51683,17.93719 146.777585,111.05737 242.917966,105.46094 79.670164,4.84145 141.861784,-20.62397 204.242184,-63.86524 32.22621,-92.66058 123.8665,-91.38583 202.23828,-85.71094 90.41665,-55.0201 182.5832,-106.70505 291.31446,-90.59179 34.0483,-10.354888 67.47113,-21.83851 100.33593,-34.593753 l -1452.2246,0 z"
       style="fill:url(#radialGradient15569);fill-rule:evenodd;stroke:none;stroke-width:1px;stroke-linecap:butt;stroke-linejoin:miter;stroke-opacity:1;fill-opacity:1" />
    <path
       inkscape:connector-curvature="0"
       id="path14279"
       d="m -201.64203,-32.845113 c 24.64201,18.792833 43.26234,43.988223 51.20703,76.365233 85.51683,17.93719 146.777585,111.05737 242.917966,105.46094 79.670164,4.84145 141.861784,-20.62201 204.242184,-63.86328 32.22621,-92.66059 123.8665,-91.385834 202.23828,-85.71094 18.18239,-11.064296 36.43843,-21.981626 54.88282,-32.251953 l -755.48828,0 z"
       style="fill:#e3dedb;fill-rule:evenodd;stroke:none;stroke-width:1px;stroke-linecap:butt;stroke-linejoin:miter;stroke-opacity:1" />
    <path
       style="opacity:1;fill:#000000;fill-opacity:1;stroke:#084154;stroke-width:1.71988759;stroke-linecap:round;stroke-linejoin:miter;stroke-miterlimit:4;stroke-dasharray:none;stroke-dashoffset:0;stroke-opacity:1;filter:url(#filter16797)"
       d="m -4.9642474,-34.845273 0,127.864713 c 0,74.48521 59.9647984,134.44985 134.4502174,134.44985 74.48543,0 134.45022,-59.96464 134.45022,-134.44985 l 0,-127.864713"
       id="path16751"
       inkscape:connector-curvature="0"
       sodipodi:nodetypes="csssc"
       transform="matrix(0.83464149,0,0,0.83464149,21.411608,36.999148)" />
    <path
       sodipodi:nodetypes="csssc"
       inkscape:connector-curvature="0"
       id="rect14288"
       d="m 20.606807,9.5851205 0,106.7211995 c 0,62.16844 50.049109,112.21742 112.217733,112.21742 62.16863,0 112.21773,-50.04898 112.21773,-112.21742 l 0,-106.7211995"
       style="opacity:1;fill:#14a0cc;fill-opacity:1;stroke:#084154;stroke-width:0.99999994;stroke-linecap:round;stroke-linejoin:miter;stroke-miterlimit:4;stroke-dasharray:none;stroke-dashoffset:0;stroke-opacity:1" />
    <path
       sodipodi:nodetypes="csssc"
       inkscape:connector-curvature="0"
       id="rect14290"
       d="m 31.456759,-1.2641095 0,117.2314795 c 0,56.69755 45.973042,102.34216 103.078571,102.34216 57.10552,0 103.07856,-45.64461 103.07856,-102.34216 l 0,-117.2314795"
       style="opacity:1;fill:#14a0cc;fill-opacity:1;stroke:#084154;stroke-width:0.99999994;stroke-linecap:round;stroke-linejoin:miter;stroke-miterlimit:4;stroke-dasharray:none;stroke-dashoffset:0;stroke-opacity:1" />
    <path
       d="m 63.654514,27.9448 c 0,0 0,19.671263 0,19.671263 0,0.662494 -0.263167,1.297855 -0.731609,1.766309 -0.468439,0.468454 -1.103782,0.731629 -1.766258,0.731629 0,0 -13.426028,0 -13.426028,0 -0.662475,0 -1.297817,-0.263175 -1.766257,-0.731629 -0.468441,-0.468454 -0.731608,-1.103815 -0.731608,-1.766309 0,0 0,-19.671263 0,-19.671263 0,-1.379574 1.118332,-2.497939 2.497865,-2.497939 0,0 13.426028,0 13.426028,0 0.662476,0 1.297819,0.263174 1.766258,0.731629 0.468442,0.468454 0.731609,1.103815 0.731609,1.76631 m 0,35.283377 c 0,0 0,19.671265 0,19.671265 0,0.662494 -0.263167,1.297855 -0.731609,1.766308 -0.468439,0.468455 -1.103782,0.731629 -1.766258,0.731629 0,0 -13.426028,0 -13.426028,0 -0.662475,0 -1.297817,-0.263174 -1.766257,-0.731629 -0.468441,-0.468453 -0.731608,-1.103814 -0.731608,-1.766308 0,0 0,-19.671265 0,-19.671265 0,-1.379573 1.118332,-2.497938 2.497865,-2.497938 0,0 13.426028,0 13.426028,0 0.662476,0 1.297819,0.263175 1.766258,0.731629 0.468442,0.468454 0.731609,1.103815 0.731609,1.766309 m 0,35.283379 c 0,0 0.05409,19.322894 0.05409,19.322894 0.02499,0.66201 -0.219839,1.08172 -0.657901,1.57867 -0.438062,0.49696 -1.055591,0.79954 -1.716739,0.84118 0,0 -13.399132,0.84383 -13.399132,0.84383 -0.661148,0.0417 -1.311757,-0.18108 -1.8087,-0.61915 -0.496943,-0.43808 -0.8007,-1.28759 -0.82569,-1.9496 0,0 -0.06769,-20.017824 -0.06769,-20.017824 0,-1.379573 1.118333,-2.497938 2.497867,-2.497938 0,0 13.426027,0 13.426027,0 0.662476,0 1.297818,0.263175 1.766257,0.731629 0.468442,0.468454 0.73161,1.103815 0.73161,1.766309 m 1.902077,32.939474 c 0,0 6.127171,16.23811 6.127171,16.23811 0.30853,0.58623 0.279977,1.07337 0.09905,1.71066 -0.180932,0.63728 -0.607609,1.1766 -1.186165,1.49929 0,0 -11.72531,6.53981 -11.72531,6.53981 -0.578556,0.32269 -1.261602,0.40232 -1.898874,0.22139 -0.637272,-0.18093 -1.281642,-0.80525 -1.590171,-1.39148 0,0 -7.726526,-20.46978 -7.726526,-20.46978 -0.325596,-1.34056 0.495954,-2.89801 1.844178,-3.1901 0,0 13.121313,-2.84262 13.121313,-2.84262 0.647439,-0.14026 1.324079,-0.0175 1.881066,0.34107 0.556986,0.35864 0.897917,0.69989 1.054272,1.34365 m 13.783377,27.7305 c 0,0 12.489613,11.82055 12.489613,11.82055 0.535497,0.39002 0.719679,0.85044 0.838274,1.50222 0.118604,0.65177 -0.02654,1.32397 -0.403573,1.86871 0,0 -7.640475,11.03991 -7.640475,11.03991 -0.376998,0.54474 -0.954948,0.9174 -1.606705,1.036 -0.651757,0.1186 -1.49703,-0.16577 -2.032526,-0.55578 0,0 -15.996313,-15.16253 -15.996313,-15.16253 -0.86484,-1.07477 -0.799025,-2.81229 0.296173,-3.6511 0,0 10.65879,-8.16355 10.65879,-8.16355 0.525932,-0.40281 1.190335,-0.5802 1.847046,-0.49312 0.656714,0.0871 1.134386,0.24257 1.549696,0.75869 m 24.376499,18.835 c 0,0 16.53895,5.22711 16.53895,5.22711 0.65075,0.12402 1.00914,0.43978 1.39518,0.97815 0.38605,0.53836 0.36022,1.17661 0.26894,1.83278 0,0 -1.85012,13.29797 -1.85012,13.29797 -0.0913,0.65616 -0.63753,1.21615 -1.17588,1.60221 -0.53836,0.38604 -1.43616,0.50901 -2.08691,0.38497 0,0 -20.863832,-6.62198 -20.863832,-6.62198 -1.250648,-0.58215 -1.956473,-2.18296 -1.343982,-3.41906 0,0 5.960924,-12.03017 5.960924,-12.03017 0.29413,-0.5936 0.81201,-1.04604 1.43972,-1.25779 0.62771,-0.21177 1.11643,-0.27376 1.71701,0.006 m 30.23218,6.34056 c 0,0 17.14823,-2.40897 17.14823,-2.40897 0.63965,-0.17231 1.10484,-0.0336 1.687,0.2825 0.58217,0.31614 1.01491,0.85059 1.20303,1.48579 0,0 3.81263,12.87333 3.81263,12.87333 0.18812,0.6352 0.11621,1.31913 -0.19991,1.90131 -0.31612,0.58218 -1.07186,1.07257 -1.71152,1.24487 0,0 -21.70797,3.04153 -21.70797,3.04153 -1.37939,0.0174 -2.71503,-1.11822 -2.6977,-2.49765 0,0 0.16871,-13.42501 0.16871,-13.42501 0.008,-0.66242 0.27944,-1.2944 0.75372,-1.75692 0.47429,-0.46252 0.88138,-0.73246 1.54378,-0.74078 m 30.01355,-7.32776 c 0,0 14.26974,-9.5677 14.26974,-9.5677 0.49564,-0.43957 0.99228,-0.5142 1.65432,-0.49038 0.66203,0.0238 1.28748,0.30966 1.73876,0.79465 0,0 9.14599,9.82884 9.14599,9.82884 0.45129,0.48498 0.69143,1.12937 0.66762,1.79142 -0.0238,0.66205 -0.48855,1.41875 -0.98418,1.8583 0,0 -18.3133,12.29139 -18.3133,12.29139 -1.23607,0.61251 -2.92489,0.16706 -3.50704,-1.08363 0,0 -5.66555,-12.17207 -5.66555,-12.17207 -0.27955,-0.6006 -0.30908,-1.28766 -0.0821,-1.91002 0.22701,-0.62238 0.48212,-1.04665 1.07571,-1.3408 m 23.74185,-19.63396 c 0,0 8.77421,-15.01556 8.77421,-15.01556 0.2648,-0.60725 0.65244,-0.8916 1.26294,-1.14877 0.6105,-0.25719 1.22553,-0.095 1.84504,0.13968 0,0 12.55503,4.75619 12.55503,4.75619 0.61951,0.23468 1.04866,0.88929 1.30583,1.49981 0.25717,0.61052 0.18148,1.50974 -0.0833,2.11697 0,0 -11.03487,18.85284 -11.03487,18.85284 -0.83878,1.09523 -2.55807,1.43122 -3.63281,0.56636 0,0 -10.45972,-8.41713 -10.45972,-8.41713 -0.5161,-0.41532 -0.8461,-1.01867 -0.91737,-1.6773 -0.0713,-0.65863 -0.0177,-1.14714 0.38504,-1.67309 m 12.86294,-28.16008 c 0,0 1.40744,-17.61177 1.40744,-17.61177 0,-0.66249 0.26317,-1.29785 0.7316,-1.76631 0.46845,-0.46845 1.10378,-0.73162 1.76626,-0.73162 0,0 13.42603,0 13.42603,0 0.66248,0 1.29782,0.26317 1.76627,0.73162 0.46843,0.46846 0.7316,1.10382 0.7316,1.76631 0,0 -1.82554,21.51212 -1.82554,21.51212 -0.29207,1.34826 -1.68364,2.39728 -3.02417,2.07169 0,0 -13.04637,-3.16889 -13.04637,-3.16889 -0.64374,-0.15636 -1.23344,-0.36502 -1.59206,-0.92203 -0.35864,-0.55699 -0.48132,-1.23365 -0.34106,-1.88112 m 1.40744,-33.223881 c 0,0 0,-19.671264 0,-19.671264 0,-0.662495 0.26317,-1.297855 0.7316,-1.766309 0.46845,-0.468454 1.10378,-0.731631 1.76626,-0.731631 0,0 13.42603,0 13.42603,0 0.66248,0 1.29782,0.263177 1.76627,0.731631 0.46843,0.468454 0.7316,1.103814 0.7316,1.766309 0,0 0,19.671264 0,19.671264 0,1.379573 -1.11834,2.497938 -2.49787,2.497938 0,0 -13.42603,0 -13.42603,0 -0.66248,0 -1.29781,-0.263175 -1.76626,-0.731629 -0.46843,-0.468455 -0.7316,-1.103815 -0.7316,-1.766309 m 0,-35.283379 c 0,0 0,-19.671265 0,-19.671265 0,-0.662494 0.26317,-1.297853 0.7316,-1.766308 0.46845,-0.468454 1.10378,-0.731629 1.76626,-0.731629 0,0 13.42603,0 13.42603,0 0.66248,0 1.29782,0.263175 1.76627,0.731629 0.46843,0.468455 0.7316,1.103814 0.7316,1.766308 0,0 0,19.671265 0,19.671265 0,1.379573 -1.11834,2.497939 -2.49787,2.497939 0,0 -13.42603,0 -13.42603,0 -0.66248,0 -1.29781,-0.263175 -1.76626,-0.731629 -0.46843,-0.468455 -0.7316,-1.103815 -0.7316,-1.76631"
       id="path18196"
       style="opacity:1;fill:#0e6c8b;fill-opacity:1;stroke:#084154;stroke-width:0.99999994;stroke-linecap:round;stroke-linejoin:miter;stroke-miterlimit:4;stroke-dasharray:none;stroke-dashoffset:0;stroke-opacity:1"
       inkscape:connector-curvature="0" />
    <path
       style="opacity:1;fill:#0e6c8b;fill-opacity:1;stroke:#084154;stroke-width:0.99999994;stroke-linecap:round;stroke-linejoin:miter;stroke-miterlimit:4;stroke-dasharray:none;stroke-dashoffset:0;stroke-opacity:1"
       d="m 31.456247,-1.2637395 0,6.673877 25.088146,0 0,-6.673877 -25.088146,0 z m 181.069933,0 0,2.32461 25.08814,0 0,-2.32461 -25.08814,0 z m 0,6.497818 0,7.0944525 25.08814,0 0,-7.0944525 -25.08814,0 z m -181.069933,4.349266 0,7.0944505 25.088146,0 0,-7.0944505 -25.088146,0 z m 181.069933,6.9183925 0,7.094453 25.08814,0 0,-7.094453 -25.08814,0 z m -181.069933,4.349266 0,7.094452 25.088146,0 0,-7.094452 -25.088146,0 z m 181.069933,6.918395 0,7.094452 25.08814,0 0,-7.094452 -25.08814,0 z m -181.069933,4.349264 0,7.094453 25.088146,0 0,-7.094453 -25.088146,0 z m 181.069933,6.918395 0,7.094453 25.08814,0 0,-7.094453 -25.08814,0 z m -181.069933,4.349265 0,7.094453 25.088146,0 0,-7.094453 -25.088146,0 z m 181.069933,6.918395 0,7.094453 25.08814,0 0,-7.094453 -25.08814,0 z m -181.069933,4.349265 0,7.094453 25.088146,0 0,-7.094453 -25.088146,0 z m 181.069933,6.918396 0,7.094452 25.08814,0 0,-7.094452 -25.08814,0 z m -181.069933,4.349265 0,7.094452 25.088146,0 0,-7.094452 -25.088146,0 z m 181.069933,6.918395 0,7.094452 25.08814,0 0,-7.094452 -25.08814,0 z m -181.069933,4.349265 0,7.094452 25.088146,0 0,-7.094452 -25.088146,0 z m 181.069933,6.918395 0,7.094453 25.08814,0 0,-7.094453 -25.08814,0 z m -181.069933,4.349265 0,7.094452 25.088146,0 0,-7.094452 -25.088146,0 z m 181.069933,6.918395 0,7.094452 25.08814,0 0,-7.094452 -25.08814,0 z m -181.069933,4.349265 0,7.094457 25.088146,0 0,-7.094457 -25.088146,0 z m 181.069933,6.918397 0,7.09445 25.08814,0 0,-7.09445 -25.08814,0 z m -181.069933,4.34926 0,4.97525 c 0,1.02907 0.02045,2.0529 0.0505,3.07448 l 25.13542,-0.95527 c -0.06493,-1.30226 -0.09781,-2.61313 -0.09781,-3.93195 l 0,-3.16251 -25.088147,0 z m 180.978643,6.91677 c -0.11354,2.38428 -0.33945,4.73837 -0.66348,7.06021 l 25.11749,3.19512 c 0.36297,-3.06027 0.59437,-6.16145 0.68141,-9.30006 l -25.13542,-0.95527 z m -155.47154,4.33785 -25.066955,3.18859 c 0.256594,2.8016 0.621074,5.5703 1.098722,8.30077 l 25.024572,-4.47805 c -0.454754,-2.30189 -0.810537,-4.63982 -1.056339,-7.01131 z m 154.12014,6.83689 c -0.45601,2.3365 -1.01463,4.63546 -1.67581,6.89068 l 24.59911,7.00316 c 0.84171,-3.08314 1.54515,-6.22408 2.09801,-9.41743 l -25.02131,-4.47641 z m -152.146021,4.24493 -24.861558,5.7512 c 0.728,3.15436 1.605433,6.24976 2.618037,9.28376 l 24.312197,-8.25187 c -0.789004,-2.21627 -1.481606,-4.47805 -2.068676,-6.78309 z m 149.185651,6.61519 c -0.7915,2.23973 -1.68158,4.43213 -2.66858,6.57117 l 23.51016,10.66939 c 1.29186,-2.92714 2.45057,-5.92587 3.46735,-8.99033 l -24.30893,-8.25023 z M 62.510778,144.003 38.553963,153.48401 c 1.183664,2.99843 2.507614,5.92566 3.959656,8.77678 l 23.037407,-11.84963 c -1.107661,-2.08177 -2.123403,-4.21817 -3.040248,-6.40816 z m 141.091902,6.25003 c -1.10881,2.09567 -2.30999,4.13411 -3.60102,6.10984 l 21.88326,14.10251 c 1.71064,-2.70484 3.29718,-5.49549 4.75191,-8.36435 l -23.03415,-11.848 z m -135.994396,3.78686 -22.501083,13.00052 c 1.608671,2.77997 3.345502,5.47767 5.201836,8.08396 l 21.240975,-15.18819 c -1.401113,-1.90129 -2.716967,-3.86776 -3.941728,-5.89629 z m 130.018236,5.75283 c -1.39967,1.90853 -2.88438,3.75132 -4.45033,5.52135 l 19.76242,17.22916 c 2.08977,-2.42611 4.0676,-4.94957 5.924,-7.56557 l -21.23609,-15.18494 z m -123.512264,3.43475 -20.535118,16.23475 c 1.995469,2.50829 4.105167,4.92235 6.325021,7.23139 l 18.963639,-18.20399 c -1.663482,-1.68054 -3.249718,-3.43619 -4.753542,-5.26215 z m 116.212414,5.135 c -1.65907,1.68376 -3.39405,3.29269 -5.20184,4.82038 l 17.19655,20.00206 c 2.42526,-2.09866 4.75262,-4.30667 6.96893,-6.62008 l -18.96364,-18.20236 z m -108.446342,3.01417 -18.107806,19.12991 c 2.339392,2.18925 4.782079,4.2699 7.32105,6.23536 l 16.251054,-20.84647 c -1.890722,-1.42479 -3.715098,-2.93164 -5.464298,-4.5188 z m 99.987442,4.41284 c -1.8819,1.42482 -3.83221,2.76559 -5.84411,4.01834 l 14.21824,22.37719 c 2.71641,-1.72898 5.34419,-3.58303 7.87693,-5.55069 l -16.25106,-20.84484 z m -91.125895,2.53 -15.256662,21.63711 c 2.637284,1.8271 5.364099,3.53528 8.175255,5.11544 l 13.14234,-23.07002 c -2.079943,-1.13898 -4.103581,-2.36583 -6.060933,-3.68253 z m 81.682395,3.59614 c -2.0644,1.13663 -4.18583,2.18408 -6.36089,3.13479 l 10.8699,24.28774 c 2.95583,-1.319 5.83491,-2.77312 8.63333,-4.35252 l -13.14234,-23.07001 z m -71.91122,1.99531 -12.024056,23.70577 c 2.882351,1.42442 5.841606,2.71965 8.87133,3.87653 l 9.681516,-24.81266 c -2.22641,-0.82815 -4.40551,-1.75095 -6.52879,-2.76964 z m 61.68197,2.70769 c -2.20279,0.82509 -4.45329,1.55458 -6.74724,2.18279 l 7.21019,25.68153 c 3.13667,-0.87523 6.21077,-1.89789 9.21693,-3.05166 l -9.67988,-24.81266 z m -51.20657,1.41335 -8.45889,25.27725 c 3.06696,0.98747 6.19744,1.83798 9.38482,2.54142 l 5.93378,-26.01897 c -2.32725,-0.50004 -4.61614,-1.09954 -6.85971,-1.7997 z m 40.40676,1.76383 c -2.29305,0.4981 -4.62348,0.90078 -6.98849,1.19491 l 3.32389,26.49497 c 3.25117,-0.40895 6.45232,-0.97222 9.60001,-1.67253 l -5.93541,-26.01735 z m -29.44556,0.80367 -4.63781,26.29284 c 3.18059,0.52701 6.4107,0.91313 9.68478,1.146 l 1.99857,-26.63354 c -2.38049,-0.16442 -4.72989,-0.43518 -7.04554,-0.8053 z m 18.30342,0.79389 c -1.88795,0.13462 -3.7933,0.20703 -5.71697,0.20703 -0.45879,0 -0.91574,-0.0102 -1.37259,-0.018 l -0.33255,26.70527 c 0.56788,0.009 1.135,0.0212 1.70514,0.0212 2.59672,0 5.16815,-0.0965 7.71554,-0.28202 l -1.99857,-26.63354 z"
       id="path9694"
       inkscape:connector-curvature="0" />
    <rect
       transform="scale(1,-1)"
       ry="3.9999998"
       rx="3.9999998"
       y="-186.29546"
       x="61.375565"
       height="143.97566"
       width="143.97566"
       id="rect6518-2"
       style="opacity:1;fill:#00ff00;fill-opacity:0;stroke:none;stroke-width:0.5;stroke-linecap:round;stroke-linejoin:miter;stroke-miterlimit:4;stroke-dasharray:none;stroke-dashoffset:0;stroke-opacity:1" />
    <rect
       transform="scale(1,-1)"
       ry="4"
       rx="4"
       y="91.767792"
       x="63.265137"
       height="172.5"
       width="172.5"
       id="rect6518-3"
       style="opacity:1;fill:#00ff00;fill-opacity:0;stroke:none;stroke-width:1;stroke-linecap:round;stroke-linejoin:miter;stroke-miterlimit:4;stroke-dasharray:none;stroke-dashoffset:0;stroke-opacity:1" />
    <circle
       style="opacity:1;fill:#000000;fill-opacity:1;stroke:none;stroke-width:1;stroke-linecap:round;stroke-linejoin:miter;stroke-miterlimit:4;stroke-dasharray:none;stroke-dashoffset:0;stroke-opacity:1;filter:url(#filter11647)"
       id="circle11593"
       cx="-1227.75"
       cy="508.63776"
       r="70.75"
       transform="matrix(0,-1,-1,0,657.747,-1405.362)" />
    <circle
       transform="matrix(0,-1,-1,0,0,0)"
       r="70.75"
       cy="-149.10925"
       cx="177.61191"
       id="path6493"
       style="opacity:1;fill:#14a0cc;fill-opacity:1;stroke:#0f789a;stroke-width:2;stroke-linecap:round;stroke-linejoin:miter;stroke-miterlimit:4;stroke-dasharray:none;stroke-dashoffset:0;stroke-opacity:1" />
    <path
       clip-path="url(#clipPath16414)"
       id="path16335"
       d="m 60.095703,29.556641 a 13.435029,13.435029 0 0 0 -13.433594,13.435547 13.435029,13.435029 0 0 0 13.433594,13.435546 13.435029,13.435029 0 0 0 11.0625,-5.8125 l 10.935547,0 0,2.53711 -7.119141,0 0,1.173828 c -7.183404,0.629819 -13.765532,2.998551 -19.183593,6.607422 l 0,-2.53125 -8.566407,0 0,10.529297 c -3.006371,3.972035 -5.032686,8.546529 -5.789062,13.474609 l -4.091797,0 c -2.216,0 -4,1.784 -4,4 l 0,0.5 c 0,2.216 1.784,4 4,4 l 4.066406,0 c 0.735713,4.992215 2.773785,9.62537 5.814453,13.64258 l 0,10.52929 8.566407,0 0,-2.5332 c 5.418072,3.60887 12.000185,5.97956 19.183593,6.60938 l 0,1.17382 7.119141,0 0,2.53711 -10.832031,0 a 13.435029,13.435029 0 0 0 -11.166016,-5.98046 13.435029,13.435029 0 0 0 -13.433594,13.43554 13.435029,13.435029 0 0 0 13.433594,13.4336 13.435029,13.435029 0 0 0 12.103516,-7.63868 l 9.941406,0 c 0.228892,1.99548 1.89437,3.54102 3.953125,3.54102 l 0.5,0 c 2.058784,0 3.726224,-1.5455 3.955078,-3.54102 l 11.535152,0 a 13.435029,13.435029 0 0 0 12.10547,7.63868 13.435029,13.435029 0 0 0 13.43555,-13.4336 13.435029,13.435029 0 0 0 -13.43555,-13.43554 13.435029,13.435029 0 0 0 -11.16797,5.98046 l -12.42773,0 0,-2.53711 5.947266,0 0,-3.69921 c 10.026534,-2.65874 19.477874,-6.60345 29.683594,-8.67774 l 0,1.87695 8.56641,0 0,-3.08984 c 1.71075,-0.12893 3.44918,-0.19207 5.22265,-0.16797 l 0,5.37891 8.56641,0 0,-4.95508 c 1.61091,-0.13699 3.16334,-0.47043 4.64453,-0.96289 l 0,3.79687 15.56641,0 0,-46.175776 -15.56641,0 0,3.794922 c -1.48119,-0.492459 -3.03362,-0.825898 -4.64453,-0.962891 l 0,-4.953125 -8.56641,0 0,5.376953 c -1.77347,0.0241 -3.5119,-0.03903 -5.22265,-0.167969 l 0,-3.08789 -8.56641,0 0,1.876953 c -10.2057,-2.074285 -19.65708,-6.018995 -29.683594,-8.677735 l 0,-3.699218 -5.947266,0 0,-2.53711 12.55078,0 a 13.435029,13.435029 0 0 0 11.04492,5.8125 13.435029,13.435029 0 0 0 13.43555,-13.435546 13.435029,13.435029 0 0 0 -13.43555,-13.435547 13.435029,13.435029 0 0 0 -12.18164,7.808593 l -11.443357,0 C 90.413748,35.288684 88.710041,33.65625 86.59375,33.65625 l -0.5,0 c -2.116315,0 -3.820032,1.632401 -3.970703,3.708984 l -9.84375,0 A 13.435029,13.435029 0 0 0 60.095703,29.556641 Z"
       style="opacity:1;fill:#021318;fill-opacity:0.72463768;stroke:none;stroke-width:5;stroke-linecap:round;stroke-linejoin:miter;stroke-miterlimit:4;stroke-dasharray:none;stroke-dashoffset:0;stroke-opacity:1;filter:url(#filter16408)"
       inkscape:connector-curvature="0"
       transform="translate(63.26514,-264.2678)" />
    <path
       transform="matrix(0,-1,1,0,657.747,-1405.362)"
       inkscape:connector-curvature="0"
       clip-path="url(#clipPath11679-3)"
       d="m -1170.858,-584.23645 11.799,0 c 2.216,0 4,1.784 4,4 l 0,150.03836 c 0,2.216 -1.784,4 -4,4 l -11.799,0 c -2.216,0 -4,-1.784 -4,-4 l 0,-150.03836 c 0,-2.216 1.784,-4 4,-4 z m -35.3554,0 11.799,0 c 2.216,0 4,1.784 4,4 l 0,150.03836 c 0,2.216 -1.784,4 -4,4 l -11.799,0 c -2.216,0 -4,-1.784 -4,-4 l 0,-150.03836 c 0,-2.216 1.784,-4 4,-4 z m -38.1837,0 11.799,0 c 2.216,0 4,1.784 4,4 l 0,150.03836 c 0,2.216 -1.784,4 -4,4 l -11.799,0 c -2.216,0 -4,-1.784 -4,-4 l 0,-150.03836 c 0,-2.216 1.784,-4 4,-4 z m -36.7695,0 11.799,0 c 2.216,0 4,1.784 4,4 l 0,150.03836 c 0,2.216 -1.784,4 -4,4 l -11.799,0 c -2.216,0 -4,-1.784 -4,-4 l 0,-150.03836 c 0,-2.216 1.784,-4 4,-4 z"
       style="opacity:1;fill:none;fill-opacity:1;stroke:#084154;stroke-width:1;stroke-linecap:round;stroke-linejoin:miter;stroke-miterlimit:4;stroke-dasharray:none;stroke-dashoffset:0;stroke-opacity:1"
       id="rect11670" />
    <g
       id="g16321"
       transform="translate(15.22944,-393.23714)">
      <path
         id="circle11657"
         style="opacity:1;fill:#084154;fill-opacity:1;stroke:none;stroke-width:5;stroke-linecap:round;stroke-linejoin:miter;stroke-miterlimit:4;stroke-dasharray:none;stroke-dashoffset:0;stroke-opacity:1"
         d="m 162.22578,158.52644 a 13.435029,13.435029 0 0 1 13.43503,13.4351 13.435029,13.435029 0 0 1 -13.43503,13.435 13.435029,13.435029 0 0 1 -13.43503,-13.435 13.435029,13.435029 0 0 1 13.43503,-13.4351 z m -54.09366,0 a 13.435029,13.435029 0 0 1 13.43503,13.4351 13.435029,13.435029 0 0 1 -13.43503,13.435 13.435029,13.435029 0 0 1 -13.43503,-13.435 13.435029,13.435029 0 0 1 13.43503,-13.4351 z m 54.09366,87.3277 a 13.435029,13.435029 0 0 1 13.43503,13.435 13.435029,13.435029 0 0 1 -13.43503,13.435 13.435029,13.435029 0 0 1 -13.43503,-13.435 13.435029,13.435029 0 0 1 13.43503,-13.435 z m -54.09366,0 a 13.435029,13.435029 0 0 1 13.43503,13.435 13.435029,13.435029 0 0 1 -13.43503,13.435 13.435029,13.435029 0 0 1 -13.43503,-13.435 13.435029,13.435029 0 0 1 13.43503,-13.435 z"
         inkscape:connector-curvature="0" />
      <rect
         style="opacity:1;fill:#084154;fill-opacity:1;stroke:none;stroke-width:1;stroke-linecap:round;stroke-linejoin:miter;stroke-miterlimit:4;stroke-dasharray:none;stroke-dashoffset:0;stroke-opacity:1"
         id="rect6503"
         width="106"
         height="8.5"
         x="-268.62524"
         y="-138.62981"
         rx="4"
         ry="4"
         transform="matrix(0,-1,-1,0,0,0)" />
      <path
         id="rect6507"
         style="opacity:1;fill:url(#linearGradient16319);fill-opacity:1;stroke:#084154;stroke-width:2;stroke-linecap:round;stroke-linejoin:miter;stroke-miterlimit:4;stroke-dasharray:none;stroke-dashoffset:0;stroke-opacity:1"
         d="m 165.8798,261.08404 0,-5.25 c 0,-2.216 -1.784,-4 -4,-4 l -55,0 c -2.216,0 -4,1.784 -4,4 l 0,5.25 c 0,2.216 1.784,4 4,4 l 55,0 c 2.216,0 4,-1.784 4,-4 z m 0,-85.5 0,-5.25 c 0,-2.216 -1.784,-4 -4,-4 l -55,0 c -2.216,0 -4,1.784 -4,4 l 0,5.25 c 0,2.216 1.784,4 4,4 l 55,0 c 2.216,0 4,-1.784 4,-4 z"
         inkscape:connector-curvature="0" />
      <rect
         transform="scale(1,-1)"
         ry="4"
         rx="4"
         y="-219.87523"
         x="81.379807"
         height="8.5"
         width="106"
         id="rect11561"
         style="opacity:1;fill:#084154;fill-opacity:1;stroke:none;stroke-width:1;stroke-linecap:round;stroke-linejoin:miter;stroke-miterlimit:4;stroke-dasharray:none;stroke-dashoffset:0;stroke-opacity:1" />
      <path
         id="path11551"
         style="opacity:1;fill:url(#linearGradient11569);fill-opacity:1;stroke:#084154;stroke-width:2;stroke-linecap:round;stroke-linejoin:miter;stroke-miterlimit:4;stroke-dasharray:none;stroke-dashoffset:0;stroke-opacity:1"
         d="m 126.87908,248.29274 c 24.36713,-0.4266 42.31549,-15.7178 68,-12.25 11.18377,0 20.25,-9.0662 20.248,-20.3337 0.002,-11.2676 -9.06423,-20.3338 -20.248,-20.3338 -25.68451,3.4678 -43.63287,-11.8234 -68,-12.25 -20.84875,0 -37.75,14.5507 -37.7481,32.5838 -0.002,18.033 16.89935,32.5837 37.7481,32.5837 z"
         inkscape:connector-curvature="0"
         sodipodi:nodetypes="ccccccc" />
      <path
         style="opacity:1;fill:url(#linearGradient16591);fill-opacity:1;stroke:#084154;stroke-width:2;stroke-linecap:round;stroke-linejoin:miter;stroke-miterlimit:4;stroke-dasharray:none;stroke-dashoffset:0;stroke-opacity:1"
         d="m 201.26085,238.79654 0,-46.1752 15.56675,0 0,46.1752 z"
         id="path16303"
         inkscape:connector-curvature="0" />
      <path
         style="opacity:1;fill:url(#linearGradient16593);fill-opacity:1;stroke:#084154;stroke-width:2;stroke-linecap:round;stroke-linejoin:miter;stroke-miterlimit:4;stroke-dasharray:none;stroke-dashoffset:0;stroke-opacity:1"
         d="m 174.26085,238.79654 0,-46.1752 8.56675,0 0,46.1752 z"
         id="path16301"
         inkscape:connector-curvature="0" />
      <path
         style="opacity:1;fill:url(#linearGradient16595);fill-opacity:1;stroke:#084154;stroke-width:2;stroke-linecap:round;stroke-linejoin:miter;stroke-miterlimit:4;stroke-dasharray:none;stroke-dashoffset:0;stroke-opacity:1"
         d="m 123.01085,249.29654 0,-67.1752 21.56675,0 0,67.1752 z"
         id="rect11556"
         inkscape:connector-curvature="0" />
      <path
         id="path16305"
         d="m 188.04943,240.91787 0,-50.41784 8.56675,0 0,50.41784 z"
         style="opacity:1;fill:url(#linearGradient16597);fill-opacity:1;stroke:#084154;stroke-width:2;stroke-linecap:round;stroke-linejoin:miter;stroke-miterlimit:4;stroke-dasharray:none;stroke-dashoffset:0;stroke-opacity:1"
         inkscape:connector-curvature="0" />
      <path
         id="path16309"
         d="m 95.26085,244.04654 0,-56.6752 8.56675,0 0,56.6752 z"
         style="opacity:1;fill:url(#linearGradient11583);fill-opacity:1;stroke:#084154;stroke-width:2;stroke-linecap:round;stroke-linejoin:miter;stroke-miterlimit:4;stroke-dasharray:none;stroke-dashoffset:0;stroke-opacity:1"
         inkscape:connector-curvature="0" />
    </g>
    <path
       d="m 24.785224,-44.92597 c 0,0 0,31.5 0,31.5 0,1.060866 -0.421427,2.078282 -1.171573,2.828427 -0.750145,0.7501456 -1.767561,1.171573 -2.828427,1.171573 0,0 -21.5,0 -21.5,0 -1.060866,0 -2.0782816,-0.4214274 -2.8284271,-1.171573 -0.7501455,-0.750145 -1.1715729,-1.767561 -1.1715729,-2.828427 0,0 0,-31.5 0,-31.5 0,-2.209139 1.790861,-4 4,-4 0,0 21.5,0 21.5,0 1.060866,0 2.078282,0.421427 2.828427,1.171573 0.750146,0.750145 1.171573,1.767561 1.171573,2.828427 m 0,56.5 c 0,0 0,31.5 0,31.5 0,1.060866 -0.421427,2.078282 -1.171573,2.828427 -0.750145,0.750146 -1.767561,1.171573 -2.828427,1.171573 0,0 -21.5,0 -21.5,0 -1.060866,0 -2.0782816,-0.421427 -2.8284271,-1.171573 -0.7501455,-0.750145 -1.1715729,-1.767561 -1.1715729,-2.828427 0,0 0,-31.5 0,-31.5 0,-2.209139 1.790861,-4 4,-4 0,0 21.5,0 21.5,0 1.060866,0 2.078282,0.4214274 2.828427,1.1715729 0.750146,0.7501455 1.171573,1.7675611 1.171573,2.8284271 m 0,56.5 c 0,0 0.08662,30.942145 0.08662,30.942145 0.04002,1.060085 -0.352044,1.732185 -1.053542,2.527965 -0.701497,0.79579 -1.690388,1.28032 -2.749129,1.34699 0,0 -21.45692849,1.35124 -21.45692849,1.35124 -1.05874071,0.0667 -2.10060411,-0.28996 -2.89639231,-0.99146 -0.7957881,-0.7015 -1.2822147,-2.06184 -1.3222331,-3.12193 0,0 -0.1083951,-32.05495 -0.1083951,-32.05495 0,-2.209139 1.790861,-4 4,-4 0,0 21.5,0 21.5,0 1.060866,0 2.078282,0.421427 2.828427,1.171573 0.750146,0.750145 1.171573,1.767561 1.171573,2.828427 m 3.045925,52.74666 c 0,0 9.81185,26.00241 9.81185,26.00241 0.494069,0.93876 0.448345,1.71882 0.158608,2.73933 -0.289738,1.0205 -0.973003,1.88412 -1.899486,2.40085 0,0 -18.776523,10.47232 -18.776523,10.47232 -0.926482,0.51673 -2.020289,0.64425 -3.040796,0.35452 -1.020506,-0.28974 -2.052379,-1.28946 -2.546448,-2.22822 0,0 -12.3730038,-32.77867 -12.3730038,-32.77867 -0.5213972,-2.14667 0.79420439,-4.64065 2.9532051,-5.10836 0,0 21.0120397,-4.55195 21.0120397,-4.55195 1.036788,-0.2246 2.120337,-0.0281 3.012277,0.54616 0.89194,0.5743 1.437894,1.12074 1.688277,2.15161 m 22.072246,44.40542 c 0,0 20.000458,18.9285 20.000458,18.9285 0.857516,0.62454 1.152467,1.36181 1.342385,2.40551 0.189917,1.04371 -0.04255,2.12011 -0.64627,2.99241 0,0 -12.235206,17.67844 -12.235206,17.67844 -0.603717,0.8723 -1.529227,1.46905 -2.572929,1.65897 -1.043702,0.18991 -2.397297,-0.26544 -3.254813,-0.88997 0,0 -25.615973,-24.28008 -25.615973,-24.28008 -1.384927,-1.72106 -1.279533,-4.50337 0.474281,-5.84658 0,0 17.068635,-13.07247 17.068635,-13.07247 0.84221,-0.64502 1.906164,-0.92907 2.957801,-0.78964 1.051638,0.13943 1.816566,0.38843 2.481631,1.21491 m 39.035729,30.16087 c 0,0 26.484936,8.37029 26.484936,8.37029 1.04208,0.1986 1.616,0.70421 2.23419,1.56631 0.61819,0.86211 0.57685,1.88416 0.43066,2.93488 0,0 -2.9627,21.29432 -2.9627,21.29432 -0.14619,1.05072 -1.02093,1.94745 -1.88303,2.56564 -0.8621,0.61819 -2.29982,0.81509 -3.3419,0.61648 0,0 -33.410662,-10.60392 -33.410662,-10.60392 -2.002753,-0.93222 -3.133034,-3.49562 -2.152213,-5.47502 0,0 9.545641,-19.26416 9.545641,-19.26416 0.471007,-0.95054 1.300325,-1.67505 2.305513,-2.01413 1.005188,-0.33909 1.787809,-0.43836 2.749565,0.009 m 48.412816,10.15327 c 0,0 27.4606,-3.85754 27.4606,-3.85754 1.02433,-0.27592 1.76925,-0.0538 2.70152,0.45238 0.93226,0.50623 1.62525,1.36206 1.9265,2.37922 0,0 6.1054,20.61433 6.1054,20.61433 0.30126,1.01716 0.18611,2.11234 -0.32011,3.0446 -0.50623,0.93227 -1.71645,1.71754 -2.74078,1.99345 0,0 -34.76243,4.87045 -34.76243,4.87045 -2.20891,0.0278 -4.34777,-1.79063 -4.32001,-3.99953 0,0 0.27017,-21.49774 0.27017,-21.49774 0.0133,-1.06075 0.44749,-2.07276 1.20699,-2.8134 0.75949,-0.74064 1.4114,-1.17289 2.47215,-1.18622 m 48.06271,-11.73408 c 0,0 22.8511,-15.32098 22.8511,-15.32098 0.7937,-0.70387 1.589,-0.82338 2.64916,-0.78524 1.06015,0.0381 2.06174,0.49586 2.78441,1.27247 0,0 14.64607,15.73914 14.64607,15.73914 0.72268,0.77661 1.10725,1.80849 1.06911,2.86864 -0.0381,1.06016 -0.78235,2.27187 -1.57604,2.97573 0,0 -29.3263,19.68246 -29.3263,19.68246 -1.97941,0.98082 -4.68383,0.26751 -5.61605,-1.73524 0,0 -9.07264,-19.49139 -9.07264,-19.49139 -0.44766,-0.96175 -0.49494,-2.06195 -0.13143,-3.05856 0.36352,-0.99662 0.77206,-1.67602 1.72261,-2.14703 m 38.01941,-31.44028 c 0,0 14.05073,-24.04473 14.05073,-24.04473 0.42405,-0.9724 1.0448,-1.42772 2.02243,-1.83955 0.97764,-0.41184 1.96253,-0.15212 2.95458,0.22368 0,0 20.10523,7.61618 20.10523,7.61618 0.99205,0.3758 1.67927,1.42405 2.0911,2.40169 0.41184,0.97763 0.29062,2.41756 -0.13344,3.38995 0,0 -17.67087,30.18943 -17.67087,30.18943 -1.3432,1.75381 -4.0964,2.29184 -5.81746,0.90691 0,0 -16.74985,-13.47852 -16.74985,-13.47852 -0.82648,-0.66506 -1.35491,-1.63121 -1.46905,-2.68589 -0.11414,-1.05468 -0.0284,-1.83693 0.6166,-2.67915 m 20.59829,-45.09337 c 0,0 2.25382,-28.202097 2.25382,-28.202097 0,-1.060866 0.42143,-2.078281 1.17157,-2.828427 0.75015,-0.750145 1.76756,-1.171573 2.82843,-1.171573 0,0 21.5,0 21.5,0 1.06087,0 2.07828,0.421428 2.82843,1.171573 0.75014,0.750146 1.17157,1.767561 1.17157,2.828427 0,0 -2.92335,34.447797 -2.92335,34.447797 -0.46772,2.159 -2.69614,3.83882 -4.84281,3.31743 0,0 -20.89203,-5.0744 -20.89203,-5.0744 -1.03086,-0.25038 -1.97518,-0.58451 -2.54948,-1.47645 -0.5743,-0.89194 -0.77076,-1.97549 -0.54615,-3.01228 m 2.25382,-53.202097 c 0,0 0,-31.5 0,-31.5 0,-1.060866 0.42143,-2.078281 1.17157,-2.828427 0.75015,-0.750145 1.76756,-1.171573 2.82843,-1.171573 0,0 21.5,0 21.5,0 1.06087,0 2.07828,0.421428 2.82843,1.171573 0.75014,0.750146 1.17157,1.767561 1.17157,2.828427 0,0 0,31.5 0,31.5 0,2.209139 -1.79086,4 -4,4 0,0 -21.5,0 -21.5,0 -1.06087,0 -2.07828,-0.421427 -2.82843,-1.171573 -0.75014,-0.750145 -1.17157,-1.767561 -1.17157,-2.828427 m 0,-56.4999997 c 0,0 0,-31.5000003 0,-31.5000003 0,-1.060866 0.42143,-2.078281 1.17157,-2.828427 0.75015,-0.750145 1.76756,-1.171573 2.82843,-1.171573 0,0 21.5,0 21.5,0 1.06087,0 2.07828,0.421428 2.82843,1.171573 0.75014,0.750146 1.17157,1.767561 1.17157,2.828427 0,0 0,31.5000003 0,31.5000003 0,2.209139 -1.79086,3.9999997 -4,3.9999997 0,0 -21.5,0 -21.5,0 -1.06087,0 -2.07828,-0.421427 -2.82843,-1.171573 -0.75014,-0.7501451 -1.17157,-1.7675607 -1.17157,-2.8284267"
       id="path16735"
       style="opacity:1;fill:#000000;fill-opacity:1;stroke:none;stroke-width:1.43548958;stroke-linecap:round;stroke-linejoin:miter;stroke-miterlimit:4;stroke-dasharray:none;stroke-dashoffset:0;stroke-opacity:1;filter:url(#filter16741)"
       clip-path="url(#clipPath16747)"
       inkscape:connector-curvature="0"
       transform="matrix(0.83464149,0,0,0.83464149,21.411608,36.999148)" />
    <path
       style="opacity:1;fill:#0e6c8b;fill-opacity:1;stroke:#084154;stroke-width:0.99999994;stroke-linecap:round;stroke-linejoin:miter;stroke-miterlimit:4;stroke-dasharray:none;stroke-dashoffset:0;stroke-opacity:1"
       id="path1701"
       d="m 42.098384,-0.49793055 c 0,0 0,26.29120755 0,26.29120755 0,0.885443 -0.35174,1.73462 -0.977843,2.360722 -0.626102,0.626103 -1.47528,0.977844 -2.360723,0.977844 0,0 -17.944792,0 -17.944792,0 -0.885442,0 -1.73462,-0.351741 -2.360722,-0.977844 -0.626103,-0.626102 -0.977844,-1.475279 -0.977844,-2.360722 0,0 0,-26.29120755 0,-26.29120755 0,-1.84383895 1.494727,-3.33856595 3.338566,-3.33856595 0,0 17.944792,0 17.944792,0 0.885443,0 1.734621,0.351741 2.360723,0.977844 0.626103,0.626102 0.977843,1.47528 0.977843,2.36072195 m 0,47.15724455 c 0,0 0,26.291207 0,26.291207 0,0.885442 -0.35174,1.73462 -0.977843,2.360722 -0.626102,0.626103 -1.47528,0.977844 -2.360723,0.977844 0,0 -17.944792,0 -17.944792,0 -0.885442,0 -1.73462,-0.351741 -2.360722,-0.977844 -0.626103,-0.626102 -0.977844,-1.47528 -0.977844,-2.360722 0,0 0,-26.291207 0,-26.291207 0,-1.843839 1.494727,-3.338566 3.338566,-3.338566 0,0 17.944792,0 17.944792,0 0.885443,0 1.734621,0.35174 2.360723,0.977843 0.626103,0.626103 0.977843,1.47528 0.977843,2.360723 m 0,47.157244 c 0,0 0.0723,25.825602 0.0723,25.825602 0.0334,0.88479 -0.293831,1.44575 -0.87933,2.10994 -0.585498,0.6642 -1.410868,1.06861 -2.294537,1.12425 0,0 -17.908843,1.1278 -17.908843,1.1278 -0.883669,0.0557 -1.753251,-0.24201 -2.417449,-0.82751 -0.664198,-0.5855 -1.07019,-1.7209 -1.103591,-2.60569 0,0 -0.09047,-26.754392 -0.09047,-26.754392 0,-1.843839 1.494727,-3.338566 3.338566,-3.338566 0,0 17.944792,0 17.944792,0 0.885443,0 1.734621,0.35174 2.360723,0.977843 0.626103,0.626102 0.977843,1.47528 0.977843,2.360723 m 2.542256,44.024552 c 0,0 8.189377,21.70269 8.189377,21.70269 0.41237,0.78352 0.374207,1.43459 0.132381,2.28635 -0.241828,0.85176 -0.812109,1.57257 -1.58539,2.00385 0,0 -15.671665,8.74064 -15.671665,8.74064 -0.773281,0.43128 -1.686217,0.53771 -2.537975,0.29589 -0.851757,-0.24183 -1.713001,-1.07623 -2.125371,-1.85976 0,0 -10.327022,-27.35844 -10.327022,-27.35844 -0.43518,-1.7917 0.662876,-3.87328 2.464867,-4.26365 0,0 17.53752,-3.79925 17.53752,-3.79925 0.865347,-0.18746 1.769722,-0.0235 2.514172,0.45585 0.74445,0.47934 1.200126,0.93542 1.409106,1.79583 m 18.422412,37.0626 c 0,0 16.693212,15.79851 16.693212,15.79851 0.715718,0.52127 0.961897,1.13663 1.12041,2.00774 0.158513,0.87113 -0.03551,1.76953 -0.539404,2.49759 0,0 -10.21201,14.75516 -10.21201,14.75516 -0.503887,0.72806 -1.276356,1.22613 -2.147473,1.38465 -0.871117,0.1585 -2.000884,-0.22155 -2.716602,-0.74281 0,0 -21.380154,-20.26516 -21.380154,-20.26516 -1.155918,-1.43647 -1.067952,-3.7587 0.395854,-4.8798 0,0 14.246191,-10.91083 14.246191,-10.91083 0.702944,-0.53836 1.590964,-0.77544 2.468704,-0.65906 0.87774,0.11637 1.516181,0.3242 2.071272,1.01401 m 32.580839,25.17352 c 0,0 22.105425,6.98619 22.105425,6.98619 0.86976,0.16576 1.34878,0.58776 1.86475,1.3073 0.51596,0.71956 0.48146,1.5726 0.35944,2.44958 0,0 -2.47279,17.77312 -2.47279,17.77312 -0.12202,0.87697 -0.85211,1.62542 -1.57166,2.14139 -0.71954,0.51597 -1.91952,0.68031 -2.78928,0.51454 0,0 -27.885925,-8.85047 -27.885925,-8.85047 -1.67158,-0.77807 -2.61496,-2.91759 -1.796326,-4.56968 0,0 7.967188,-16.07867 7.967188,-16.07867 0.393122,-0.79336 1.085305,-1.39807 1.924277,-1.68108 0.838972,-0.28301 1.49218,-0.36587 2.294901,0.008 m 40.407345,8.47434 c 0,0 22.91975,-3.21967 22.91975,-3.21967 0.85495,-0.23029 1.47669,-0.0449 2.2548,0.37758 0.77811,0.42252 1.3565,1.13683 1.60794,1.98579 0,0 5.09582,17.20558 5.09582,17.20558 0.25144,0.84896 0.15533,1.76305 -0.26718,2.54115 -0.42252,0.77811 -1.43262,1.43353 -2.28757,1.66382 0,0 -29.01416,4.06507 -29.01416,4.06507 -1.84365,0.0232 -3.62883,-1.49453 -3.60566,-3.33817 0,0 0.22549,-17.9429 0.22549,-17.9429 0.0111,-0.88535 0.3735,-1.73002 1.00741,-2.34818 0.6339,-0.61817 1.17801,-0.97895 2.06336,-0.99007 m 40.11513,-9.79375 c 0,0 19.07247,-12.78753 19.07247,-12.78753 0.66246,-0.58748 1.32625,-0.68723 2.2111,-0.65539 0.88485,0.0318 1.72082,0.41386 2.32399,1.06205 0,0 12.22421,13.13654 12.22421,13.13654 0.60318,0.64819 0.92416,1.50944 0.89233,2.39429 -0.0318,0.88485 -0.65298,1.8962 -1.31543,2.48367 0,0 -24.47695,16.42779 -24.47695,16.42779 -1.65209,0.81864 -3.90932,0.22328 -4.68739,-1.4483 0,0 -7.5724,-16.26832 -7.5724,-16.26832 -0.37363,-0.80272 -0.41309,-1.72099 -0.10969,-2.5528 0.3034,-0.83182 0.64439,-1.39888 1.43776,-1.792 m 31.73257,-26.24137 c 0,0 11.72733,-20.06872 11.72733,-20.06872 0.35393,-0.81161 0.87203,-1.19164 1.688,-1.53537 0.81598,-0.34374 1.63801,-0.12697 2.46602,0.18669 0,0 16.78066,6.35678 16.78066,6.35678 0.828,0.31366 1.40158,1.18857 1.74531,2.00455 0.34374,0.81597 0.24257,2.0178 -0.11137,2.8294 0,0 -14.74884,25.19735 -14.74884,25.19735 -1.12109,1.4638 -3.41903,1.91286 -4.8555,0.75694 0,0 -13.98012,-11.24973 -13.98012,-11.24973 -0.68981,-0.55509 -1.13086,-1.36148 -1.22613,-2.24176 -0.0953,-0.88028 -0.0237,-1.53317 0.51464,-2.23613 m 17.19219,-37.63679 c 0,0 1.88113,-23.53864 1.88113,-23.53864 0,-0.88544 0.35175,-1.73462 0.97784,-2.36072 0.62611,-0.6261 1.47528,-0.97785 2.36073,-0.97785 0,0 17.94479,0 17.94479,0 0.88545,0 1.73462,0.35175 2.36073,0.97785 0.62609,0.6261 0.97784,1.47528 0.97784,2.36072 0,0 -2.43995,28.75156 -2.43995,28.75156 -0.39038,1.80199 -2.25031,3.20404 -4.04201,2.76886 0,0 -17.43736,-4.2353 -17.43736,-4.2353 -0.8604,-0.20898 -1.64856,-0.48786 -2.1279,-1.23231 -0.47933,-0.74445 -0.64331,-1.64882 -0.45584,-2.51417 m 1.88113,-44.404677 c 0,0 0,-26.291207 0,-26.291207 0,-0.885443 0.35175,-1.73462 0.97784,-2.360723 0.62611,-0.626102 1.47528,-0.977843 2.36073,-0.977843 0,0 17.94479,0 17.94479,0 0.88545,0 1.73462,0.351741 2.36073,0.977843 0.62609,0.626103 0.97784,1.47528 0.97784,2.360723 0,0 0,26.291207 0,26.291207 0,1.843839 -1.49473,3.338566 -3.33857,3.338566 0,0 -17.94479,0 -17.94479,0 -0.88545,0 -1.73462,-0.351741 -2.36073,-0.977844 -0.62609,-0.626102 -0.97784,-1.47528 -0.97784,-2.360722 m 0,-47.157244 c 0,0 0,-26.291207 0,-26.291207 0,-0.885443 0.35175,-1.73462 0.97784,-2.360723 0.62611,-0.626102 1.47528,-0.977843 2.36073,-0.977843 0,0 17.94479,0 17.94479,0 0.88545,0 1.73462,0.351741 2.36073,0.977843 0.62609,0.626103 0.97784,1.47528 0.97784,2.360723 0,0 0,26.291207 0,26.291207 0,1.843839 -1.49473,3.338565 -3.33857,3.338565 0,0 -17.94479,0 -17.94479,0 -0.88545,0 -1.73462,-0.35174 -2.36073,-0.977843 -0.62609,-0.626102 -0.97784,-1.47528 -0.97784,-2.360722"
       inkscape:connector-curvature="0" />
    <path
       style="opacity:1;fill:#000000;fill-opacity:1;stroke:#084154;stroke-width:1.71988761;stroke-linecap:round;stroke-linejoin:miter;stroke-miterlimit:4;stroke-dasharray:none;stroke-dashoffset:0;stroke-opacity:1;filter:url(#filter18233)"
       d="m 681.53711,-147.23047 0,174.425782 c 0,64.604372 52.39812,116.613278 117.48437,116.613278 65.08626,0 117.48243,-52.008906 117.48243,-116.613278 l 0,-174.425782 -24.04102,0 0,168.517579 c 0,51.405007 -41.67472,92.789061 -93.44141,92.789061 -51.76668,0 -93.44336,-41.384054 -93.44336,-92.789061 l 0,-168.517579 -24.04101,0 z"
       transform="matrix(0.83464149,0,0,0.83464149,-532.36038,96.387687)"
       id="path18198"
       clip-path="url(#clipPath18251)"
       inkscape:connector-curvature="0" />
    <path
       style="fill:#14a0cc;fill-opacity:1;fill-rule:evenodd;stroke:#128bb2;stroke-width:0.59905958;stroke-linecap:butt;stroke-linejoin:miter;stroke-opacity:1;stroke-miterlimit:4;stroke-dasharray:none"
       d="m 173.80353,46.17449 c 2.83486,0.351225 3.15695,3.949849 2.90122,6.216527 -0.10038,3.070904 -3.48318,4.309137 -6.02388,3.692913 -2.07249,-1.282135 -2.72412,-4.35425 -2.13899,-6.593476 1.33528,-1.360466 2.95423,-2.762255 4.65899,-3.492808 l 0.60266,0.176844 0,0 z"
       id="path18630" />
    <path
       style="fill:#14a0cc;fill-opacity:1;fill-rule:evenodd;stroke:#128bb2;stroke-width:0.59905958;stroke-linecap:butt;stroke-linejoin:miter;stroke-opacity:1;stroke-miterlimit:4;stroke-dasharray:none"
       d="m 173.0621,36.564029 c 1.06062,2.30518 0.5187,5.458412 -2.41421,5.8234 -3.45881,0.326829 -3.09062,-5.080444 0.16554,-5.118395 0.74934,-0.235912 1.52154,-0.401237 2.24867,-0.705005 z"
       id="path18628" />
    <path
       style="fill:#14a0cc;fill-opacity:1;fill-rule:evenodd;stroke:#128bb2;stroke-width:0.59905958;stroke-linecap:butt;stroke-linejoin:miter;stroke-opacity:1;stroke-miterlimit:4;stroke-dasharray:none"
       d="m 199.2601,43.670566 c 2.83485,0.351225 3.15695,3.949849 2.90121,6.216526 -0.10038,3.070905 -3.48317,4.309137 -6.02388,3.692913 -2.07248,-1.282134 -2.72411,-4.354249 -2.13899,-6.593476 1.33528,-1.360465 2.95423,-2.762254 4.659,-3.492807 l 0.60266,0.176844 0,0 z"
       id="path18626" />
    <path
       style="fill:#14a0cc;fill-opacity:1;fill-rule:evenodd;stroke:#128bb2;stroke-width:0.59905958;stroke-linecap:butt;stroke-linejoin:miter;stroke-opacity:1;stroke-miterlimit:4;stroke-dasharray:none"
       d="m 146.01022,32.077806 c 2.83485,0.351227 3.15695,3.949851 2.90122,6.216522 -0.10039,3.070908 -3.48318,4.30914 -6.02389,3.692916 -2.07248,-1.282135 -2.72411,-4.354253 -2.13898,-6.593476 1.33527,-1.360468 2.95423,-2.762255 4.65899,-3.492812 l 0.60266,0.17685 0,0 z"
       id="path18624" />
    <path
       style="fill:#14a0cc;fill-opacity:1;fill-rule:evenodd;stroke:#128bb2;stroke-width:0.59905958;stroke-linecap:butt;stroke-linejoin:miter;stroke-opacity:1;stroke-miterlimit:4;stroke-dasharray:none"
       d="m 160.28512,26.945181 c -0.52104,-2.0169 3.23239,-1.082706 2.82487,-3.765497 1.76979,-3.644091 1.43484,-9.193136 -3.08381,-10.584292 -4.75485,-1.786663 -10.00091,-0.532419 -14.27618,1.881588 -3.54549,3.397752 -1.13489,9.285035 0.87881,12.963533 2.72772,3.286016 7.37052,0.65852 10.05856,-1.124842 1.23461,9.18e-4 2.34984,0.765818 3.59775,0.62951 z"
       id="path18622" />
    <path
       style="fill:#14a0cc;fill-opacity:1;fill-rule:evenodd;stroke:#128bb2;stroke-width:0.59905958;stroke-linecap:butt;stroke-linejoin:miter;stroke-opacity:1;stroke-miterlimit:4;stroke-dasharray:none"
       d="m 178.52755,68.293625 c 3.8658,-0.554845 6.76783,2.680217 10.17022,3.052868 3.29953,-1.123294 6.21991,-4.636751 6.69576,-8.036146 -1.82701,-3.206492 -1.56363,-6.687014 -3.02095,-9.849988 -3.373,-1.097937 -7.45761,-0.356016 -10.96384,0.489292 -3.50417,1.189014 -5.94022,4.479246 -6.92848,7.924904 -1.91753,2.371417 -1.06296,7.753753 2.60367,7.141135 l 0.66339,-0.441192 0.78023,-0.280873 0,0 z"
       id="path18620" />
    <path
       style="fill:#14a0cc;fill-opacity:1;fill-rule:evenodd;stroke:#128bb2;stroke-width:0.59905958;stroke-linecap:butt;stroke-linejoin:miter;stroke-opacity:1;stroke-miterlimit:4;stroke-dasharray:none"
       d="m 165.41564,49.605275 c 1.06062,2.30518 0.51869,5.458414 -2.41421,5.823403 -3.45882,0.326829 -3.09063,-5.080446 0.16554,-5.118398 0.74933,-0.235911 1.52153,-0.401237 2.24867,-0.705005 z"
       id="path18616" />
    <path
       style="fill:#14a0cc;fill-opacity:1;fill-rule:evenodd;stroke:#128bb2;stroke-width:0.59905958;stroke-linecap:butt;stroke-linejoin:miter;stroke-opacity:1;stroke-miterlimit:4;stroke-dasharray:none"
       d="m 172.4562,72.169733 c 3.91202,1.212717 3.59553,8.158162 -0.68482,8.598777 -3.05267,0.2447 -7.49863,0.07478 -7.41246,4.343575 -0.0234,4.737909 -5.32495,3.324218 -7.27113,0.679473 -2.95444,-1.470121 -4.68806,-5.58699 -2.56124,-8.406659 1.61559,-2.556299 2.06915,-5.568178 2.17167,-8.464809 1.97473,-3.902901 8.03455,-5.92421 11.46573,-2.671988 1.38157,2.000878 3.53948,3.536568 4.29225,5.921631 z"
       id="path18612" />
    <path
       style="fill:#14a0cc;fill-opacity:1;fill-rule:evenodd;stroke:#128bb2;stroke-width:0.59905958;stroke-linecap:butt;stroke-linejoin:miter;stroke-opacity:1;stroke-miterlimit:4;stroke-dasharray:none"
       d="m 104.36489,55.673862 c -2.83485,-0.351226 -3.15695,-3.949857 -2.90121,-6.216527 0.10038,-3.070905 3.48318,-4.309137 6.02388,-3.692921 2.07248,1.282143 2.72411,4.354258 2.13899,6.593484 -1.33528,1.360466 -2.95423,2.762254 -4.659,3.492808 l -0.60266,-0.176844 0,0 z"
       id="path18610" />
    <path
       style="fill:#14a0cc;fill-opacity:1;fill-rule:evenodd;stroke:#128bb2;stroke-width:0.59905958;stroke-linecap:butt;stroke-linejoin:miter;stroke-opacity:1;stroke-miterlimit:4;stroke-dasharray:none"
       d="m 90.089994,60.806481 c 0.521042,2.016903 -3.232382,1.082706 -2.82486,3.765502 -1.769791,3.644087 -1.434841,9.193134 3.0838,10.584289 4.754852,1.786667 10.000906,0.532418 14.276186,-1.88159 3.54549,-3.397751 1.13488,-9.285028 -0.87881,-12.963527 -2.72773,-3.286017 -7.370522,-0.658524 -10.05856,1.124838 -1.23461,-8.35e-4 -2.349841,-0.765817 -3.597756,-0.629512 z"
       id="path18608" />
    <path
       style="fill:#14a0cc;fill-opacity:1;fill-rule:evenodd;stroke:#128bb2;stroke-width:0.59905958;stroke-linecap:butt;stroke-linejoin:miter;stroke-opacity:1;stroke-miterlimit:4;stroke-dasharray:none"
       d="m 80.700278,60.1805 c -3.865809,0.554845 -6.767833,-2.680209 -10.170224,-3.052868 -3.299529,1.123302 -6.219907,4.636759 -6.695761,8.036154 1.827014,3.206492 1.563626,6.687014 3.020952,9.849988 3.373003,1.097929 7.457605,0.356016 10.963842,-0.489292 3.504167,-1.189022 5.940227,-4.479245 6.928484,-7.924904 1.917531,-2.371425 1.062958,-7.753761 -2.603681,-7.141134 l -0.663389,0.441191 -0.780223,0.280865 0,0 z"
       id="path18606" />
    <path
       style="fill:#14a0cc;fill-opacity:1;fill-rule:evenodd;stroke:#128bb2;stroke-width:0.59905958;stroke-linecap:butt;stroke-linejoin:miter;stroke-opacity:1;stroke-miterlimit:4;stroke-dasharray:none"
       d="m 75.275108,54.54667 c -3.437688,-4.400438 -2.526627,-11.902146 2.490453,-14.683831 3.983294,-1.095358 8.203683,1.572573 12.14587,-0.230394 2.794647,-2.505202 1.814878,-7.102652 3.170653,-10.449314 2.11156,-4.810615 5.259135,2.092513 5.269334,4.734708 3.061362,3.937901 0.600057,8.826316 0.228608,13.137932 0.912547,4.624657 -1.731338,9.103276 -6.803138,8.274911 -5.462035,0.705106 -11.433403,1.778555 -16.543228,-0.785189 l -0.375856,-0.833464"
       id="path18604" />
    <path
       style="fill:#14a0cc;fill-opacity:1;fill-rule:evenodd;stroke:#128bb2;stroke-width:0.59905958;stroke-linecap:butt;stroke-linejoin:miter;stroke-opacity:1;stroke-miterlimit:4;stroke-dasharray:none"
       d="m 84.959487,38.146386 c -1.060621,-2.305181 -0.518697,-5.458412 2.414209,-5.823401 3.458812,-0.326829 3.090619,5.080449 -0.165543,5.118396 -0.749333,0.23591 -1.521535,0.401239 -2.248666,0.705005 z"
       id="path18602" />
    <path
       style="fill:#14a0cc;fill-opacity:1;fill-rule:evenodd;stroke:#128bb2;stroke-width:0.59905958;stroke-linecap:butt;stroke-linejoin:miter;stroke-opacity:1;stroke-miterlimit:4;stroke-dasharray:none"
       d="m 72.439856,38.981027 c -2.834852,-0.351227 -3.156948,-3.949856 -2.901214,-6.216525 0.100382,-3.070905 3.483176,-4.309137 6.023883,-3.692913 2.072482,1.282135 2.724111,4.35425 2.138986,6.593476 -1.335276,1.360468 -2.95423,2.762254 -4.658994,3.492812 l -0.602661,-0.17685 0,0 z"
       id="path18600" />
    <path
       style="fill:#14a0cc;fill-opacity:1;fill-rule:evenodd;stroke:#128bb2;stroke-width:0.59905958;stroke-linecap:butt;stroke-linejoin:miter;stroke-opacity:1;stroke-miterlimit:4;stroke-dasharray:none"
       d="m 195.54461,32.62739 c 4.05339,0.587092 4.82511,7.496792 0.66604,8.600255 -2.97704,0.718284 -7.39501,1.244534 -6.64345,5.447563 0.71657,4.683466 -4.74067,4.114791 -7.07589,1.806315 -3.14772,-0.990837 -5.50282,-4.786569 -3.84229,-7.903713 1.19669,-2.777174 1.17446,-5.822944 0.82349,-8.700062 1.34121,-4.163335 7.01115,-7.105924 10.908,-4.42926 1.67701,1.76065 4.04821,2.940604 5.1641,5.178902 z"
       id="path18598" />
    <path
       style="fill:#14a0cc;fill-opacity:1;fill-rule:evenodd;stroke:#128bb2;stroke-width:0.59905958;stroke-linecap:butt;stroke-linejoin:miter;stroke-opacity:1;stroke-miterlimit:4;stroke-dasharray:none"
       d="m 115.58025,83.954445 c -3.43768,-4.400447 -2.52662,-11.902146 2.49046,-14.683831 3.98329,-1.095358 8.20368,1.572573 12.14587,-0.230394 2.79464,-2.505202 1.81488,-7.102657 3.17065,-10.449319 2.11156,-4.810615 5.25913,2.092513 5.26933,4.734712 3.06137,3.937897 0.60006,8.826317 0.22861,13.137933 0.91255,4.624657 -1.73134,9.103276 -6.80314,8.274911 -5.46203,0.705105 -11.4334,1.778555 -16.54322,-0.785189 l -0.37586,-0.833464"
       id="path18590" />
    <path
       style="fill:#14a0cc;fill-opacity:1;fill-rule:evenodd;stroke:#128bb2;stroke-width:0.59905958;stroke-linecap:butt;stroke-linejoin:miter;stroke-opacity:1;stroke-miterlimit:4;stroke-dasharray:none"
       d="m 125.68195,65.884874 c -1.06062,-2.305179 -0.51869,-5.458413 2.41421,-5.823402 3.45882,-0.326829 3.09062,5.080455 -0.16554,5.118397 -0.74933,0.235912 -1.52153,0.401238 -2.24867,0.705005 z"
       id="path18588" />
    <path
       style="fill:#14a0cc;fill-opacity:1;fill-rule:evenodd;stroke:#128bb2;stroke-width:0.59905958;stroke-linecap:butt;stroke-linejoin:miter;stroke-opacity:1;stroke-miterlimit:4;stroke-dasharray:none"
       d="m 113.16232,66.719516 c -2.83485,-0.351226 -3.15694,-3.949858 -2.90121,-6.216527 0.10038,-3.070905 3.48318,-4.309137 6.02388,-3.692913 2.07248,1.282135 2.72411,4.35425 2.13899,6.593476 -1.33528,1.360474 -2.95423,2.762254 -4.659,3.492816 l -0.60266,-0.176852 0,0 z"
       id="path18586" />
    <path
       style="fill:#14a0cc;fill-opacity:1;fill-rule:evenodd;stroke:#128bb2;stroke-width:0.59905958;stroke-linecap:butt;stroke-linejoin:miter;stroke-opacity:1;stroke-miterlimit:4;stroke-dasharray:none"
       d="m 127.76856,55.034535 c -1.03643,3.962377 -7.98909,3.957027 -8.62081,-0.299311 -0.38108,-3.038654 -0.41026,-7.487761 -4.67096,-7.210643 -4.73421,0.188646 -3.55919,-5.170846 -1.00419,-7.233437 1.33643,-3.017267 5.37159,-4.933395 8.28362,-2.934896 2.62603,1.499575 5.6552,1.817883 8.55352,1.790665 3.98736,1.798106 6.27783,7.761394 3.18242,11.334678 -1.93704,1.469728 -3.37461,3.694198 -5.7236,4.552944 z"
       id="path18584" />
    <path
       inkscape:connector-curvature="0"
       style="opacity:1;fill:#128eb6;fill-opacity:1;stroke:#0d627e;stroke-width:1;stroke-linecap:round;stroke-linejoin:miter;stroke-miterlimit:4;stroke-dasharray:none;stroke-dashoffset:0;stroke-opacity:1"
       d="m 79.195842,7.313323 0,110.277877 c 0,30.47444 24.681408,55.00801 55.339488,55.00801 30.65807,0 55.33948,-24.53357 55.33948,-55.00801 l 0,-110.277877"
       id="path18647"
       sodipodi:nodetypes="csssc" />
    <path
       sodipodi:nodetypes="csssc"
       id="path18651"
       d="m 88.288872,210.58436 0,-92.26439 c 0,-25.496548 20.625918,-46.022648 46.246458,-46.022648 25.62053,0 46.24645,20.5261 46.24645,46.022648 l 0,92.26439"
       style="opacity:1;fill:url(#linearGradient18667);fill-opacity:1;stroke:url(#linearGradient18659);stroke-width:1;stroke-linecap:round;stroke-linejoin:miter;stroke-miterlimit:4;stroke-dasharray:none;stroke-dashoffset:0;stroke-opacity:1"
       inkscape:connector-curvature="0" />
    <g
       style="fill:#e86718;fill-opacity:1;stroke:none"
       transform="matrix(0.00130354,0,0,-0.00130354,-58.051182,139.47958)"
       id="g5540">
      <path
         inkscape:connector-curvature="0"
         d="m 5020,7110 c -36,-15 -87,-41 -114,-59 -28,-17 -56,-31 -63,-31 -8,0 -28,-8 -46,-17 -26,-13 -64,-17 -192,-18 l -161,-1 -94,-56 c -125,-75 -171,-94 -255,-108 -89,-15 -139,-44 -207,-119 -41,-47 -75,-71 -153,-112 -130,-67 -166,-96 -353,-290 -91,-94 -189,-184 -233,-215 -75,-53 -285,-261 -363,-359 -22,-28 -56,-68 -77,-90 -20,-22 -60,-78 -89,-125 -102,-164 -124,-196 -199,-289 -79,-97 -88,-111 -116,-175 -16,-38 -49,-93 -166,-274 -70,-109 -83,-135 -98,-197 -7,-27 -29,-74 -48,-104 -37,-55 -76,-148 -118,-277 -12,-39 -43,-102 -69,-141 -25,-38 -53,-87 -62,-109 -45,-107 -80,-173 -132,-241 -31,-41 -66,-92 -77,-114 -32,-60 -78,-89 -144,-89 -69,0 -122,-24 -183,-81 -34,-33 -48,-54 -53,-84 -9,-49 -18,-61 -64,-85 -20,-10 -80,-59 -134,-109 -53,-50 -105,-91 -115,-91 -24,0 -136,-92 -160,-132 -11,-18 -30,-68 -42,-111 l -23,-77 29,-73 c 45,-113 99,-185 169,-226 33,-20 85,-47 115,-60 30,-14 69,-35 85,-46 17,-12 42,-28 57,-36 43,-23 252,-207 312,-274 35,-40 65,-64 83,-68 34,-6 127,8 213,34 129,39 166,49 217,55 32,3 64,15 85,31 18,13 60,38 93,55 33,17 67,37 76,44 25,22 166,74 201,74 18,0 59,-6 92,-14 34,-8 88,-19 121,-26 33,-7 69,-18 81,-25 11,-7 52,-23 90,-34 38,-12 78,-25 89,-31 26,-12 138,-41 195,-50 25,-4 72,-14 105,-23 181,-47 231,-52 530,-53 182,0 307,-5 335,-12 69,-18 111,-14 162,13 32,17 63,25 96,25 27,0 75,9 107,20 32,11 109,25 171,31 111,11 115,10 241,-21 71,-17 144,-42 164,-55 48,-31 153,-75 179,-75 11,0 55,-18 98,-39 115,-58 261,-101 343,-101 61,0 70,-3 88,-26 25,-32 59,-43 416,-132 132,-33 310,-62 450,-73 50,-3 169,-14 265,-22 107,-10 272,-16 425,-16 138,1 291,0 340,-1 60,-1 105,4 135,15 25,9 95,20 157,24 107,8 115,10 185,52 69,40 79,43 170,48 l 96,6 101,68 c 56,38 117,88 136,111 45,55 127,111 217,147 87,36 119,59 223,164 44,44 108,100 142,124 46,34 66,56 84,95 15,33 53,80 112,139 87,87 127,151 127,206 0,10 30,58 68,106 37,48 74,97 83,109 22,29 49,101 49,131 0,38 46,143 89,205 45,64 68,154 54,209 -9,36 8,166 27,201 8,16 21,20 57,20 29,0 58,8 80,21 29,18 43,20 93,15 52,-6 65,-4 107,19 30,15 64,25 91,25 50,0 88,18 141,65 21,19 64,47 95,61 43,19 67,40 99,81 24,33 70,75 111,102 61,40 72,52 89,99 14,38 44,79 102,141 53,56 87,102 95,127 7,21 23,56 36,77 26,39 63,147 64,182 0,11 11,42 25,69 20,42 23,59 18,116 -3,41 -1,75 6,87 11,21 107,73 134,73 31,0 134,63 189,116 31,30 61,54 66,54 20,0 209,247 225,294 5,17 21,47 34,66 13,20 23,49 23,71 0,51 30,85 93,103 107,32 305,231 348,350 10,28 29,49 70,77 83,56 145,125 186,206 31,63 35,78 28,115 -4,24 -10,75 -14,113 -5,53 -14,81 -36,117 -37,57 -109,116 -154,124 -18,4 -49,20 -67,37 -30,25 -46,31 -115,38 -147,15 -307,9 -361,-12 -68,-27 -136,-24 -210,7 -67,28 -189,57 -210,49 -7,-2 -47,-9 -88,-14 -147,-20 -224,-40 -266,-70 -67,-46 -79,-47 -116,-7 -21,22 -49,39 -78,46 -25,7 -59,21 -77,32 -51,31 -88,38 -244,48 -122,8 -154,8 -189,-5 -33,-12 -68,-14 -156,-8 -102,5 -118,4 -163,-16 -27,-11 -68,-21 -91,-21 -51,0 -147,-32 -197,-66 -27,-18 -46,-24 -68,-21 -16,3 -59,10 -95,15 -36,6 -82,17 -102,26 -21,9 -68,20 -105,26 -69,9 -247,83 -287,119 -14,12 -47,17 -140,22 -66,3 -135,12 -152,19 -27,11 -46,11 -116,0 -84,-13 -86,-12 -143,14 -83,38 -180,32 -247,-16 -15,-10 -51,-21 -80,-25 -29,-3 -78,-12 -108,-19 -30,-8 -67,-14 -83,-14 -16,0 -55,-11 -86,-24 -31,-13 -95,-35 -143,-50 -76,-24 -93,-33 -135,-77 -51,-54 -97,-82 -152,-94 -21,-4 -56,-27 -85,-55 -62,-57 -89,-72 -113,-62 -45,18 -122,69 -163,107 -68,64 -97,76 -193,75 -108,-2 -180,14 -237,50 -41,26 -56,30 -119,30 -62,0 -81,5 -143,36 l -71,36 -156,3 c -177,4 -241,15 -323,57 -67,34 -106,37 -236,19 -120,-16 -278,-1 -363,35 -73,30 -117,29 -199,-6 z"
         id="path5542"
         style="fill:#e86718;fill-opacity:1" />
    </g>
    <g
       style="fill:#ca4914;fill-opacity:1;stroke:none"
       transform="matrix(-0.00130354,0,0,-0.00130354,301.60256,187.93697)"
       id="g5516"
       inkscape:transform-center-x="20.057104"
       inkscape:transform-center-y="-4.2474977">
      <path
         inkscape:connector-curvature="0"
         d="m 19055.473,41703.807 c -37,-13 -71,-35 -107,-71 -54,-53 -72,-61 -208,-90 -22,-4 -52,-17 -67,-28 -28,-21 -168,-56 -291,-72 -76,-10 -106,-22 -169,-65 -42,-28 -51,-30 -125,-28 -44,1 -102,9 -127,18 l -47,16 -81,-41 c -59,-30 -85,-49 -93,-69 -16,-37 -135,-169 -169,-187 -19,-10 -44,-12 -88,-7 -62,6 -106,-3 -240,-48 -40,-13 -82,-18 -150,-17 -66,1 -106,-3 -130,-14 -50,-21 -135,-84 -198,-145 -48,-47 -59,-53 -97,-53 -23,0 -76,13 -116,29 -116,45 -208,71 -257,71 -72,0 -158,-47 -229,-125 -34,-36 -89,-84 -123,-105 -34,-23 -68,-54 -78,-72 -9,-18 -31,-47 -49,-65 -28,-29 -37,-33 -86,-33 -47,0 -63,5 -115,40 -67,45 -158,80 -208,80 -38,0 -108,-15 -171,-37 -45,-15 -105,-74 -190,-187 -26,-33 -64,-80 -85,-104 -22,-24 -52,-71 -67,-105 -16,-34 -55,-93 -87,-129 -75,-86 -142,-119 -264,-129 -100,-9 -121,-12 -137,-22 -18,-11 -59,9 -82,42 -13,18 -40,36 -69,46 -26,9 -65,25 -87,35 -74,35 -117,50 -142,50 -17,0 -48,-23 -100,-75 -42,-41 -84,-75 -93,-75 -29,0 -95,-55 -132,-111 -20,-30 -59,-85 -88,-124 -28,-38 -71,-108 -96,-155 -53,-103 -165,-226 -239,-263 -27,-13 -67,-34 -89,-45 -35,-19 -41,-20 -67,-7 -15,8 -31,19 -34,25 -10,15 -93,55 -147,70 -53,14 -135,7 -177,-15 -14,-7 -44,-31 -67,-53 -58,-57 -77,-65 -121,-53 -79,22 -195,126 -228,204 -16,40 -85,133 -111,152 -11,7 -35,15 -54,18 -19,3 -59,11 -88,17 -58,12 -124,1 -275,-46 -113,-35 -142,-32 -196,16 -52,47 -90,51 -159,20 -38,-17 -47,-28 -77,-93 -18,-41 -45,-84 -60,-96 -34,-26 -96,-28 -151,-5 -60,25 -124,15 -176,-28 -123,-102 -119,-96 -129,-183 -6,-48 -17,-90 -28,-105 -24,-34 -86,-62 -144,-65 -43,-2 -53,1 -92,35 -31,27 -57,39 -92,45 -75,11 -101,29 -113,78 -18,70 -33,100 -70,141 -118,131 -350.0002,84 -411.0002,-84 -26,-72 -42,-87 -110,-105 -42,-11 -62,-24 -91,-57 -90,-104 -95,-108 -132,-108 -22,0 -54,11 -84,30 -59,36 -88,37 -150,6 -85,-43 -115,-92 -127,-209 -5,-54 -3,-73 9,-92 36,-55 16,-84 -59,-85 -37,-1 -56,-15 -84,-60 -26,-43 -26,-75 -1,-141 10,-29 17,-56 14,-61 -3,-5 -36,-7 -72,-3 -117,9 -167,-33 -185,-157 -10,-73 -10,-76 17,-122 27,-47 85,-85 128,-86 9,0 35,-23 57,-51 22,-28 61,-66 87,-84 47,-33 112,-112 144,-175 10,-19 47,-59 83,-88 59,-49 65,-58 71,-100 11,-82 44,-130 121,-181 39,-25 75,-58 82,-72 7,-14 21,-34 33,-44 20,-18 20,-18 -16,-57 -34,-38 -35,-41 -29,-96 15,-135 56,-223 120,-258 19,-10 37,-24 40,-32 2,-7 -6,-35 -20,-62 -14,-27 -25,-59 -25,-71 0,-29 96,-218 127,-251 24,-26 55,-39 160.0002,-67 l 41,-11 32,-96 c 37,-109 54,-132 180,-239 l 87,-74 5,-83 c 3,-46 13,-101 21,-123 9,-22 21,-59 27,-83 6,-24 26,-60 43,-80 78,-89 137,-206 137,-273 0,-54 27,-73 90,-65 85,11 175,44 240,88 55,36 71,42 143,49 49,4 107,18 144,33 47,19 80,26 132,26 63,0 79,-4 155,-44 47,-24 98,-47 113,-51 15,-3 44,-21 64,-40 20,-18 61,-42 90,-53 155,-58 223,-93 251,-126 32,-40 77,-56 153,-56 64,0 131,-21 160,-48 12,-12 28,-42 34,-66 14,-56 46,-95 108,-129 118,-64 229,-37 298,74 19,28 38,42 82,59 l 57,21 41,-22 c 22,-12 56,-36 75,-53 71,-65 116,-82 172,-65 45,12 106,-18 183,-90 81,-75 120,-88 301,-96 167,-8 170,-7 262,88 125,131 141,228 56,342 -70,95 -74,109 -62,197 7,52 8,89 1,116 -9,34 -7,48 9,84 11,24 25,82 31,129 10,82 10,87 -12,123 -25,39 -24,58 3,136 8,25 20,63 25,85 12,45 65,105 179,200 105,88 141,105 226,105 55,0 79,5 106,21 31,19 52,22 205,25 93,1 201,7 239,13 91,13 200,66 344,167 13,9 31,31 39,50 18,36 15,47 -34,125 -16,25 -15,29 6,78 20,46 21,57 11,112 -10,55 -9,63 9,92 12,18 28,48 37,67 9,19 41,67 70,107 49,65 56,80 69,159 22,126 40,148 81,103 17,-19 27,-20 89,-16 100,7 253,33 300,50 95,36 263,121 304,156 26,21 67,48 93,60 55,26 98,73 98,106 0,12 -12,63 -26,111 -20,69 -25,106 -22,165 3,67 7,82 41,137 23,37 41,82 46,113 6,39 17,59 45,88 45,46 126,88 196,101 27,5 68,19 89,30 22,11 64,29 93,40 33,13 76,42 116,79 61,56 63,60 56,95 -6,35 -3,40 60,105 65,68 66,70 66,123 0,93 23,155 77,210 56,57 115,92 169,103 114,20 318,147 330,203 3,15 23,63 44,108 21,44 44,103 51,130 15,63 24,79 72,137 47,57 60,65 134,78 42,8 72,22 111,51 28,22 52,47 52,54 0,8 18,31 41,51 51,48 88,120 96,186 10,89 40,115 180,156 40,12 85,33 101,46 30,25 92,142 92,173 1,32 37,97 78,138 27,26 66,50 114,69 94,37 118,61 118,117 0,67 34,116 112,163 92,55 116,81 134,141 11,39 25,61 55,86 104,86 115,100 128,164 14,73 8,91 -47,157 -77,94 -178,146 -312,161 -41,4 -69,1 -108,-13 z"
         id="path5518"
         style="fill:#ca4914;fill-opacity:1" />
    </g>
    <g
       id="g7427"
       transform="matrix(0.55640644,-0.32124141,0.32124141,0.55640644,-47.918396,79.918312)">
      <g
         id="g5528"
         transform="matrix(0.0029841,0,0,-0.0029841,-140.76658,41.733944)"
         style="fill:#ca4914;fill-opacity:1;stroke:none">
        <path
           style="fill:#ca4914;fill-opacity:1"
           id="path5530"
           d="m 6595,11709 c -11,-7 -63,-54 -116,-105 -87,-83 -103,-94 -165,-114 -171,-53 -486,-10 -672,90 l -54,29 -321,-9 c -494,-14 -563,-36 -790,-249 -143,-134 -200,-167 -354,-208 -69,-18 -135,-27 -224,-30 -133,-6 -198,3 -286,38 l -51,21 -97,-57 c -138,-81 -340,-176 -480,-225 -163,-57 -240,-97 -295,-151 -50,-50 -64,-83 -80,-197 -5,-40 -16,-88 -24,-107 -20,-47 -86,-116 -186,-193 -47,-36 -137,-114 -201,-174 -129,-122 -170,-152 -232,-174 -38,-13 -50,-13 -114,1 -58,13 -77,14 -95,4 -46,-25 -327,-255 -411,-338 -222,-216 -304,-423 -276,-692 l 10,-101 -30,-46 C 1035,8696 984,8596 937,8500 823,8264 787,8222 650,8152 526,8089 507,8073 469,7997 453,7965 422,7910 400,7875 251,7631 171,7378 170,7148 c 0,-131 13,-187 70,-293 105,-197 91,-314 -80,-655 -43,-85 -90,-189 -105,-230 -73,-203 -73,-405 0,-494 62,-77 90,-151 130,-346 37,-179 49,-214 100,-296 25,-40 78,-140 116,-221 238,-502 393,-766 710,-1210 28,-40 53,-65 69,-68 50,-11 133,-59 228,-132 127,-98 147,-108 282,-133 146,-27 168,-37 243,-106 85,-78 189,-124 438,-195 113,-32 217,-62 230,-67 13,-6 54,-39 90,-74 84,-83 187,-135 434,-223 200,-71 316,-125 376,-174 33,-27 37,-36 43,-95 10,-96 46,-212 140,-445 140,-347 175,-482 162,-630 -13,-136 -48,-201 -131,-243 -71,-36 -105,-68 -137,-131 -28,-55 -32,-74 -36,-167 l -4,-105 48,-13 c 74,-19 214,-65 480,-157 525,-182 779,-228 1120,-206 255,17 316,15 403,-15 70,-24 85,-26 186,-21 61,3 173,15 250,27 134,20 787,83 1195,115 457,36 849,44 1145,24 157,-10 159,-11 204,-44 140,-102 324,-79 465,58 111,109 133,187 117,407 -6,74 -22,223 -37,330 -21,159 -25,222 -22,340 4,132 7,153 37,235 18,50 59,180 92,289 59,196 127,383 176,481 128,256 344,435 593,492 45,10 170,17 400,23 281,7 352,11 439,29 148,31 296,83 446,156 309,151 509,314 734,599 111,141 253,318 386,481 129,158 189,270 210,393 10,55 15,153 14,291 0,235 7,294 81,651 85,408 93,467 94,650 0,141 -3,177 -22,247 -12,45 -22,93 -22,108 0,19 -17,46 -56,88 -91,101 -177,257 -244,444 -12,34 -38,81 -57,103 -52,61 -71,146 -88,392 -16,233 -25,295 -60,398 -91,268 -342,553 -556,631 -48,18 -59,26 -64,50 -7,31 -76,138 -150,233 -101,129 -118,194 -135,496 -7,113 -17,214 -22,225 -39,75 -431,540 -544,647 -34,32 -94,47 -185,48 -65,0 -67,1 -125,52 -32,28 -163,120 -290,204 -261,172 -354,250 -354,295 0,36 -32,100 -76,155 -44,53 -74,120 -74,167 0,26 -4,37 -15,37 -31,0 -185,65 -405,170 -124,59 -257,119 -297,133 -99,36 -220,57 -322,57 -94,0 -134,-13 -217,-71 -51,-35 -82,-39 -131,-18 -31,12 -34,12 -61,-14 -24,-23 -37,-27 -83,-27 -70,0 -158,23 -208,54 -21,14 -65,55 -97,93 -131,151 -196,209 -259,233 -122,45 -188,52 -585,56 -277,3 -380,1 -395,-7 z"
           inkscape:connector-curvature="0" />
      </g>
      <path
         id="path7256"
         transform="translate(-663.48486,71.154549)"
         d="m 542.39844,-64.361328 c -0.0328,0.02089 -0.18755,0.160311 -0.34571,0.3125 -0.25961,0.24768 -0.30717,0.282115 -0.49218,0.341797 -0.079,0.02448 -0.18277,0.02983 -0.2793,0.04102 -0.90031,6.583932 -0.78427,13.224849 -0.375,19.820313 a 4.5625,6.75 0 0 0 -0.93359,0.351562 c 0.003,-2.347513 0.0873,-4.733868 0.0469,-7.105468 -0.0783,-4.593037 -0.64644,-9.15386 -3.29297,-13.171875 -0.20688,0.106707 -0.40053,0.245897 -0.64844,0.478515 -0.0802,0.07516 -0.12765,0.100226 -0.19335,0.15625 2.47617,3.764299 3.04225,8.048312 3.11914,12.556641 0.0401,2.351099 -0.0529,4.753442 -0.0547,7.15039 -1.9e-4,0.242633 0.006,0.48407 0.008,0.726563 a 4.5625,6.75 0 0 0 -0.15234,0.162109 c -0.49636,-2.411548 -0.91619,-4.880846 -1.45313,-7.314453 -0.97847,-4.434808 -2.42282,-8.732079 -5.74609,-12.054687 -0.46925,0.165433 -0.69811,0.285018 -0.85938,0.443359 -0.0398,0.03981 -0.0573,0.081 -0.084,0.119141 3.28583,3.144696 4.71374,7.271717 5.69922,11.738281 0.59473,2.69559 1.02994,5.49961 1.63086,8.244141 a 4.5625,6.75 0 0 0 -0.20703,0.408203 c -1.16173,-2.348403 -2.22835,-4.814285 -3.42578,-7.189453 -1.90196,-3.772586 -4.18196,-7.302469 -7.78321,-9.619141 -0.27213,0.299557 -0.45975,0.601572 -0.5625,0.919922 3.39534,2.171995 5.57388,5.494967 7.44727,9.210937 1.31475,2.60786 2.495,5.378198 3.85351,8.017578 a 4.5625,6.75 0 0 0 -0.0723,0.292969 c -1.80299,-2.044238 -3.52251,-4.265116 -5.35938,-6.345703 -2.39252,-2.709963 -5.02209,-5.150836 -8.3164,-6.568359 -0.1489,0.348752 -0.2518,0.695867 -0.30079,1.033203 3.06433,1.338306 5.54526,3.636278 7.87696,6.277344 1.97757,2.239963 3.85508,4.690342 5.89648,6.933593 a 4.5625,6.75 0 0 0 -0.0176,0.19336 c -2.30979,-1.510155 -4.5756,-3.245067 -6.92578,-4.794922 -2.31776,-1.528485 -4.73322,-2.872711 -7.35742,-3.611328 0.0195,0.182061 0.061,0.343513 0.14453,0.445312 0.1574,0.195488 0.24088,0.429452 0.33594,0.839844 2.20691,0.729889 4.29005,1.893028 6.3418,3.246094 2.80763,1.851528 5.61785,6.140512 8.57422,8.947265 a 4.5625,6.75 0 0 0 3.42773,2.306641 4.5625,6.75 0 0 0 2.75195,-1.373047 c 3.41386,-2.612807 6.61483,-7.773402 9.81055,-9.880859 2.06582,-1.362336 4.16703,-2.518847 6.39062,-3.248047 0.0329,-0.176674 0.0467,-0.285897 0.10157,-0.550781 0.0697,-0.334535 0.0896,-0.465315 0.1289,-0.671875 -2.5471,0.749781 -4.89939,2.061182 -7.1582,3.550781 -2.3899,1.576047 -4.69262,3.345262 -7.04297,4.873047 -0.10556,0.06861 -0.21065,0.12967 -0.3164,0.197265 2.20869,-2.363704 4.20055,-5.007968 6.31445,-7.402343 2.10075,-2.379491 4.32401,-4.478675 6.98242,-5.853516 -0.0371,-0.175983 -0.0637,-0.407033 -0.0879,-0.757812 -0.0126,-0.182985 -0.0237,-0.264842 -0.0352,-0.388672 -2.96522,1.452406 -5.38298,3.744857 -7.60156,6.257812 -1.92515,2.180577 -3.7184,4.521283 -5.61719,6.644531 -0.0656,0.07333 -0.13273,0.143445 -0.19921,0.214844 a 4.5625,6.75 0 0 0 -0.006,-0.04102 c 1.53297,-2.861588 2.80248,-5.9236 4.24414,-8.783204 1.67887,-3.330105 3.60616,-6.343124 6.42773,-8.5 -0.0413,-0.196994 -0.0701,-0.41328 -0.0918,-0.798828 -0.0134,-0.216648 -0.0285,-0.306286 -0.043,-0.43164 -3.26132,2.313551 -5.39397,5.657348 -7.18945,9.21875 -1.30369,2.585898 -2.44828,5.285451 -3.73437,7.816406 a 4.5625,6.75 0 0 0 -0.084,-0.216797 c 0.0251,-0.103465 0.0525,-0.206434 0.0762,-0.310547 0.66149,-2.904792 1.1089,-5.890404 1.74024,-8.751953 0.93327,-4.229905 2.28391,-8.143784 5.21289,-11.21875 -0.31645,-0.233116 -0.51563,-0.406126 -0.51563,-0.496094 0,-0.08221 -0.0653,-0.213153 -0.15039,-0.34375 -3.1623,3.2892 -4.58324,7.480351 -5.53906,11.8125 -0.57913,2.624844 -1.01281,5.297908 -1.56445,7.886719 a 4.5625,6.75 0 0 0 -0.0469,-0.06641 c 0.008,-0.464892 0.0141,-0.928835 0.0137,-1.394532 -0.002,-2.396948 -0.0929,-4.79929 -0.0527,-7.15039 0.0779,-4.572532 0.65131,-8.916083 3.21875,-12.71875 -0.0264,0.01698 -0.0447,0.02039 -0.0742,0.04102 -0.15219,0.104443 -0.2444,0.117353 -0.39062,0.05469 -0.0925,-0.03581 -0.10107,-0.03657 -0.18164,0.04102 -0.0716,0.06863 -0.11078,0.08008 -0.24805,0.08008 -0.13123,0 -0.27406,-0.03114 -0.40625,-0.07422 -2.31994,3.866946 -2.86114,8.193912 -2.93555,12.556641 -0.0426,2.496297 0.0493,5.008311 0.043,7.474609 a 4.5625,6.75 0 0 0 -1.78711,-0.771484 c -0.42641,-6.856092 -0.53427,-13.716444 0.48242,-20.464844 -1.5e-4,7.9e-5 -0.004,-7.9e-5 -0.004,0 z"
         style="color:#000000;font-style:normal;font-variant:normal;font-weight:normal;font-stretch:normal;font-size:medium;line-height:normal;font-family:sans-serif;text-indent:0;text-align:start;text-decoration:none;text-decoration-line:none;text-decoration-style:solid;text-decoration-color:#000000;letter-spacing:normal;word-spacing:normal;text-transform:none;direction:ltr;block-progression:tb;writing-mode:lr-tb;baseline-shift:baseline;text-anchor:start;white-space:normal;clip-rule:nonzero;display:inline;overflow:visible;visibility:visible;opacity:1;isolation:auto;mix-blend-mode:normal;color-interpolation:sRGB;color-interpolation-filters:linearRGB;solid-color:#000000;solid-opacity:1;fill:#e86718;fill-opacity:1;fill-rule:evenodd;stroke:none;stroke-width:1px;stroke-linecap:butt;stroke-linejoin:miter;stroke-miterlimit:4;stroke-dasharray:none;stroke-dashoffset:0;stroke-opacity:1;color-rendering:auto;image-rendering:auto;shape-rendering:auto;text-rendering:auto;enable-background:accumulate"
         inkscape:connector-curvature="0" />
      <path
         d="m -120.54294,20.85758 c -0.21886,0.06496 -0.44185,-0.01784 -0.66201,0.0013 -1.64813,0.678732 -3.83399,-0.234018 -5.42579,1.008895 -2.27102,-0.274524 -3.512,1.978213 -5.36886,2.822787 -1.28012,0.974642 -1.13105,2.618768 -2.41764,3.566882 -0.76373,1.471465 -0.35371,3.010759 -0.82353,4.540027 0.0501,0.18869 0.12079,0.370746 0.18139,0.556084 0.31523,-1.457069 0.15336,-2.839932 0.65671,-4.276549 1.12334,-1.06443 1.31691,-2.393252 2.27597,-3.56291 1.92695,-0.949506 3.23681,-3.228335 5.57672,-2.989612 1.5646,-1.25043 3.71726,-0.320022 5.33709,-0.999627 0.21738,-0.02782 0.44063,0.0887 0.65539,-0.0027 1.81287,0.340663 3.45799,0.440182 5.22453,1.120112 1.18392,1.480036 4.06751,1.959438 4.32951,4.326863 1.27866,0.884697 1.72697,2.441002 2.22566,3.848895 0.56156,1.150553 0.62854,2.471508 0.32703,3.724438 0.45093,-1.37779 0.46425,-2.885986 -0.10724,-4.201081 -0.64051,-1.401001 -0.96484,-3.082575 -2.32629,-3.987917 -0.25153,-2.392932 -3.19125,-2.843 -4.3401,-4.350695 -1.80402,-0.69982 -3.46917,-0.797136 -5.31854,-1.145264 z m 0.14692,-2.209498 c -0.24712,0.07335 -0.49891,-0.02014 -0.74751,0.0015 -1.86101,0.766398 -4.32919,-0.264243 -6.12659,1.139205 -2.56434,-0.309982 -3.96561,2.23372 -6.0623,3.18738 -1.44546,1.100527 -1.27714,2.957009 -2.72991,4.027582 -0.86237,1.66152 -0.39939,3.39963 -0.9299,5.12642 0.0566,0.213061 0.1364,0.418631 0.20482,0.627908 0.35595,-1.645265 0.17317,-3.20674 0.74153,-4.828911 1.26843,-1.201912 1.48701,-2.702366 2.56994,-4.023097 2.17584,-1.072145 3.65488,-3.645309 6.29701,-3.375752 1.76669,-1.411936 4.19739,-0.361357 6.02643,-1.12874 0.24546,-0.03141 0.49754,0.100154 0.74004,-0.003 2.04703,0.384663 3.90463,0.497036 5.89934,1.264787 1.33683,1.671198 4.59287,2.21252 4.88871,4.885722 1.44381,0.998965 1.95002,2.756284 2.51313,4.346021 0.63409,1.299159 0.70972,2.790729 0.36927,4.205488 0.50917,-1.555746 0.52421,-3.258741 -0.1211,-4.743695 -0.72323,-1.581955 -1.08945,-3.480722 -2.62675,-4.502998 -0.28402,-2.702004 -3.60343,-3.210204 -4.90067,-4.912633 -2.03703,-0.79021 -3.91725,-0.900095 -6.00549,-1.293187 z m 0.39358,-7.954395 c -0.32284,0.09583 -0.65178,-0.02631 -0.97656,0.002 -2.43126,1.001239 -5.65575,-0.345213 -8.00391,1.488282 -3.35011,-0.404967 -5.18075,2.91818 -7.91992,4.164062 -1.88838,1.437752 -1.66848,3.8631 -3.56641,5.261719 -1.12662,2.170646 -0.52177,4.44135 -1.21484,6.697265 0.074,0.278348 0.1782,0.546909 0.26758,0.820313 0.46502,-2.14941 0.22623,-4.189355 0.96875,-6.308594 1.65711,-1.570203 1.94266,-3.530428 3.35742,-5.255859 2.84257,-1.400674 4.77482,-4.76231 8.22656,-4.410156 2.30803,-1.844583 5.48355,-0.472084 7.87305,-1.47461 0.32068,-0.04103 0.65,0.130844 0.9668,-0.0039 2.67429,0.502531 5.1011,0.649338 7.70703,1.652344 1.74646,2.183289 6.00023,2.890484 6.38672,6.382812 1.88622,1.30507 2.54754,3.600869 3.2832,5.677735 0.82839,1.697249 0.92719,3.645869 0.48242,5.49414 0.6652,-2.03246 0.68484,-4.257289 -0.1582,-6.197265 -0.94485,-2.0667 -1.42328,-4.54729 -3.43164,-5.882813 -0.37106,-3.529956 -4.7076,-4.19388 -6.40235,-6.417969 -2.66121,-1.032347 -5.11758,-1.175904 -7.8457,-1.689453 z"
         style="fill:#efdbbb;fill-opacity:1;stroke:none"
         id="path7410"
         inkscape:connector-curvature="0" />
    </g>
    <path
       style="color:#000000;font-style:normal;font-variant:normal;font-weight:normal;font-stretch:normal;font-size:medium;line-height:normal;font-family:sans-serif;text-indent:0;text-align:start;text-decoration:none;text-decoration-line:none;text-decoration-style:solid;text-decoration-color:#000000;letter-spacing:normal;word-spacing:normal;text-transform:none;direction:ltr;block-progression:tb;writing-mode:lr-tb;baseline-shift:baseline;text-anchor:start;white-space:normal;clip-rule:nonzero;display:inline;overflow:visible;visibility:visible;opacity:1;isolation:auto;mix-blend-mode:normal;color-interpolation:sRGB;color-interpolation-filters:linearRGB;solid-color:#000000;solid-opacity:1;fill:#b8b5ac;fill-opacity:1;fill-rule:evenodd;stroke:none;stroke-width:1px;stroke-linecap:butt;stroke-linejoin:miter;stroke-miterlimit:4;stroke-dasharray:none;stroke-dashoffset:0;stroke-opacity:1;color-rendering:auto;image-rendering:auto;shape-rendering:auto;text-rendering:auto;enable-background:accumulate"
       d="m -154.0293,-15.224609 -0.91015,0.414062 c 16.78061,36.826245 51.43498,63.183245 91.794919,65.976563 13.161545,6.414352 22.402695,20.443001 32.773437,32.195312 5.193944,5.885871 10.679569,11.198462 17.132813,14.654297 6.4532438,3.455835 13.87928887,5.034225 22.8398435,3.458985 l -0.1738281,-0.98438 c -8.7566384,1.5394 -15.908554,0.008 -22.1933594,-3.357418 C -19.05043,93.767179 -24.461011,88.546717 -29.621094,82.699219 -39.94126,71.004221 -49.225101,56.79798 -62.771484,50.228516 l -0.08789,-0.04297 -0.0957,-0.0059 C -102.9737,47.457899 -137.37263,21.329622 -154.0293,-15.224609 Z"
       id="path8092"
       inkscape:connector-curvature="0" />
    <path
       inkscape:connector-curvature="0"
       id="path8106"
       d="m 410.69141,-25.224609 0.91015,0.414062 c -16.78061,36.826245 -51.43498,63.183245 -91.79492,65.976563 -13.16154,6.414352 -22.40269,20.443001 -32.77344,32.195312 -5.19394,5.885871 -10.67957,11.198462 -17.13281,14.654302 -6.45324,3.45583 -13.87929,5.03422 -22.83984,3.45898 l 0.17383,-0.98438 c 8.75663,1.5394 15.90855,0.008 22.19335,-3.35742 6.28481,-3.36563 11.69539,-8.586093 16.85547,-14.433591 10.32017,-11.694998 19.60401,-25.901239 33.15039,-32.470703 l 0.0879,-0.04297 0.0957,-0.0059 c 40.01862,-2.721747 74.41755,-28.850024 91.07422,-65.404255 z"
       style="color:#000000;font-style:normal;font-variant:normal;font-weight:normal;font-stretch:normal;font-size:medium;line-height:normal;font-family:sans-serif;text-indent:0;text-align:start;text-decoration:none;text-decoration-line:none;text-decoration-style:solid;text-decoration-color:#000000;letter-spacing:normal;word-spacing:normal;text-transform:none;direction:ltr;block-progression:tb;writing-mode:lr-tb;baseline-shift:baseline;text-anchor:start;white-space:normal;clip-rule:nonzero;display:inline;overflow:visible;visibility:visible;opacity:1;isolation:auto;mix-blend-mode:normal;color-interpolation:sRGB;color-interpolation-filters:linearRGB;solid-color:#000000;solid-opacity:1;fill:#b8b5ac;fill-opacity:1;fill-rule:evenodd;stroke:none;stroke-width:1px;stroke-linecap:butt;stroke-linejoin:miter;stroke-miterlimit:4;stroke-dasharray:none;stroke-dashoffset:0;stroke-opacity:1;color-rendering:auto;image-rendering:auto;shape-rendering:auto;text-rendering:auto;enable-background:accumulate" />
    <path
       style="color:#000000;font-style:normal;font-variant:normal;font-weight:normal;font-stretch:normal;font-size:medium;line-height:normal;font-family:sans-serif;text-indent:0;text-align:start;text-decoration:none;text-decoration-line:none;text-decoration-style:solid;text-decoration-color:#000000;letter-spacing:normal;word-spacing:normal;text-transform:none;direction:ltr;block-progression:tb;writing-mode:lr-tb;baseline-shift:baseline;text-anchor:start;white-space:normal;clip-rule:nonzero;display:inline;overflow:visible;visibility:visible;opacity:1;isolation:auto;mix-blend-mode:normal;color-interpolation:sRGB;color-interpolation-filters:linearRGB;solid-color:#000000;solid-opacity:1;fill:#b8b5ac;fill-opacity:1;fill-rule:evenodd;stroke:none;stroke-width:1px;stroke-linecap:butt;stroke-linejoin:miter;stroke-miterlimit:4;stroke-dasharray:none;stroke-dashoffset:0;stroke-opacity:1;color-rendering:auto;image-rendering:auto;shape-rendering:auto;text-rendering:auto;enable-background:accumulate"
       d="m -103.33353,3.775391 -0.60592,0.276407 c 11.17147,24.583363 34.24216,42.177981 61.111259,44.04266 8.762122,4.281902 14.914296,13.646728 21.818486,21.491984 3.457797,3.929114 7.109783,7.475534 11.405942,9.78248 4.29616,2.30694 9.239955,3.360594 15.205323,2.309043 L 5.485835,81.020842 c -5.829611,1.027627 -10.590908,0.0053 -14.77493,-2.241246 -4.18403,-2.246727 -7.786052,-5.731647 -11.221308,-9.635145 C -27.38092,61.337454 -33.561514,51.854077 -42.579838,47.46863 l -0.05852,-0.02868 -0.06371,-0.0039 C -69.343936,45.619105 -92.24457,28.177171 -103.33353,3.775391 Z"
       id="path8108"
       inkscape:connector-curvature="0" />
  </g>
</svg>
