<?xml version="1.0" encoding="UTF-8" standalone="no"?>
<!-- Created with Inkscape (http://www.inkscape.org/) -->

<svg
   xmlns:dc="http://purl.org/dc/elements/1.1/"
   xmlns:cc="http://creativecommons.org/ns#"
   xmlns:rdf="http://www.w3.org/1999/02/22-rdf-syntax-ns#"
   xmlns:svg="http://www.w3.org/2000/svg"
   xmlns="http://www.w3.org/2000/svg"
   xmlns:xlink="http://www.w3.org/1999/xlink"
   xmlns:sodipodi="http://sodipodi.sourceforge.net/DTD/sodipodi-0.dtd"
   xmlns:inkscape="http://www.inkscape.org/namespaces/inkscape"
   width="135.69916mm"
   height="95.214577mm"
   viewBox="0 0 480.82379 337.37448"
   id="svg4894"
   version="1.1"
   inkscape:version="0.91 r13725"
   sodipodi:docname="ship.svg">
  <defs
     id="defs4896">
    <linearGradient
       inkscape:collect="always"
       id="linearGradient7380">
      <stop
         style="stop-color:#c8b7b7;stop-opacity:1;"
         offset="0"
         id="stop7382" />
      <stop
         style="stop-color:#f7f4f4;stop-opacity:1"
         offset="1"
         id="stop7384" />
    </linearGradient>
    <linearGradient
       inkscape:collect="always"
       id="linearGradient6600">
      <stop
         style="stop-color:#c8b7b7;stop-opacity:1;"
         offset="0"
         id="stop6602" />
      <stop
         style="stop-color:#f7f4f4;stop-opacity:1"
         offset="1"
         id="stop6604" />
    </linearGradient>
    <filter
       inkscape:collect="always"
       style="color-interpolation-filters:sRGB"
       id="filter6479"
       x="-0.078643709"
       width="1.1572874"
       y="-0.20711289"
       height="1.4142258">
      <feGaussianBlur
         inkscape:collect="always"
         stdDeviation="11.846797"
         id="feGaussianBlur6481" />
    </filter>
    <clipPath
       clipPathUnits="userSpaceOnUse"
       id="clipPath6489">
      <path
         inkscape:connector-curvature="0"
         id="path6491"
         d="m -384.99824,-117.9626 a 190.41374,63.639606 0 0 0 -161.11914,29.86719 l 0,67.63672 A 190.41374,63.639606 0 0 0 -384.99824,9.3167002 190.41374,63.639606 0 0 0 -194.58418,-54.32393 190.41374,63.639606 0 0 0 -384.99824,-117.9626 Z"
         style="opacity:1;fill:#876a3e;fill-opacity:1;stroke:none;stroke-width:10;stroke-linecap:round;stroke-linejoin:miter;stroke-miterlimit:4;stroke-dasharray:none;stroke-dashoffset:0;stroke-opacity:1" />
    </clipPath>
    <linearGradient
       inkscape:collect="always"
       xlink:href="#linearGradient6600"
       id="linearGradient6606"
       x1="332.94839"
       y1="169.33992"
       x2="310.61386"
       y2="169.33992"
       gradientUnits="userSpaceOnUse" />
    <filter
       inkscape:collect="always"
       style="color-interpolation-filters:sRGB"
       id="filter7270"
       x="-0.041391429"
       width="1.0827829"
       y="-0.10900679"
       height="1.2180136">
      <feGaussianBlur
         inkscape:collect="always"
         stdDeviation="6.2351564"
         id="feGaussianBlur7272" />
    </filter>
    <clipPath
       clipPathUnits="userSpaceOnUse"
       id="clipPath7278">
      <path
         inkscape:connector-curvature="0"
         id="path7280"
         d="m -487.42773,-107.83203 a 190.41374,63.639606 0 0 0 -58.68946,19.73633 l 0,67.63672 a 190.41374,63.639606 0 0 0 58.68946,19.67187018 l 0,-107.04492018 z"
         style="opacity:1;fill:#b89456;fill-opacity:1;stroke:none;stroke-width:10;stroke-linecap:round;stroke-linejoin:miter;stroke-miterlimit:4;stroke-dasharray:none;stroke-dashoffset:0;stroke-opacity:1" />
    </clipPath>
    <filter
       inkscape:collect="always"
       style="color-interpolation-filters:sRGB"
       id="filter7366"
       x="-0.043047085"
       width="1.0860941"
       y="-0.11336706"
       height="1.226734">
      <feGaussianBlur
         inkscape:collect="always"
         stdDeviation="6.4845626"
         id="feGaussianBlur7368" />
    </filter>
    <clipPath
       clipPathUnits="userSpaceOnUse"
       id="clipPath7376">
      <path
         inkscape:connector-curvature="0"
         id="path7378"
         d="m -256,-101.05078 0,93.4316402 A 190.41374,63.639606 0 0 0 -194.58398,-54.32422 190.41374,63.639606 0 0 0 -256,-101.05078 Z"
         style="opacity:1;fill:#b89456;fill-opacity:1;stroke:none;stroke-width:10;stroke-linecap:round;stroke-linejoin:miter;stroke-miterlimit:4;stroke-dasharray:none;stroke-dashoffset:0;stroke-opacity:1" />
    </clipPath>
    <linearGradient
       inkscape:collect="always"
       xlink:href="#linearGradient7380"
       id="linearGradient7386"
       x1="133.61868"
       y1="168.69542"
       x2="100.61868"
       y2="168.69542"
       gradientUnits="userSpaceOnUse"
       gradientTransform="translate(-564.15437,-216.45873)" />
    <filter
       inkscape:collect="always"
       style="color-interpolation-filters:sRGB"
       id="filter7656"
       x="-0.093804225"
       width="1.1876085"
       y="-0.1452779"
       height="1.2905558">
      <feGaussianBlur
         inkscape:collect="always"
         stdDeviation="15.824273"
         id="feGaussianBlur7658" />
    </filter>
    <clipPath
       clipPathUnits="userSpaceOnUse"
       id="clipPath6489-7">
      <path
         inkscape:connector-curvature="0"
         id="path6491-6"
         d="m -384.99824,-117.9626 a 190.41374,63.639606 0 0 0 -161.11914,29.86719 l 0,67.63672 A 190.41374,63.639606 0 0 0 -384.99824,9.3167002 190.41374,63.639606 0 0 0 -194.58418,-54.32393 190.41374,63.639606 0 0 0 -384.99824,-117.9626 Z"
         style="opacity:1;fill:#876a3e;fill-opacity:1;stroke:none;stroke-width:10;stroke-linecap:round;stroke-linejoin:miter;stroke-miterlimit:4;stroke-dasharray:none;stroke-dashoffset:0;stroke-opacity:1" />
    </clipPath>
    <clipPath
       clipPathUnits="userSpaceOnUse"
       id="clipPath7376-5">
      <path
         inkscape:connector-curvature="0"
         id="path7378-1"
         d="m -256,-101.05078 0,93.4316402 A 190.41374,63.639606 0 0 0 -194.58398,-54.32422 190.41374,63.639606 0 0 0 -256,-101.05078 Z"
         style="opacity:1;fill:#b89456;fill-opacity:1;stroke:none;stroke-width:10;stroke-linecap:round;stroke-linejoin:miter;stroke-miterlimit:4;stroke-dasharray:none;stroke-dashoffset:0;stroke-opacity:1" />
    </clipPath>
    <clipPath
       clipPathUnits="userSpaceOnUse"
       id="clipPath7278-0">
      <path
         inkscape:connector-curvature="0"
         id="path7280-6"
         d="m -487.42773,-107.83203 a 190.41374,63.639606 0 0 0 -58.68946,19.73633 l 0,67.63672 a 190.41374,63.639606 0 0 0 58.68946,19.67187018 l 0,-107.04492018 z"
         style="opacity:1;fill:#b89456;fill-opacity:1;stroke:none;stroke-width:10;stroke-linecap:round;stroke-linejoin:miter;stroke-miterlimit:4;stroke-dasharray:none;stroke-dashoffset:0;stroke-opacity:1" />
    </clipPath>
  </defs>
  <sodipodi:namedview
     id="base"
     pagecolor="#ffffff"
     bordercolor="#666666"
     borderopacity="1.0"
     inkscape:pageopacity="0.0"
     inkscape:pageshadow="2"
     inkscape:zoom="1"
     inkscape:cx="3.0812594"
     inkscape:cy="121.67297"
     inkscape:document-units="px"
     inkscape:current-layer="layer1"
     showgrid="false"
     inkscape:window-width="1920"
     inkscape:window-height="1056"
     inkscape:window-x="0"
     inkscape:window-y="24"
     inkscape:window-maximized="1"
     fit-margin-top="0"
     fit-margin-left="0"
     fit-margin-right="0"
     fit-margin-bottom="0" />
  <metadata
     id="metadata4899">
    <rdf:RDF>
      <cc:Work
         rdf:about="">
        <dc:format>image/svg+xml</dc:format>
        <dc:type
           rdf:resource="http://purl.org/dc/dcmitype/StillImage" />
        <dc:title />
      </cc:Work>
    </rdf:RDF>
  </metadata>
  <g
     inkscape:label="Layer 1"
     inkscape:groupmode="layer"
     id="layer1"
     transform="translate(598.0955,216.45873)">
    <path
       inkscape:connector-curvature="0"
       d=""
       style="opacity:1;fill:#46371e;fill-opacity:1;stroke:none;stroke-width:1;stroke-linecap:round;stroke-linejoin:miter;stroke-miterlimit:4;stroke-dasharray:none;stroke-dashoffset:0;stroke-opacity:1"
       id="circle6497"
       ry="6.2846413"
       rx="20.25"
       cy="-321.70676"
       cx="-591.25" />
    <g
       id="g6791"
       transform="translate(-1030.1005,184)">
      <g
         style="fill:#b89456;fill-opacity:1"
         inkscape:export-ydpi="90"
         inkscape:export-xdpi="90"
         id="g6795"
         transform="matrix(0.47215109,0,0,0.47215109,-553.40599,12.193657)" />
    </g>
    <g
       id="g6825"
       transform="matrix(0.84883659,0,0,0.84989087,-979.46087,150.55277)" />
    <g
       transform="matrix(0.84883659,0,0,0.84989087,-979.46087,203.858)"
       id="g6845" />
    <g
       id="g6871"
       transform="translate(-1006.0589,184)" />
    <g
       id="g6881"
       transform="translate(-1026,106.25)" />
    <g
       transform="translate(0.8994949,7)"
       id="g7450">
      <g
         transform="matrix(0.47215109,0,0,0.47215109,-553.40599,12.193657)"
         id="g7454"
         inkscape:export-xdpi="90"
         inkscape:export-ydpi="90"
         style="fill:#b89456;fill-opacity:1" />
    </g>
    <g
       transform="matrix(0.84883659,0,0,0.84989087,51.539126,-26.447234)"
       id="g7488" />
    <g
       id="g7508"
       transform="matrix(0.84883659,0,0,0.84989087,51.539126,26.858004)" />
    <g
       transform="translate(24.941126,7)"
       id="g7534" />
    <g
       transform="translate(5,-70.75)"
       id="g7544" />
    <g
       id="g7552"
       transform="translate(5,-135.25)">
      <path
         inkscape:connector-curvature="0"
         style="opacity:1;fill:#3f321d;fill-opacity:1;stroke:#392b21;stroke-width:1;stroke-linecap:round;stroke-linejoin:miter;stroke-miterlimit:4;stroke-dasharray:none;stroke-dashoffset:0;stroke-opacity:1;filter:url(#filter7656)"
         d="m -287.36523,-185.48047 0,0.30274 1.02734,0 a 32.829956,130.96646 0 0 0 -1.02734,-0.30274 z m 1.02734,0.30274 a 32.829956,130.96646 0 0 1 1.90039,0.91015 l 0,-0.91015 -1.90039,0 z m 1.90039,0.91015 0,70.78711 c -0.28276,-0.0581 -0.5542,-0.12203 -0.83789,-0.17969 -0.68622,-0.13946 -1.39822,-0.26572 -2.08984,-0.40234 l 0,-71.11523 -3.43555,0 0,70.45507 c -0.8554,-0.16111 -1.68955,-0.33344 -2.55274,-0.49023 -5.46328,-0.99239 -11.08046,-1.89737 -16.83789,-2.71094 -5.75742,-0.81357 -11.65471,-1.53523 -17.67578,-2.16015 -3.01053,-0.31247 -6.05232,-0.60178 -9.12304,-0.86524 -3.07073,-0.26346 -6.16977,-0.50162 -9.29688,-0.71484 -3.12711,-0.21323 -6.28126,-0.40074 -9.46094,-0.5625 -3.17968,-0.16176 -6.38484,-0.29718 -9.61328,-0.40625 -3.22844,-0.10907 -6.48052,-0.19095 -9.7539,-0.2461 -3.27339,-0.0551 -6.56829,-0.084 -9.88282,-0.084 l -0.002,0 c -2.06484,9.8e-4 -4.12491,0.0126 -6.17969,0.0352 -2.05478,0.0225 -4.10495,0.0556 -6.14843,0.0996 -2.0435,0.0439 -4.08038,0.0989 -6.11133,0.16406 -2.03096,0.0652 -4.05508,0.14033 -6.07227,0.22656 -4.03437,0.17245 -8.03983,0.38702 -12.01172,0.64258 -3.97189,0.25556 -7.91103,0.55338 -11.81054,0.89062 -1.19052,0.10296 -2.36957,0.21569 -3.55274,0.32618 a 32.829956,104.03038 0 0 0 -20.93945,-37.08985 l 0,39.49024 c -0.97869,0.13386 -1.95599,0.26893 -2.92774,0.4082 l 0,-40.62109 -3.43554,0 0,41.13085 c -1.02161,0.15446 -2.04916,0.30438 -3.0625,0.46485 -1.81154,0.28687 -3.61036,0.58271 -5.39453,0.88867 -1.78418,0.30596 -3.55302,0.62045 -5.3086,0.94531 -3.51115,0.64973 -6.96417,1.33822 -10.35351,2.0625 -1.69467,0.36214 -3.3728,0.73277 -5.03516,1.11328 -1.66236,0.38052 -3.30868,0.77122 -4.9375,1.16993 -1.62882,0.3987 -3.2419,0.80593 -4.83594,1.22265 -1.59404,0.41672 -3.17049,0.84279 -4.72851,1.27735 -3.11606,0.86912 -6.15847,1.77349 -9.12305,2.71289 -1.48229,0.4697 -2.94415,0.94854 -4.38672,1.43554 -1.44257,0.48701 -2.86597,0.9822 -4.26758,1.48633 -1.40161,0.50413 -2.78121,1.01604 -4.14062,1.53711 -1.35942,0.52107 -2.69769,1.050051 -4.01367,1.587891 -1.31599,0.537841 -2.60955,1.084242 -3.88086,1.638672 -1.27132,0.554431 -2.52068,1.118611 -3.7461,1.689453 -1.22541,0.570842 -2.42719,1.149253 -3.60547,1.736328 -1.17827,0.587076 -2.33299,1.182026 -3.46289,1.785157 l -2.64453,1.412109 0,73.638672 2.65235,1.410156 c 2.26358,1.203718 4.62408,2.376438 7.07812,3.515625 2.45404,1.139187 5.0021,2.245124 7.63672,3.3183595 1.31731,0.5366178 2.65697,1.0641209 4.01758,1.5839844 1.3606,0.5198635 2.74186,1.0322247 4.14453,1.5351562 1.40266,0.5029316 2.82604,0.9965999 4.26953,1.4824219 1.44349,0.485822 2.90754,0.9631058 4.39063,1.4316406 1.48308,0.4685348 2.98442,0.9278363 4.50585,1.3789063 1.52146,0.45107 3.06253,0.89469744 4.6211,1.32812498 1.55857,0.43342753 3.13601,0.85783002 4.73047,1.2734375 1.59446,0.41560742 3.20486,0.82114022 4.83398,1.21875002 1.62912,0.3976097 3.27691,0.7865812 4.93945,1.1660156 1.66256,0.3794344 3.34043,0.7502467 5.03516,1.1113281 1.69473,0.3610815 3.40518,0.7121367 5.13086,1.0546875 1.72569,0.3425509 3.46725,0.6761574 5.22266,1 4.47875,0.8262531 9.06078,1.5846936 13.71875,2.2871094 l 0,38.548828 3.43554,0 0,-38.0410155 c 0.97167,0.1388851 1.94915,0.2727677 2.92774,0.40625 l 0,37.6347655 -2.92774,0 0,1.832031 a 32.829956,104.03038 0 0 0 23.60352,-37.099609 c 1.28121,0.11988 2.5598,0.242467 3.84961,0.353516 1.94876,0.167782 3.90763,0.32518 5.875,0.472656 1.96737,0.147475 3.94298,0.285118 5.92773,0.412109 1.98476,0.126991 3.97762,0.243281 5.97852,0.34961 4.0018,0.212657 8.03475,0.384728 12.09375,0.513672 4.05899,0.128942 8.14564,0.215957 12.25195,0.259765 2.05316,0.0219 4.1107,0.03285 6.17383,0.0332 l 0.002,0 c 6.62919,4e-6 13.17971,-0.111896 19.63672,-0.330078 3.22851,-0.109091 6.43354,-0.244458 9.61328,-0.40625 3.17974,-0.161792 6.33377,-0.349238 9.46094,-0.5625 3.12717,-0.213262 6.22805,-0.453294 9.29883,-0.716797 3.07078,-0.263502 6.11246,-0.550769 9.12305,-0.863281 3.01058,-0.312512 5.98897,-0.649474 8.93554,-1.009766 5.89315,-0.720583 11.6553,-1.5351329 17.26953,-2.4394528 2.80712,-0.4521598 5.57692,-0.9275796 8.3086,-1.4238281 0.86256,-0.1566967 1.69599,-0.3292225 2.55078,-0.4902343 l 0,67.5585932 3.43555,0 0,-68.2187495 c 0.97755,-0.1931203 1.96099,-0.3832499 2.92773,-0.5820313 l 0,68.8007808 -2.92773,0 0,2.304688 a 32.829956,130.96646 0 0 0 28.44921,-77.3847656 c 1.13296,-0.3287744 2.28976,-0.6468079 3.4004,-0.984375 2.29726,-0.698236 4.54713,-1.4154483 6.74609,-2.1503906 4.39791,-1.469885 8.59679,-3.0101 12.58203,-4.6210938 0.99631,-0.4027484 1.97977,-0.809093 2.94922,-1.220703 0.96945,-0.41161 1.92503,-0.827558 2.86719,-1.248047 0.94215,-0.420489 1.87072,-0.846007 2.78515,-1.275391 1.82887,-0.858767 3.601,-1.736408 5.31641,-2.630859 0.85771,-0.447225 1.7006,-0.897344 2.5293,-1.353516 1.6574,-0.912343 3.25612,-1.842786 4.79492,-2.791015 0.7694,-0.474115 1.52456,-0.952436 2.26367,-1.435547 0.73911,-0.483112 1.46349,-0.970765 2.17187,-1.462891 1.41678,-0.984251 2.77118,-1.987405 4.0625,-3.007812 0.64567,-0.510203 1.27726,-1.026549 1.89258,-1.548828 0.61533,-0.522279 1.21518,-1.049862 1.79883,-1.583985 1.16731,-1.068244 2.27013,-2.161168 3.30274,-3.27539 1.0326,-1.114223 1.99363,-2.249863 2.88085,-3.408203 0.44361,-0.579172 0.86818,-1.164056 1.27344,-1.753907 0.40526,-0.589851 0.79263,-1.184857 1.15821,-1.785156 0.36556,-0.600299 0.7106,-1.205891 1.03515,-1.816406 0.32455,-0.610515 0.62797,-1.227159 0.91016,-1.847657 0.28218,-0.620497 0.54276,-1.244751 0.78125,-1.875 0.47698,-1.260497 0.86597,-2.539786 1.16015,-3.83789 0.20257,-0.893855 0.34152,-1.799996 0.45313,-2.710938 l 43.55078,0 0,-6.5 -43.54883,0 c -0.0307,-0.250833 -0.0482,-0.504352 -0.0859,-0.753906 -0.0994,-0.658074 -0.22395,-1.30997 -0.37109,-1.958984 -0.14714,-0.649015 -0.31625,-1.29387 -0.50976,-1.933594 -0.38704,-1.279448 -0.86718,-2.540355 -1.43165,-3.78125 -0.28223,-0.620448 -0.58556,-1.23524 -0.91015,-1.845703 -0.32459,-0.610463 -0.66955,-1.21616 -1.03516,-1.816406 -0.36561,-0.600247 -0.75095,-1.195358 -1.15625,-1.785157 -0.40529,-0.589798 -0.82979,-1.174787 -1.27344,-1.753906 -0.44364,-0.579119 -0.90606,-1.152494 -1.38671,-1.720703 -0.48066,-0.568209 -0.97976,-1.132386 -1.4961,-1.689453 -0.51633,-0.557067 -1.05089,-1.10665 -1.60156,-1.652344 -0.55068,-0.545693 -1.11749,-1.087005 -1.70117,-1.621094 -0.58368,-0.534089 -1.18348,-1.061731 -1.79883,-1.583984 -0.61535,-0.522253 -1.2469,-1.038642 -1.89258,-1.548828 -0.64568,-0.510186 -1.30712,-1.01642 -1.98437,-1.517578 -0.67726,-0.501158 -1.36973,-0.99809 -2.07813,-1.490235 -0.7084,-0.492144 -1.43276,-0.979745 -2.17187,-1.46289 -1.47824,-0.966292 -3.0167,-1.913369 -4.61524,-2.84375 -1.59853,-0.930381 -3.25724,-1.843698 -4.97265,-2.738281 -1.71541,-0.894586 -3.48755,-1.770004 -5.31641,-2.628907 -0.91443,-0.429451 -1.84301,-0.854838 -2.78516,-1.27539 -1.8843,-0.841106 -3.82379,-1.665109 -5.8164,-2.470703 -0.99631,-0.402799 -2.00656,-0.801375 -3.0293,-1.195305 -3.06822,-1.18184 -6.2543,-2.32341 -9.55273,-3.42579 -3.23273,-1.08041 -6.60947,-2.10698 -10.05274,-3.10742 a 32.829956,130.96646 0 0 0 -25.61328,-77.09375 z m -176.31641,25.87696 1.02735,0 a 32.829956,104.03038 0 0 0 -1.02735,-0.24024 l 0,0.24024 z m 1.02735,0 a 32.829956,104.03038 0 0 1 1.90039,0.72265 l 0,-0.72265 -1.90039,0 z m -4.46289,53.21874 0.68945,0 0,5.533208 2.74609,0 0,1.841797 -3.43554,0 0,-7.375005 z m 67.08593,0 33.10352,0 0,1.66993 6.5,0 0,-1.66993 3.51953,0 a 54.75,54.75 0 0 1 12.29102,7.375005 l -67.91407,0 a 54.75,54.75 0 0 1 12.5,-7.375005 z m 106.4043,0.66993 c 1.10947,0.21453 2.23949,0.4189 3.33399,0.64062 l 0,6.064455 -3.33399,0 0,-6.705075 z m -190.25976,8.177731 0.35351,0 0,6.658203 5.80078,0 0,-6.658203 0.35352,0 0,6.658203 6.15429,0 0,7.375 -6.15429,0 0,5.78125 -0.35352,0 0,-5.78125 -5.80078,0 0,5.78125 -0.35351,0 0,-5.78125 -6.1543,0 0,-7.375 6.1543,0 0,-6.658203 z m 0,6.658203 0,7.375 0.35351,0 0,-7.375 -0.35351,0 z m 6.15429,7.375 0.35352,0 0,-7.375 -0.35352,0 0,7.375 z m 184.00391,-8.505859 3.43555,0 0,1.130859 1.92773,0 0,7.375 -1.92773,0 0,8.13086 1.92773,0 0,1.919922 a 16.793785,16.793785 0 0 0 -1.92773,-0.277344 l 0,2.701172 -3.43555,0 0,-2.345703 3.29101,0 0,-0.373047 a 16.793785,16.793785 0 0 0 -1.05859,-0.04102 l 0.0918,0 0,-1.583984 0.96679,0 0,-8.13086 -0.96679,0 0,-5.746093 -2.32422,0 0,-0.966797 -1.9336,0 -0.29882,0 -4.92383,0 -0.30078,0 -4.92383,0 -0.29883,0 -4.92578,0 -0.29883,0 -4.92578,0 -0.29883,0 -4.92578,0 -0.29883,0 -5.22461,0 0,0.966797 -0.13671,0 0,5.746093 -3.03711,0 0,-7.375 36.75195,0 0,-1.130859 z m 0,1.130859 0,0.66211 3.29101,0 0,6.71289 0.14454,0 0,-7.375 -3.43555,0 z m 3.29101,15.50586 0,1.625 a 16.793785,16.793785 0 0 1 0.14454,0.01758 l 0,-1.642578 -0.14454,0 z m -176.67968,-15.50586 3.43554,0 0,7.375 -3.43554,0 0,-7.375 z m 46.33789,0 6.45312,0 c -2.57096,1.389645 -3.62338,4.499088 -3.13281,7.375 l -8.41016,0 a 54.75,54.75 0 0 1 5.08985,-7.375 z m 11.96094,0 8.68164,0 c 0.0532,0.958995 -0.31773,1.937465 -1.12305,2.894532 l -1.15235,1.36914 3.11915,3.111328 -15.20899,0 c -0.88634,-2.594314 0.79467,-5.519531 3.85156,-5.519531 1.81234,0 1.83008,-0.01967 1.83008,-1.832031 0,-0.0082 0.002,-0.01528 0.002,-0.02344 z m 11.49609,0 41.64648,0 c -0.0784,1.196985 0.0695,2.352421 0.47461,3.109375 0.40413,0.755117 -0.0267,1.446855 -2.79687,4.265625 l -37.00196,0 c -2.76977,-2.81839 -3.20098,-3.510547 -2.79687,-4.265625 0.40511,-0.756954 0.55298,-1.91239 0.47461,-3.109375 z m 44.47851,0 8.66407,0 c 2e-5,0.0088 0.002,0.01457 0.002,0.02344 0,1.812333 0.0197,1.832031 1.83203,1.832031 3.05691,0 4.73619,2.925217 3.84961,5.519531 l -15.28711,0 c 1.55386,-1.618753 2.78125,-2.946852 2.78125,-3.097656 0,-0.223153 -0.42594,-0.947156 -0.94531,-1.607422 -0.69034,-0.877623 -0.94373,-1.798536 -0.89649,-2.669922 z m 14.11719,0 2.43164,0 a 54.75,54.75 0 0 1 5.08789,7.375 l -4.27929,0 c 0.43893,-2.76367 -0.6453,-5.760403 -3.24024,-7.375 z m 8.2461,8.642578 a 54.75,54.75 0 0 1 3.03711,6.466797 l 0,0.396485 0.13085,0 a 54.75,54.75 0 0 1 0.006,0.01563 l 0,1.568359 0.52149,0 a 54.75,54.75 0 0 1 0.13867,0.414063 l 4.56445,0 0.29883,0 4.92578,0 0.29883,0 4.92578,0 0.29883,0 4.92578,0 0.29883,0 4.92383,0 0.30078,0 4.92383,0 0.29882,0 0.33204,0 a 16.793785,16.793785 0 0 0 -5.53711,2.345703 l -25,0 a 54.75,54.75 0 0 1 0.71093,3.03125 l -29.61718,0 -0.58985,-1.570313 4.47657,-4.478515 c 0.55901,-0.559019 0.91588,-0.899587 1.35156,-1.326172 l 19.05469,0 0,-6.863282 z m 0,6.863282 0,4.34375 4.61328,0 a 54.75,54.75 0 0 0 -0.7793,-2.345703 l -0.66016,0 0,-0.414063 -0.13671,0 0,-1.583984 -3.03711,0 z m -136.63672,0 3.43554,0 0,7.375 -3.43554,0 0,-7.375 z m 37.41211,0 26.24218,0 c 0.43582,0.426708 0.79232,0.766924 1.35157,1.326172 l 4.47851,4.476562 -0.5918,1.572266 -33.70312,0 a 54.75,54.75 0 0 1 2.22266,-7.375 z m 30.54882,0 6.78125,0 -1.35351,1.248047 c -1.09828,1.012363 -2.08422,1.839843 -2.18945,1.839843 -0.0753,0 -1.49562,-1.371063 -3.23829,-3.08789 z m 13.00782,0 19.35742,0 c 3.76029,1.619737 6.69174,4.13796 8.57812,7.375 l -36.58593,0 c 0.82576,-1.424428 1.85414,-2.748417 3.07421,-3.873047 1.55724,-1.435399 3.47206,-2.604052 5.57618,-3.501953 z m 25.52539,0 6.77148,0 c -1.75069,1.714593 -3.18523,3.08275 -3.28125,3.078125 -0.13427,-0.0065 -1.1181,-0.837859 -2.18554,-1.845703 l -1.30469,-1.232422 z m 66.89453,1.583984 1.95312,0 a 16.793785,16.793785 0 0 0 -1.95312,0.136719 l 0,-0.136719 z m -171.31836,6.181641 a 10.606602,10.606602 0 0 1 1.36523,0.09961 l 0,7.640625 2.92774,0 0,7.375 -2.92774,0 0,5.996094 a 10.606602,10.606602 0 0 1 -1.36523,0.101562 10.606602,10.606602 0 0 1 -2.07031,-0.205078 l 0,-5.892578 -7.51563,0 a 10.606602,10.606602 0 0 1 -1.01953,-4.507812 10.606602,10.606602 0 0 1 0.4043,-2.867188 l 8.13086,0 0,-7.525391 a 10.606602,10.606602 0 0 1 2.07031,-0.214843 z m -2.07031,7.740234 0,7.375 3.43554,0 0,-7.375 -3.43554,0 z m 175.45898,-7.740234 a 10.606602,10.606602 0 0 1 1.05859,0.05273 10.606602,10.606602 0 0 1 0.30665,0.04687 l 0,7.640625 2.92773,0 0,7.375 -2.92773,0 0,5.996094 a 10.606602,10.606602 0 0 1 -1.36524,0.101562 10.606602,10.606602 0 0 1 -2.07031,-0.205078 l 0,-5.892578 -7.51563,0 a 10.606602,10.606602 0 0 1 -0.63281,-1.671875 10.606602,10.606602 0 0 1 -0.23242,-1.033203 10.606602,10.606602 0 0 1 0,-0.002 10.606602,10.606602 0 0 1 -0.1543,-1.800781 10.606602,10.606602 0 0 1 0.0527,-1.058594 10.606602,10.606602 0 0 1 0,-0.002 10.606602,10.606602 0 0 1 0.35156,-1.806641 l 8.13086,0 0,-7.525391 a 10.606602,10.606602 0 0 1 0.26758,-0.06055 10.606602,10.606602 0 0 1 1.80273,-0.154297 z m -2.07031,7.740234 0,7.375 3.43555,0 0,-7.375 -3.43555,0 z m -138.70117,0 32.41406,0 c -0.13589,2.322487 0.0568,3.195332 1.22461,5.820313 0.21511,0.483527 0.42633,1.014551 0.625,1.554687 l -34.23633,0 a 32.829956,104.03038 0 0 0 0.0352,-3.560547 32.829956,104.03038 0 0 0 -0.0625,-3.814453 z m 35.32031,0 6.89648,0 c -1.38771,2.312953 -1.09775,5.56905 0.82618,7.375 l -5.53321,0 c -0.23147,-0.729592 -0.51799,-1.411555 -0.80273,-1.871094 -0.96117,-1.551214 -1.39889,-3.468103 -1.38672,-5.503906 z m 16.5332,0 5.55078,0 a 9.0142543,9.0142543 0 0 0 -0.19726,1.832031 9.0142543,9.0142543 0 0 0 1.91992,5.542969 l -1.23633,0 c -0.24663,-0.279635 -0.49628,-0.527656 -0.74023,-0.6875 -0.5731,-0.375511 -0.89533,-0.5625 -1.21875,-0.5625 -0.32343,0 -0.64761,0.186989 -1.22071,0.5625 -0.24413,0.159966 -0.49157,0.407769 -0.73828,0.6875 l -3.02343,0 c 2.20478,-2.069893 2.50552,-5.053448 0.90429,-7.375 z m 7.95899,0 0.13867,0 c -0.0819,0.124937 -0.16279,0.249967 -0.23438,0.380859 a 6.5102945,6.5102945 0 0 1 0.0957,-0.380859 z m 9.86914,0 2.61719,0 a 6.5102945,6.5102945 0 0 1 0.26562,1.832031 6.5102945,6.5102945 0 0 1 -3.10352,5.542969 l -0.81836,0 c 1.15195,-1.017181 1.92579,-2.478751 1.92579,-4.210937 0,-1.209148 -0.32074,-2.282671 -0.88672,-3.164063 z m 5.36523,0 1.51953,0 c 0.0479,2.004646 -0.41879,3.69166 -1.5039,5.589844 -0.30567,0.534694 -0.58026,1.173203 -0.79102,1.785156 l -0.94531,0 a 9.0142543,9.0142543 0 0 0 1.91016,-5.542969 9.0142543,9.0142543 0 0 0 -0.18946,-1.832031 z m 4.40039,0 29.07031,0 a 54.75,54.75 0 0 1 0.13477,3.765625 54.75,54.75 0 0 1 -0.18164,3.609375 l -30.87109,0 c 0.19866,-0.540118 0.40794,-1.071175 0.62304,-1.554687 1.1678,-2.624981 1.36066,-3.497826 1.22461,-5.820313 z m -32.44922,0.337891 c 1.41513,0.009 2.02257,0.400879 2.74024,1.763672 0.58244,1.106 0.0776,2.763454 -1.07813,3.535156 -0.95646,0.638641 -2.96251,0.368412 -3.75195,-0.503906 -0.0599,-0.06619 -0.1079,-0.136221 -0.16016,-0.205078 a 1.7945044,1.7945044 0 0 0 1.23438,0.49414 1.7945044,1.7945044 0 0 0 1.79297,-1.794922 1.7945044,1.7945044 0 0 0 -1.79297,-1.794922 1.7945044,1.7945044 0 0 0 -1.79492,1.794922 c -0.24796,-1.621957 0.93939,-3.300884 2.81054,-3.289062 z m 17.94727,0 c 2.44806,-0.01445 3.73384,3.24068 1.92578,4.876953 -0.89505,0.810004 -2.76536,1.025865 -3.66992,0.421875 -1.15573,-0.771702 -1.66057,-2.429156 -1.07813,-3.535156 0.72666,-1.379871 1.32515,-1.754843 2.82227,-1.763672 z m -99.63281,15.167968 3.43554,0 0,7.375 -3.43554,0 0,-7.375 z m 35.18164,0 34.52539,0 c -0.80053,1.005848 -2.1554,2.467904 -4.04688,4.353516 -1.34939,1.345211 -2.32935,2.302806 -3.10351,3.021484 l -25.23633,0 a 54.75,54.75 0 0 1 -2.13867,-7.375 z m 39.67187,0 2.20313,0 c 0.29292,0.376616 0.53861,0.952523 0.80078,1.710938 l 0.69726,2.011719 -3.63671,3.652343 -8.0625,0 c 0.40402,-0.400937 0.68537,-0.660624 1.10546,-1.082031 3.45291,-3.463727 5.52736,-5.44697 6.89258,-6.292969 z m 5.50977,0 20.5625,0 c -0.5144,1.28901 -0.97307,2.99682 -1.47071,5.363282 -0.20026,0.952372 -0.35197,1.58815 -0.51757,2.011718 l -2.43164,0 c -0.0596,-0.264718 -0.10148,-0.60359 -0.13868,-1.060546 -0.17209,-2.11449 -0.80694,-2.755032 -2.06445,-2.082032 -0.60098,0.32164 -0.85156,1.007205 -0.85156,2.328125 l 0,0.814453 -5.66602,0 0,-0.814453 c 0,-1.32092 -0.25057,-2.006485 -0.85156,-2.328125 -1.2575,-0.673 -1.89235,-0.03241 -2.06445,2.082032 -0.0365,0.448127 -0.0837,0.787673 -0.15039,1.060546 l -2.47071,0 c -0.22395,-0.689124 -0.46374,-1.808722 -0.8457,-3.652343 -0.32671,-1.576961 -0.65522,-2.769483 -1.03906,-3.722657 z m 23.8164,0 2.20508,0 c 1.36498,0.846173 3.43813,2.829647 6.89063,6.292969 0.43975,0.441128 0.70456,0.687787 1.10156,1.082031 l -8.04883,0 -3.64453,-3.652343 0.69531,-2.011719 c 0.26207,-0.758088 0.50776,-1.334297 0.80078,-1.710938 z m 7.34961,0 30.49805,0 a 54.75,54.75 0 0 1 -1.57617,5.65625 l 32.9375,0 0,-1.652343 a 16.793785,16.793785 0 0 0 2.07031,0.15039 16.793785,16.793785 0 0 0 1.36524,-0.06836 l 0,1.570312 1.92773,0 0,1.71875 -1.92773,0 0,8.13086 1.92773,0 0,7.375 -1.92773,0 0,3.755859 -3.43555,0 0,-2.345703 3.29101,0 0,-1.410156 -0.96679,0 0,-7.375 0.96679,0 0,-8.054688 -3.29101,0 0,-0.07617 -33.56641,0 a 54.75,54.75 0 0 1 -3.18554,7.134766 l 0,-7.134766 -17.95704,0 c -0.77422,-0.718648 -1.75434,-1.678458 -3.10351,-3.023437 -1.89147,-1.885612 -3.24635,-3.345716 -4.04688,-4.351563 z m 25.10743,7.375 3.18554,0 a 54.75,54.75 0 0 0 0.62891,-1.71875 l -3.81445,0 0,1.71875 z m 36.75195,0 3.43555,0 0,-1.71875 -3.43555,0 0,1.71875 z m 3.29101,8.13086 0,7.375 0.14454,0 0,-7.375 -0.14454,0 z m -193.44921,-4.181641 0.35351,0 0,4.181641 5.80078,0 0,-4.181641 0.35352,0 0,4.181641 6.15429,0 0,7.375 -6.15429,0 0,8.130859 6.15429,0 0,0.126953 -6.15429,0 0,-0.126953 -0.35352,0 0,0.126953 -5.80078,0 0,-0.126953 -0.35351,0 0,0.126953 -6.1543,0 0,-0.126953 6.1543,0 0,-8.130859 -6.1543,0 0,-7.375 6.1543,0 0,-4.181641 z m 0,4.181641 0,7.375 0.35351,0 0,-7.375 -0.35351,0 z m 0.35351,7.375 0,8.130859 5.80078,0 0,-8.130859 -5.80078,0 z m 5.80078,0 0.35352,0 0,-7.375 -0.35352,0 0,7.375 z m 10.61524,-7.375 3.43554,0 0,7.375 -3.43554,0 0,-7.375 z m 41.17773,0 8.33399,0 c -0.0546,2.632032 1.22236,5.301307 3.84765,6.640625 0.38535,0.196588 0.74575,0.453559 1.08985,0.734375 l -8.23243,0 a 54.75,54.75 0 0 1 -5.03906,-7.375 z m 11.21484,0 14.42969,0 -2.12304,2.132812 1.15625,1.326172 c 1.11061,1.272874 1.38977,2.624637 0.88086,3.916016 l -8.29688,0 c -0.0847,-0.336335 -0.14258,-0.689045 -0.14258,-1.070313 0,-1.81233 -0.0177,-1.832031 -1.83008,-1.832031 -2.64949,0 -4.2663,-2.197613 -4.07422,-4.472656 z m 18.70508,0 39.04102,0 c 1.92881,2.049313 2.11798,2.582501 1.77539,3.222656 -0.52218,0.975677 -0.61675,2.614688 -0.3418,4.152344 l -41.88476,0 c 0.3378,-1.485272 0.25422,-2.994874 -0.36524,-4.152344 -0.3426,-0.640155 -0.15342,-1.173343 1.77539,-3.222656 z m 43.17578,0 14.56641,0 c 0.004,0.06079 0.0234,0.123349 0.0234,0.183594 0,2.46162 -1.74413,4.289062 -4.0918,4.289062 -1.81233,0 -1.83203,0.0197 -1.83203,1.832031 0,0.414732 -0.0304,0.759773 -0.0918,1.070313 l -8.36523,0 c -0.14943,-0.341195 -0.25586,-0.669704 -0.25586,-0.933594 0,-1.38984 0.91604,-3.599609 1.49219,-3.599609 0.76194,0 0.43464,-0.75005 -1.44532,-2.841797 z m 17.45313,0 4.29883,0 a 54.75,54.75 0 0 1 -5.06641,7.375 l -4.17187,0 c 0.34378,-0.280554 0.7039,-0.537482 1.08984,-0.734375 2.62526,-1.339301 3.90414,-4.008624 3.84961,-6.640625 z m 4.91016,0 3.03711,0 0,7.375 -3.03711,0 0,-7.375 z m -136.63672,15.505859 3.43554,0 0,0.498047 -2.74609,0 0,6.8769532 -0.68945,0 0,-7.3750002 z m 54.46875,0 68.31054,0 a 54.75,54.75 0 0 1 -12.33398,7.3750002 l -3.75586,0 0,-2.0136718 -6.5,0 0,2.0136718 -33.54883,0 a 54.75,54.75 0 0 1 -12.17187,-7.3750002 z m 119.02148,0 3.33399,0 0,7.355469 c -0.0352,0.00713 -0.0722,0.01241 -0.10743,0.019531 l -3.22656,0 0,-7.375 z"
         id="rect7558"
         transform="translate(-14,142.25)" />
    </g>
    <path
       style="opacity:1;fill:#876a3e;fill-opacity:1;stroke:none;stroke-width:10;stroke-linecap:round;stroke-linejoin:miter;stroke-miterlimit:4;stroke-dasharray:none;stroke-dashoffset:0;stroke-opacity:1"
       d="m -393.99824,-110.9626 a 190.41374,63.639606 0 0 0 -161.11914,29.86719 l 0,67.63672 a 190.41374,63.639606 0 0 0 161.11914,29.77539 190.41374,63.639606 0 0 0 190.41406,-63.64063 190.41374,63.639606 0 0 0 -190.41406,-63.63867 z"
       id="path5455"
       inkscape:connector-curvature="0" />
    <g
       id="g6539"
       transform="translate(0.8994949,7)">
      <circle
         r="54.75"
         cy="-54.887798"
         cx="-385.5"
         id="path6373"
         style="opacity:1;fill:#49391f;fill-opacity:1;stroke:none;stroke-width:1;stroke-linecap:round;stroke-linejoin:miter;stroke-miterlimit:4;stroke-dasharray:none;stroke-dashoffset:0;stroke-opacity:1" />
      <g
         style="fill:#b89456;fill-opacity:1"
         inkscape:export-ydpi="90"
         inkscape:export-xdpi="90"
         id="g4170"
         transform="matrix(0.47215109,0,0,0.47215109,-553.40599,12.193657)">
        <path
           id="path4147-2"
           d="m 300.28125,-230.44336 c -5.52159,0.0851 -10.96945,2.94297 -13.44141,8.53125 -1.3665,3.08919 -2.71366,4.44303 -5.38281,5.4082 -11.16509,4.03735 -11.50339,21.8819 -0.51953,27.40039 3.95117,1.98513 10.11294,2.2849 13.18164,0.64258 1.84744,-0.98872 3.08952,-0.0882 11.55274,8.375 l 9.48242,9.48242 -2.20703,5.875 c -1.21379,3.23124 -2.45319,9.08393 -2.75391,13.00391 -0.49348,6.43247 -0.24778,7.7972 2.51172,14 1.68166,3.78002 3.29622,8.91811 3.58789,11.41797 0.29166,2.49987 0.78188,5.20137 1.08984,6.00391 0.36178,0.94278 -3.29208,5.29826 -10.32422,12.30859 -9.72589,9.695739 -11.10146,10.732883 -12.94531,9.746093 -3.06264,-1.63908 -9.22785,-1.337018 -13.17578,0.646485 -10.8398,5.446117 -10.79859,21.749068 0.0684,27.292968 2.45013,1.24997 4.61167,3.40956 5.85352,5.84375 1.08321,2.12327 3.45198,4.80869 5.26367,5.96875 4.61776,2.95685 12.36741,2.898657 16.89648,-0.126953 5.89261,-3.9365 8.77478,-13.352278 5.79297,-18.923828 -0.98671,-1.8437 0.0463,-3.217455 9.70312,-12.904297 l 10.8086,-10.841798 1.33984,3.187501 c 0.73717,1.75321 1.88318,3.533258 2.54688,3.955078 1.57462,1.00079 39.83944,1.00079 41.41406,0 0.6637,-0.42182 1.80969,-2.201868 2.54688,-3.955078 l 1.33984,-3.187501 10.80664,10.841798 c 9.65677,9.686842 10.68983,11.060597 9.70312,12.904297 -1.63908,3.06263 -1.33506,9.225898 0.64844,13.173828 5.44612,10.8398 21.74907,10.800544 27.29297,-0.06641 1.25451,-2.45904 3.40815,-4.614631 5.86719,-5.869141 10.86697,-5.5439 10.90818,-21.846851 0.0684,-27.292968 -3.94793,-1.983503 -10.11315,-2.285565 -13.17578,-0.646485 -1.84385,0.98679 -3.22138,-0.05036 -12.94727,-9.746089 -7.03214,-7.01033 -10.686,-11.36581 -10.32422,-12.30859 0.30796,-0.80254 0.80014,-3.50404 1.0918,-6.00391 0.29167,-2.49986 1.90623,-7.63795 3.58789,-11.41797 2.7595,-6.2028 3.00326,-7.56753 2.50976,-14 -0.30072,-3.91998 -1.54011,-9.77267 -2.7539,-13.00391 l -2.20703,-5.87304 9.48437,-9.48438 c 8.46322,-8.46322 9.7053,-9.36372 11.55274,-8.375 3.0687,1.64232 9.23047,1.34256 13.18164,-0.64258 10.8398,-5.44611 10.79859,-21.74905 -0.0684,-27.29296 -2.45904,-1.2545 -4.61268,-3.41011 -5.86719,-5.86914 -5.5439,-10.86698 -21.84685,-10.90622 -27.29297,-0.0664 -1.98518,3.95127 -2.28695,10.11275 -0.64453,13.18164 0.98986,1.84958 0.0573,3.11837 -8.75,11.91016 l -9.85742,9.83984 -7,-2.66602 c -6.23026,-2.37365 -8.37454,-2.66795 -19.5,-2.66797 -11.12546,1e-5 -13.26974,0.29432 -19.5,2.66797 l -7,2.66602 -9.85742,-9.83984 c -8.8074,-8.79179 -9.73987,-10.06058 -8.75,-11.91016 1.64242,-3.06889 1.34066,-9.23037 -0.64453,-13.18164 -2.76708,-5.50753 -8.36318,-8.19643 -13.88477,-8.11133 z m -0.38867,6.08984 c 0.29497,-0.009 0.59103,-0.002 0.88867,0.0176 2.16467,0.14566 4.37098,1.06434 6.21289,2.90625 3.66719,3.66718 3.83781,7.83657 0.48242,11.82422 l -2.4414,2.90235 11.30859,11.27734 11.30859,11.27539 -4.22851,3.89844 c -2.32612,2.14415 -4.41189,3.89843 -4.63477,3.89843 -0.22287,0 -5.3132,-4.92344 -11.3125,-10.9414 l -10.9082,-10.94141 -2.90234,2.44141 c -3.98805,3.35572 -8.15886,3.18685 -11.82618,-0.48047 -5.89413,-5.89412 -2.32962,-15.53125 5.74414,-15.53125 3.83846,0 3.87891,-0.0404 3.87891,-3.87891 0,-5.20379 4.00515,-8.53592 8.42969,-8.66797 z m 119.96094,0.0527 c 1.93699,0.0752 3.92853,0.78679 5.73632,2.3418 2.15428,1.85303 2.78321,3.2709 2.78321,6.27343 0,3.83846 0.0404,3.87891 3.8789,3.87891 8.07376,0 11.63632,9.63713 5.74219,15.53125 -3.66732,3.66732 -7.83617,3.83619 -11.82422,0.48047 l -2.90234,-2.44141 -10.9082,10.94141 c -5.99931,6.01796 -11.13945,10.93167 -11.42383,10.91797 -0.28438,-0.0138 -2.36809,-1.77167 -4.62891,-3.90625 l -4.10937,-3.88086 10.85937,-10.82813 c 5.97332,-5.95479 10.86133,-11.21291 10.86133,-11.68554 0,-0.47263 -0.9,-2.00393 -2,-3.40235 -5.21613,-6.63123 1.0177,-14.48933 7.93555,-14.2207 z m -60.41602,37.2168 c 2.76081,-0.0316 5.52173,0.1555 8.23047,0.57617 18.99762,2.95031 31.9039,14.13953 35.25195,30.56054 1.46793,7.19968 0.79583,11.99441 -2.48437,17.73243 -1.37183,2.39971 -2.49886,5.78874 -2.50586,7.53125 -0.021,5.52824 -0.78001,6.33007 -5.98242,6.33007 -7.77021,0 -10.10673,3.2456 -13.31446,18.5 -1.13109,5.3789 -1.51769,6.000004 -3.73828,6.000004 -2.16756,0 -2.51682,-0.497374 -2.80078,-3.986324 -0.36449,-4.47842 -1.70969,-5.8336 -4.37305,-4.40821 -1.27286,0.68122 -1.80273,2.13202 -1.80273,4.92969 l 0,3.964844 -6,0 -6,0 0,-3.964844 c 0,-2.79767 -0.53183,-4.24847 -1.80469,-4.92969 -2.66336,-1.42539 -4.00659,-0.0702 -4.37109,4.40821 -0.26499,3.25593 -0.73706,4.045197 -2.57813,4.306637 -2.60163,0.36943 -2.70118,0.167701 -4.76562,-9.796877 -2.40457,-11.60638 -4.63475,-14.18887 -12.98047,-15.02344 l -5,-0.5 -0.50781,-5 c -0.27957,-2.75 -1.49851,-6.59452 -2.70704,-8.54492 -6.20756,-10.0183 -2.29347,-27.16144 8.46485,-37.07812 7.83288,-7.2201 19.806,-11.47059 31.76953,-11.60742 z m -18.76562,31.69336 c -2.33433,0.0108 -4.62365,0.563 -6.33985,1.6875 -7.23106,4.73797 -7.03011,16.78201 0.34766,20.78515 4.42378,2.40032 10.59491,1.97729 14.09375,-0.9668 6.22375,-5.23694 6.22375,-13.6986 0,-18.93554 -2.02617,-1.70492 -5.10029,-2.58418 -8.10156,-2.57031 z m 37.85742,0.0371 c -11.54897,0 -16.40248,13.95152 -7.46875,21.46875 7.62593,6.41681 19.85742,0.58398 19.85742,-9.46875 0,-7.07005 -5.08997,-12 -12.38867,-12 z m -37.53321,6.01563 c 2.9972,0.019 4.28664,0.84802 5.80664,3.73437 1.23358,2.34247 0.16265,5.85189 -2.28515,7.48633 -2.02574,1.35262 -6.27331,0.78309 -7.94531,-1.06445 -0.12687,-0.14018 -0.22721,-0.28971 -0.33789,-0.43555 a 3.8006995,3.8006995 0 0 1 -0.002,-0.002 3.8006995,3.8006995 0 0 1 -0.002,-0.002 3.8006995,3.8006995 0 0 1 -0.26172,-0.27539 3.8006995,3.8006995 0 0 1 -0.22266,-0.28516 3.8006995,3.8006995 0 0 1 -0.0176,-0.0234 3.8006995,3.8006995 0 0 1 -0.19336,-0.31054 3.8006995,3.8006995 0 0 1 -0.002,-0.004 3.8006995,3.8006995 0 0 1 -0.15234,-0.30274 3.8006995,3.8006995 0 0 1 -0.0273,-0.0605 3.8006995,3.8006995 0 0 1 0,-0.002 3.8006995,3.8006995 0 0 1 -0.10547,-0.27929 3.8006995,3.8006995 0 0 1 -0.0293,-0.084 3.8006995,3.8006995 0 0 1 -0.002,-0.006 3.8006995,3.8006995 0 0 1 -0.0723,-0.27734 3.8006995,3.8006995 0 0 1 -0.0176,-0.0781 3.8006995,3.8006995 0 0 1 -0.0488,-0.29492 3.8006995,3.8006995 0 0 1 0,-0.002 3.8006995,3.8006995 0 0 1 -0.002,-0.0254 3.8006995,3.8006995 0 0 1 -0.008,-0.0586 3.8006995,3.8006995 0 0 1 -0.0215,-0.34375 3.8006995,3.8006995 0 0 1 0,-0.002 c -5.2e-4,-0.003 4.9e-4,-0.007 0,-0.01 -10e-4,-0.009 -5.7e-4,-0.0183 -0.002,-0.0274 -0.52516,-3.43525 1.98814,-6.98988 5.95117,-6.96484 z m 38.01563,0 c 5.18491,-0.0306 7.90753,6.86451 4.07812,10.33008 -1.89568,1.71556 -5.8576,2.16985 -7.77343,0.89062 -2.44779,-1.63444 -3.51874,-5.14386 -2.28516,-7.48633 1.53905,-2.92252 2.80962,-3.71567 5.98047,-3.73437 z m -19.09375,12.25586 c -0.685,0 -1.37019,0.39804 -2.58399,1.19336 -2.97198,1.94732 -6.36233,8.7429 -6.39453,12.81836 -0.0155,1.96269 0.64128,3.04951 2.22852,3.6875 3.04072,1.22221 10.03987,1.25065 13.18555,0.0547 1.91267,-0.7272 2.55936,-1.681 2.54296,-3.75 -0.0322,-4.06898 -3.4248,-10.86472 -6.39453,-12.81055 -1.21379,-0.79532 -1.89898,-1.19336 -2.58398,-1.19336 z m 0,6.72851 c 1.83772,0 3.5768,4.25717 2.4707,6.04688 -0.32429,0.5247 -1.43562,0.95312 -2.4707,0.95312 -2.47639,0 -3.20388,-1.33736 -2.42188,-4.45312 0.38582,-1.53724 1.34522,-2.54688 2.42188,-2.54688 z m -30.4707,12.08399 c 1.57363,0.10819 2.44602,1.79456 3.44335,4.67969 l 1.47461,4.26367 -14.67187,14.736326 -14.67188,14.736328 2.44727,2.806641 c 3.37682,3.87016 3.20693,8.089954 -0.47461,11.771484 -5.89412,5.89413 -15.53125,2.32962 -15.53125,-5.74414 0,-3.83846 -0.0404,-3.878907 -3.87891,-3.878907 -8.07376,0 -11.63827,-9.637129 -5.74414,-15.53125 3.48847,-3.488478 7.65915,-3.828288 11.35157,-0.923828 1.39842,1.1 2.92612,2 3.39648,2 0.47037,0 7.37392,-6.53838 15.3418,-14.531254 10.32627,-10.35863 14.89485,-14.56509 17.51758,-14.38476 z m 60.9414,0 c 2.62274,-0.18022 7.18945,4.02622 17.51563,14.38476 13.02254,13.063364 17.01367,16.275424 17.01367,13.693364 0,-1.22028 4.67942,-3.16211 7.62305,-3.16211 3.85292,0 8.37695,5.060231 8.37695,9.369141 0,5.213622 -3.69374,9.085937 -8.66602,9.085937 -3.83846,0 -3.8789,0.04043 -3.8789,3.878907 0,3.00253 -0.62893,4.420407 -2.78321,6.273437 -3.98929,3.43144 -8.99717,3.223533 -12.75,-0.529297 -1.6902,-1.6902 -2.92187,-3.990295 -2.92187,-5.453125 0,-2.94363 1.93989,-7.625 3.16015,-7.625 2.54143,0 -0.56702,-3.882004 -13.38476,-16.722656 l -14.22266,-14.249998 1.47266,-4.26367 c 0.99729,-2.885 1.87167,-4.57156 3.44531,-4.67969 z"
           style="fill:#b89456;fill-opacity:1;stroke:none"
           inkscape:connector-curvature="0" />
        <path
           id="path4759-4"
           d="m 381.71289,-165.26562 a 19.091885,19.091885 0 0 0 -19.0918,19.09179 19.091885,19.091885 0 0 0 19.0918,19.0918 19.091885,19.091885 0 0 0 19.0918,-19.0918 19.091885,19.091885 0 0 0 -19.0918,-19.09179 z m -0.35351,5.30273 a 13.788583,13.788583 0 0 1 13.78906,13.78906 13.788583,13.788583 0 0 1 -13.78906,13.78906 13.788583,13.788583 0 0 1 -13.78711,-13.78906 13.788583,13.788583 0 0 1 13.78711,-13.78906 z"
           style="opacity:1;fill:#b89456;fill-opacity:1;stroke:none;stroke-width:2.20000005;stroke-linecap:round;stroke-linejoin:round;stroke-miterlimit:4;stroke-dasharray:none;stroke-dashoffset:0;stroke-opacity:1"
           inkscape:connector-curvature="0" />
        <circle
           r="3.8006995"
           cy="-142.37267"
           cx="338.8454"
           id="circle4763-2"
           style="opacity:1;fill:#b89456;fill-opacity:1;stroke:none;stroke-width:2.20000005;stroke-linecap:round;stroke-linejoin:round;stroke-miterlimit:4;stroke-dasharray:none;stroke-dashoffset:0;stroke-opacity:1" />
      </g>
    </g>
    <path
       inkscape:connector-curvature="0"
       style="opacity:1;fill:none;fill-opacity:1;stroke:#000000;stroke-width:1;stroke-linecap:round;stroke-linejoin:miter;stroke-miterlimit:4;stroke-dasharray:none;stroke-dashoffset:0;stroke-opacity:0.31014494"
       d="m -464.875,-106.30273 a 190.41374,63.639606 0 0 0 -42.9668,8.13085 l 228.0293,0 a 190.41374,63.639606 0 0 0 -42.94531,-8.13085 l -142.11719,0 z m -45.35352,15.505855 c -2.216,0 -4,1.784 -4,4 l 0,0.130859 c 0,2.216 1.784,4 4,4 l 246.5586,0 c 2.216,0 4,-1.784 4,-4 l 0,-0.130859 c 0,-2.216 -1.784,-4 -4,-4 l -246.5586,0 z m 0,15.505859 c -2.216,0 -4,1.784 -4,4 l 0,0.13086 c 0,2.216 1.784,4 4,4 l 246.5586,0 c 2.216,0 4,-1.784 4,-4 l 0,-0.13086 c 0,-2.216 -1.784,-4 -4,-4 l -246.5586,0 z m 0,15.50586 c -2.216,0 -4,1.784 -4,4 l 0,0.130859 c 0,2.216 1.784,4 4,4 l 246.5586,0 c 2.216,0 4,-1.784 4,-4 l 0,-0.130859 c 0,-2.216 -1.784,-4 -4,-4 l -246.5586,0 z m 0,15.505859 c -2.216,0 -4,1.784 -4,4 l 0,0.130859 c 0,2.216001 1.784,4 4,4 l 246.5586,0 c 2.216,10e-7 4,-1.783999 4,-4 l 0,-0.130859 c 0,-2.216 -1.784,-4 -4,-4 l -246.5586,0 z m 0,15.505859 c -2.216,0 -4,1.784 -4,4 l 0,0.13086 c 0,2.216 1.784,4 4,4 l 246.5586,0 c 2.216,0 4,-1.784 4,-4 l 0,-0.13086 c 0,-2.216 -1.784,-4 -4,-4 l -246.5586,0 z m 0,15.50586 c -2.216,0 -4,1.784 -4,4 l 0,0.130859 c 0,2.216 1.784,4 4,4 l 246.5586,0 c 2.216,0 4,-1.784 4,-4 l 0,-0.130859 c 0,-2.216 -1.784,-4 -4,-4 l -246.5586,0 z m 0,15.5058592 c -0.55556,0 -1.08254,0.1114959 -1.5625,0.3144532 a 190.41374,63.639606 0 0 0 37.92579,7.8164066 l 159.73828,0 a 190.41374,63.639606 0 0 0 39.30664,-8.1308598 l -235.40821,0 z"
       id="rect6560" />
    <path
       inkscape:connector-curvature="0"
       id="path6375"
       d="m -385,-122.96289 c -66.07477,0.0313 -127.31589,11.15685 -163.47266,30.45703 l -2.64453,1.41211 0,73.63867 2.65235,1.41016 C -512.2475,3.2145602 -451.02031,14.30509 -385,14.31641 l 0.002,0 c 53.03353,3e-5 101.04511,-7.1393598 136.22852,-18.8984398 17.59166,-5.8795402 31.99165,-12.8836202 42.32221,-21.0468802 10.33057,-8.16325 16.86381,-17.88709 16.86329,-28.69531 -4.8e-4,-10.80799 -6.53438,-20.53039 -16.86524,-28.69336 -10.33086,-8.16297 -24.73063,-15.16949 -42.32226,-21.04883 -35.18327,-11.75867 -83.19419,-18.89651 -136.22657,-18.89648 l -0.002,0 z m 0.002,10 0.002,0 c 52.12847,1.5e-4 99.32214,7.10704 133.05468,18.38086 16.86649,5.63698 30.35256,12.34585 39.29297,19.41015 8.94042,7.06431 13.06416,14.08222 13.06446,20.84766 3.2e-4,6.7656 -4.12246,13.78515 -13.0625,20.84961 -8.94005,7.06446 -22.42644,13.77299 -39.29297,19.41016 -33.73306,11.2743402 -80.9282,18.3808902 -133.0586,18.3808602 -63.31284,-0.0109 -122.23081,-10.91393 -156.11914,-27.9628902 l 0,-61.26368 c 33.82227,-17.07857 92.75365,-28.02246 156.11914,-28.05273 z"
       style="color:#000000;font-style:normal;font-variant:normal;font-weight:normal;font-stretch:normal;font-size:medium;line-height:normal;font-family:sans-serif;text-indent:0;text-align:start;text-decoration:none;text-decoration-line:none;text-decoration-style:solid;text-decoration-color:#000000;letter-spacing:normal;word-spacing:normal;text-transform:none;direction:ltr;block-progression:tb;writing-mode:lr-tb;baseline-shift:baseline;text-anchor:start;white-space:normal;clip-rule:nonzero;display:inline;overflow:visible;visibility:visible;opacity:1;isolation:auto;mix-blend-mode:normal;color-interpolation:sRGB;color-interpolation-filters:linearRGB;solid-color:#000000;solid-opacity:1;fill:#251e12;fill-opacity:1;fill-rule:nonzero;stroke:none;stroke-width:1;stroke-linecap:round;stroke-linejoin:miter;stroke-miterlimit:4;stroke-dasharray:none;stroke-dashoffset:0;stroke-opacity:1;filter:url(#filter6479);color-rendering:auto;image-rendering:auto;shape-rendering:auto;text-rendering:auto;enable-background:accumulate"
       clip-path="url(#clipPath6489)"
       transform="translate(-9,7)" />
    <path
       style="opacity:1;fill:#b89456;fill-opacity:1;stroke:none;stroke-width:10;stroke-linecap:round;stroke-linejoin:miter;stroke-miterlimit:4;stroke-dasharray:none;stroke-dashoffset:0;stroke-opacity:1"
       d="m -265,-94.05078 0,93.4316402 A 190.41374,63.639606 0 0 0 -203.58398,-47.32422 190.41374,63.639606 0 0 0 -265,-94.05078 Z"
       id="rect5475"
       inkscape:connector-curvature="0" />
    <path
       inkscape:connector-curvature="0"
       id="path7282"
       d="m -385,-122.96289 c -66.07477,0.0313 -127.31589,11.15685 -163.47266,30.45703 l -2.64453,1.41211 0,73.63867 2.65235,1.41016 C -512.2475,3.2145602 -451.02031,14.30509 -385,14.31641 l 0.002,0 c 53.03353,3e-5 101.04511,-7.1393598 136.22852,-18.8984398 17.59166,-5.8795402 31.99165,-12.8836202 42.32221,-21.0468802 10.33057,-8.16325 16.86381,-17.88709 16.86329,-28.69531 -4.8e-4,-10.80799 -6.53438,-20.53039 -16.86524,-28.69336 -10.33086,-8.16297 -24.73063,-15.16949 -42.32226,-21.04883 -35.18327,-11.75867 -83.19419,-18.89651 -136.22657,-18.89648 l -0.002,0 z m 0.002,10 0.002,0 c 52.12847,1.5e-4 99.32214,7.10704 133.05468,18.38086 16.86649,5.63698 30.35256,12.34585 39.29297,19.41015 8.94042,7.06431 13.06416,14.08222 13.06446,20.84766 3.2e-4,6.7656 -4.12246,13.78515 -13.0625,20.84961 -8.94005,7.06446 -22.42644,13.77299 -39.29297,19.41016 -33.73306,11.2743402 -80.9282,18.3808902 -133.0586,18.3808602 -63.31284,-0.0109 -122.23081,-10.91393 -156.11914,-27.9628902 l 0,-61.26368 c 33.82227,-17.07857 92.75365,-28.02246 156.11914,-28.05273 z"
       style="color:#000000;font-style:normal;font-variant:normal;font-weight:normal;font-stretch:normal;font-size:medium;line-height:normal;font-family:sans-serif;text-indent:0;text-align:start;text-decoration:none;text-decoration-line:none;text-decoration-style:solid;text-decoration-color:#000000;letter-spacing:normal;word-spacing:normal;text-transform:none;direction:ltr;block-progression:tb;writing-mode:lr-tb;baseline-shift:baseline;text-anchor:start;white-space:normal;clip-rule:nonzero;display:inline;overflow:visible;visibility:visible;opacity:1;isolation:auto;mix-blend-mode:normal;color-interpolation:sRGB;color-interpolation-filters:linearRGB;solid-color:#000000;solid-opacity:1;fill:#0f0b06;fill-opacity:1;fill-rule:nonzero;stroke:#43351d;stroke-width:5;stroke-linecap:round;stroke-linejoin:miter;stroke-miterlimit:4;stroke-dasharray:none;stroke-dashoffset:0;stroke-opacity:1;filter:url(#filter7366);color-rendering:auto;image-rendering:auto;shape-rendering:auto;text-rendering:auto;enable-background:accumulate"
       clip-path="url(#clipPath7376)"
       transform="translate(-9,7)" />
    <path
       inkscape:connector-curvature="0"
       style="opacity:1;fill:none;fill-opacity:1;stroke:#000000;stroke-width:0.99999994;stroke-linecap:round;stroke-linejoin:miter;stroke-miterlimit:4;stroke-dasharray:none;stroke-dashoffset:0;stroke-opacity:0.31014494"
       d="m -265,-90.796875 0,8.130859 29.07617,0 a 190.41374,63.639606 0 0 0 -19.57031,-8.130859 l -9.50586,0 z m 0,15.505859 0,8.13086 51.70508,0 a 190.41374,63.639606 0 0 0 -10.04688,-8.13086 l -41.6582,0 z m 0,15.50586 0,8.130859 60.75,0 a 190.41374,63.639606 0 0 0 -3.09766,-8.130859 l -57.65234,0 z m 0,15.505859 0,8.130859 58.1582,0 a 190.41374,63.639606 0 0 0 2.85547,-8.130859 l -61.01367,0 z m 0,15.505859 0,8.13086 43.64648,0 a 190.41374,63.639606 0 0 0 9.19922,-8.13086 l -52.8457,0 z m 0,15.50586 0,8.130859 13.28125,0 a 190.41374,63.639606 0 0 0 18.09961,-8.130859 l -31.38086,0 z"
       id="path6578" />
    <path
       style="opacity:1;fill:#b89456;fill-opacity:1;stroke:none;stroke-width:10;stroke-linecap:round;stroke-linejoin:miter;stroke-miterlimit:4;stroke-dasharray:none;stroke-dashoffset:0;stroke-opacity:1"
       d="m -496.42773,-100.83203 a 190.41374,63.639606 0 0 0 -58.68946,19.73633 l 0,67.63672 a 190.41374,63.639606 0 0 0 58.68946,19.6718702 l 0,-107.0449202 z"
       id="rect5482"
       inkscape:connector-curvature="0" />
    <rect
       style="opacity:1;fill:#392b21;fill-opacity:1;stroke:none;stroke-width:5;stroke-linecap:round;stroke-linejoin:miter;stroke-miterlimit:4;stroke-dasharray:none;stroke-dashoffset:0;stroke-opacity:1"
       id="rect10966"
       width="7"
       height="6.875"
       x="-521.09552"
       y="-50.834248" />
    <path
       inkscape:connector-curvature="0"
       id="path7240"
       d="m -385,-122.96289 c -66.07477,0.0313 -127.31589,11.15685 -163.47266,30.45703 l -2.64453,1.41211 0,73.63867 2.65235,1.41016 C -512.2475,3.2145602 -451.02031,14.30509 -385,14.31641 l 0.002,0 c 53.03353,3e-5 101.04511,-7.1393598 136.22852,-18.8984398 17.59166,-5.8795402 31.99165,-12.8836202 42.32221,-21.0468802 10.33057,-8.16325 16.86381,-17.88709 16.86329,-28.69531 -4.8e-4,-10.80799 -6.53438,-20.53039 -16.86524,-28.69336 -10.33086,-8.16297 -24.73063,-15.16949 -42.32226,-21.04883 -35.18327,-11.75867 -83.19419,-18.89651 -136.22657,-18.89648 l -0.002,0 z m 0.002,10 0.002,0 c 52.12847,1.5e-4 99.32214,7.10704 133.05468,18.38086 16.86649,5.63698 30.35256,12.34585 39.29297,19.41015 8.94042,7.06431 13.06416,14.08222 13.06446,20.84766 3.2e-4,6.7656 -4.12246,13.78515 -13.0625,20.84961 -8.94005,7.06446 -22.42644,13.77299 -39.29297,19.41016 -33.73306,11.2743402 -80.9282,18.3808902 -133.0586,18.3808602 -63.31284,-0.0109 -122.23081,-10.91393 -156.11914,-27.9628902 l 0,-61.26368 c 33.82227,-17.07857 92.75365,-28.02246 156.11914,-28.05273 z"
       style="color:#000000;font-style:normal;font-variant:normal;font-weight:normal;font-stretch:normal;font-size:medium;line-height:normal;font-family:sans-serif;text-indent:0;text-align:start;text-decoration:none;text-decoration-line:none;text-decoration-style:solid;text-decoration-color:#000000;letter-spacing:normal;word-spacing:normal;text-transform:none;direction:ltr;block-progression:tb;writing-mode:lr-tb;baseline-shift:baseline;text-anchor:start;white-space:normal;clip-rule:nonzero;display:inline;overflow:visible;visibility:visible;opacity:1;isolation:auto;mix-blend-mode:normal;color-interpolation:sRGB;color-interpolation-filters:linearRGB;solid-color:#000000;solid-opacity:1;fill:#0b0905;fill-opacity:1;fill-rule:nonzero;stroke:#49391f;stroke-width:10;stroke-linecap:round;stroke-linejoin:miter;stroke-miterlimit:4;stroke-dasharray:none;stroke-dashoffset:0;stroke-opacity:1;filter:url(#filter7270);color-rendering:auto;image-rendering:auto;shape-rendering:auto;text-rendering:auto;enable-background:accumulate"
       clip-path="url(#clipPath7278)"
       transform="translate(-9,7)" />
    <path
       inkscape:connector-curvature="0"
       style="opacity:1;fill:none;fill-opacity:1;stroke:#000000;stroke-width:1;stroke-linecap:round;stroke-linejoin:miter;stroke-miterlimit:4;stroke-dasharray:none;stroke-dashoffset:0;stroke-opacity:0.31014494"
       d="m -525.0957,-93.30469 a 190.41374,63.639606 0 0 0 -17.61914,6.486331 l 46.28711,0 0,-6.486331 -28.66797,0 z m -30.02149,12.369143 0,6.486328 58.68946,0 0,-6.486328 -58.68946,0 z m 0,12.369141 0,6.486328 58.68946,0 0,-6.486328 -58.68946,0 z m 0,12.367187 0,6.486328 58.68946,0 0,-6.486328 -58.68946,0 z m 0,12.369141 0,6.486328 58.68946,0 0,-6.486328 -58.68946,0 z m 0,12.36914 0,6.486329 58.68946,0 0,-6.486329 -58.68946,0 z m 0,12.369141 0,5.632813 a 190.41374,63.639606 0 0 0 1.80078,0.853515 l 56.88868,0 0,-6.486328 -58.68946,0 z m 14.94336,12.367188 a 190.41374,63.639606 0 0 0 18.66406,6.4863278 l 25.08204,0 0,-6.4863278 -43.7461,0 z"
       id="path6571" />
    <path
       id="path5534"
       d="m -472.5,-109.13867 0,16.499998 6.5,0 0,-16.499998 -6.5,0 z m 0,104.499998 0,16.5 6.5,0 0,-16.5 -6.5,0 z"
       style="opacity:1;fill:#977845;fill-opacity:1;stroke:#392b21;stroke-width:1;stroke-linecap:round;stroke-linejoin:miter;stroke-miterlimit:4;stroke-dasharray:none;stroke-dashoffset:0;stroke-opacity:1"
       inkscape:connector-curvature="0" />
    <path
       inkscape:connector-curvature="0"
       style="opacity:1;fill:#977845;fill-opacity:1;stroke:#392b21;stroke-width:0.99999994;stroke-linecap:round;stroke-linejoin:miter;stroke-miterlimit:4;stroke-dasharray:none;stroke-dashoffset:0;stroke-opacity:1"
       d="m -455.16666,-113.63867 0,17.72727 6.5,0 0,-17.72727 -6.5,0 z m 0,112.2727251 0,17.7272729 6.5,0 0,-17.7272729 -6.5,0 z"
       id="path5540" />
    <path
       inkscape:connector-curvature="0"
       style="opacity:1;fill:#534226;fill-opacity:1;stroke:#392b21;stroke-width:1;stroke-linecap:round;stroke-linejoin:miter;stroke-miterlimit:4;stroke-dasharray:none;stroke-dashoffset:0;stroke-opacity:1"
       d="m -414,-110.58398 a 190.41374,63.639606 0 0 0 -6.5,0.33203 l 0,13.25 6.5,0 0,-13.58203 z m 41,0.0859 0,13.9961 6.5,0 0,-13.73243 a 190.41374,63.639606 0 0 0 -6.5,-0.26367 z m -58.33398,0.79688 a 190.41374,63.639606 0 0 0 -6.5,0.54101 l 0,12.15821 6.5,0 0,-12.69922 z m 75.0332,0.0645 0,13.13477 6.5,0 0,-12.64844 a 190.41374,63.639606 0 0 0 -6.5,-0.48633 z m 16.70117,1.37695 0,12.84766 6.5,0 0,-12.125 a 190.41374,63.639606 0 0 0 -6.5,-0.72266 z m 16.69922,1.93555 0,14.185548 6.5,0 0,-13.212888 a 190.41374,63.639606 0 0 0 -6.5,-0.97266 z m 16.70117,2.68555 0,15.136717 6.5,0 0,-14.017577 a 190.41374,63.639606 0 0 0 -5.83984,-1.11914 l -0.66016,0 z m 0,95.863279 0,15.1367191 6.5,0 0,-15.1367191 -6.5,0 z m -16.70117,3.636719 0,15.804688 a 190.41374,63.639606 0 0 0 6.5,-0.929688 l 0,-14.875 -6.5,0 z m -16.69922,3.2734376 0,14.5000004 a 190.41374,63.639606 0 0 0 6.5,-0.72461 l 0,-13.7753904 -6.5,0 z m -98.23437,0.5898438 0,14.8164066 a 190.41374,63.639606 0 0 0 6.5,0.5 l 0,-15.3164066 -6.5,0 z m 17.33398,0 0,15.8984376 a 190.41374,63.639606 0 0 0 6.5,0.326172 l 0,-16.2246096 -6.5,0 z m 47.5,0.5 0,15.6738286 a 190.41374,63.639606 0 0 0 6.5,-0.328125 l 0,-15.3457036 -6.5,0 z m 16.69922,0 0,14.8300786 a 190.41374,63.639606 0 0 0 6.5,-0.548829 l 0,-14.2812496 -6.5,0 z"
       id="path5554" />
    <path
       style="color:#000000;font-style:normal;font-variant:normal;font-weight:normal;font-stretch:normal;font-size:medium;line-height:normal;font-family:sans-serif;text-indent:0;text-align:start;text-decoration:none;text-decoration-line:none;text-decoration-style:solid;text-decoration-color:#000000;letter-spacing:normal;word-spacing:normal;text-transform:none;direction:ltr;block-progression:tb;writing-mode:lr-tb;baseline-shift:baseline;text-anchor:start;white-space:normal;clip-rule:nonzero;display:inline;overflow:visible;visibility:visible;opacity:1;isolation:auto;mix-blend-mode:normal;color-interpolation:sRGB;color-interpolation-filters:linearRGB;solid-color:#000000;solid-opacity:1;fill:#977845;fill-opacity:1;fill-rule:nonzero;stroke:#392b21;stroke-width:1;stroke-linecap:round;stroke-linejoin:miter;stroke-miterlimit:4;stroke-dasharray:none;stroke-dashoffset:0;stroke-opacity:1;color-rendering:auto;image-rendering:auto;shape-rendering:auto;text-rendering:auto;enable-background:accumulate"
       d="m -394,-115.96289 c -66.07477,0.0313 -127.31589,11.15685 -163.47266,30.45703 l -2.64453,1.41211 0,73.63867 2.65235,1.41016 C -521.2475,10.21456 -460.02031,21.30509 -394,21.31641 l 0.002,0 c 53.03353,3e-5 101.04511,-7.13936 136.22852,-18.8984398 17.59166,-5.8795402 31.99165,-12.8836202 42.32221,-21.0468802 10.33057,-8.16325 16.86381,-17.88709 16.86329,-28.69531 -4.8e-4,-10.80799 -6.53438,-20.53039 -16.86524,-28.69336 -10.33086,-8.16297 -24.73063,-15.16949 -42.32226,-21.04883 -35.18327,-11.75867 -83.19419,-18.89651 -136.22657,-18.89648 l -0.002,0 z m 0.002,10 0.002,0 c 52.12847,1.5e-4 99.32214,7.10704 133.05468,18.38086 16.86649,5.63698 30.35256,12.34585 39.29297,19.41015 8.94042,7.06431 13.06416,14.08222 13.06446,20.84766 3.2e-4,6.7656 -4.12246,13.78515 -13.0625,20.84961 -8.94005,7.06446 -22.42644,13.77299 -39.29297,19.41016 -33.73306,11.2743402 -80.9282,18.38089 -133.0586,18.38086 -63.31284,-0.0109 -122.23081,-10.9139298 -156.11914,-27.96289 l 0,-61.26368 c 33.82227,-17.07857 92.75365,-28.02246 156.11914,-28.05273 z"
       id="path5469"
       inkscape:connector-curvature="0" />
    <g
       id="g5599"
       transform="matrix(0.84883659,0,0,0.84989087,51.539126,-26.447234)">
      <rect
         transform="scale(-1,1)"
         y="-65.368065"
         x="410.03009"
         height="19.814857"
         width="6.5070128"
         id="rect5585"
         style="opacity:1;fill:#b89456;fill-opacity:1;stroke:#392b21;stroke-width:1.17735207;stroke-linecap:round;stroke-linejoin:miter;stroke-miterlimit:4;stroke-dasharray:none;stroke-dashoffset:0;stroke-opacity:1" />
      <rect
         transform="scale(-1,1)"
         style="opacity:1;fill:#876a3e;fill-opacity:1;stroke:#392b21;stroke-width:1.17735207;stroke-linecap:round;stroke-linejoin:miter;stroke-miterlimit:4;stroke-dasharray:none;stroke-dashoffset:0;stroke-opacity:1"
         id="rect5587"
         width="6.5070128"
         height="19.814857"
         x="416.18466"
         y="-65.368065" />
      <rect
         transform="scale(-1,1)"
         y="-65.368065"
         x="422.33917"
         height="19.814857"
         width="6.5070128"
         id="rect5589"
         style="opacity:1;fill:#735b35;fill-opacity:1;stroke:#392b21;stroke-width:1.17735207;stroke-linecap:round;stroke-linejoin:miter;stroke-miterlimit:4;stroke-dasharray:none;stroke-dashoffset:0;stroke-opacity:1" />
      <rect
         transform="scale(-1,1)"
         style="opacity:1;fill:#614d2d;fill-opacity:1;stroke:#392b21;stroke-width:1.17735207;stroke-linecap:round;stroke-linejoin:miter;stroke-miterlimit:4;stroke-dasharray:none;stroke-dashoffset:0;stroke-opacity:1"
         id="rect5591"
         width="6.5070128"
         height="19.814857"
         x="428.49374"
         y="-65.368065" />
      <rect
         transform="scale(-1,1)"
         style="opacity:1;fill:#49391f;fill-opacity:1;stroke:#392b21;stroke-width:1.17735207;stroke-linecap:round;stroke-linejoin:miter;stroke-miterlimit:4;stroke-dasharray:none;stroke-dashoffset:0;stroke-opacity:1"
         id="rect5595"
         width="6.5070128"
         height="19.814857"
         x="440.80283"
         y="-65.368065" />
      <rect
         transform="scale(-1,1)"
         y="-65.368065"
         x="434.64828"
         height="19.814857"
         width="6.5070128"
         id="rect5593"
         style="opacity:1;fill:#534226;fill-opacity:1;stroke:#392b21;stroke-width:1.17735207;stroke-linecap:round;stroke-linejoin:miter;stroke-miterlimit:4;stroke-dasharray:none;stroke-dashoffset:0;stroke-opacity:1" />
      <rect
         transform="scale(-1,1)"
         y="-65.368065"
         x="446.95737"
         height="19.814857"
         width="6.5070128"
         id="rect5597"
         style="opacity:1;fill:#3f321b;fill-opacity:1;stroke:#392b21;stroke-width:1.17735207;stroke-linecap:round;stroke-linejoin:miter;stroke-miterlimit:4;stroke-dasharray:none;stroke-dashoffset:0;stroke-opacity:1" />
      <path
         inkscape:connector-curvature="0"
         id="rect5578"
         d="m -407.58992,-67.478999 0,24.686517 -49.61518,0 0,-24.686517 49.61518,0 z m -3.57847,3.247989 -42.45824,0 0,18.190538 42.45824,0 0,-18.190538 z"
         style="opacity:1;fill:#876a3e;fill-opacity:1;stroke:#392b21;stroke-width:1.17735207;stroke-linecap:round;stroke-linejoin:miter;stroke-miterlimit:4;stroke-dasharray:none;stroke-dashoffset:0;stroke-opacity:1" />
    </g>
    <rect
       style="opacity:1;fill:#977845;fill-opacity:1;stroke:#392b21;stroke-width:1;stroke-linecap:round;stroke-linejoin:miter;stroke-miterlimit:4;stroke-dasharray:none;stroke-dashoffset:0;stroke-opacity:1"
       id="rect5609"
       width="77.75"
       height="6.5"
       x="-233"
       y="-50.572948" />
    <g
       transform="matrix(0.84883659,0,0,0.84989087,51.539126,26.858004)"
       id="g6305">
      <rect
         style="opacity:1;fill:#b89456;fill-opacity:1;stroke:#392b21;stroke-width:1.17735207;stroke-linecap:round;stroke-linejoin:miter;stroke-miterlimit:4;stroke-dasharray:none;stroke-dashoffset:0;stroke-opacity:1"
         id="rect6307"
         width="6.5070128"
         height="19.814857"
         x="410.03009"
         y="-65.368065"
         transform="scale(-1,1)" />
      <rect
         y="-65.368065"
         x="416.18466"
         height="19.814857"
         width="6.5070128"
         id="rect6309"
         style="opacity:1;fill:#876a3e;fill-opacity:1;stroke:#392b21;stroke-width:1.17735207;stroke-linecap:round;stroke-linejoin:miter;stroke-miterlimit:4;stroke-dasharray:none;stroke-dashoffset:0;stroke-opacity:1"
         transform="scale(-1,1)" />
      <rect
         style="opacity:1;fill:#735b35;fill-opacity:1;stroke:#392b21;stroke-width:1.17735207;stroke-linecap:round;stroke-linejoin:miter;stroke-miterlimit:4;stroke-dasharray:none;stroke-dashoffset:0;stroke-opacity:1"
         id="rect6311"
         width="6.5070128"
         height="19.814857"
         x="422.33917"
         y="-65.368065"
         transform="scale(-1,1)" />
      <rect
         y="-65.368065"
         x="428.49374"
         height="19.814857"
         width="6.5070128"
         id="rect6313"
         style="opacity:1;fill:#614d2d;fill-opacity:1;stroke:#392b21;stroke-width:1.17735207;stroke-linecap:round;stroke-linejoin:miter;stroke-miterlimit:4;stroke-dasharray:none;stroke-dashoffset:0;stroke-opacity:1"
         transform="scale(-1,1)" />
      <rect
         y="-65.368065"
         x="440.80283"
         height="19.814857"
         width="6.5070128"
         id="rect6315"
         style="opacity:1;fill:#49391f;fill-opacity:1;stroke:#392b21;stroke-width:1.17735207;stroke-linecap:round;stroke-linejoin:miter;stroke-miterlimit:4;stroke-dasharray:none;stroke-dashoffset:0;stroke-opacity:1"
         transform="scale(-1,1)" />
      <rect
         style="opacity:1;fill:#534226;fill-opacity:1;stroke:#392b21;stroke-width:1.17735207;stroke-linecap:round;stroke-linejoin:miter;stroke-miterlimit:4;stroke-dasharray:none;stroke-dashoffset:0;stroke-opacity:1"
         id="rect6317"
         width="6.5070128"
         height="19.814857"
         x="434.64828"
         y="-65.368065"
         transform="scale(-1,1)" />
      <rect
         style="opacity:1;fill:#3f321b;fill-opacity:1;stroke:#392b21;stroke-width:1.17735207;stroke-linecap:round;stroke-linejoin:miter;stroke-miterlimit:4;stroke-dasharray:none;stroke-dashoffset:0;stroke-opacity:1"
         id="rect6319"
         width="6.5070128"
         height="19.814857"
         x="446.95737"
         y="-65.368065"
         transform="scale(-1,1)" />
      <path
         style="opacity:1;fill:#876a3e;fill-opacity:1;stroke:#392b21;stroke-width:1.17735207;stroke-linecap:round;stroke-linejoin:miter;stroke-miterlimit:4;stroke-dasharray:none;stroke-dashoffset:0;stroke-opacity:1"
         d="m -407.58992,-67.478999 0,24.686517 -49.61518,0 0,-24.686517 49.61518,0 z m -3.57847,3.247989 -42.45824,0 0,18.190538 42.45824,0 0,-18.190538 z"
         id="path6321"
         inkscape:connector-curvature="0" />
    </g>
    <path
       inkscape:connector-curvature="0"
       style="opacity:1;fill:url(#linearGradient7386);fill-opacity:1;stroke:none;stroke-width:8.69999981;stroke-linecap:round;stroke-linejoin:round;stroke-miterlimit:4;stroke-dasharray:none;stroke-dashoffset:0;stroke-opacity:1"
       d="m -464.97245,-149.71459 a 10,16.25 0 0 1 -2.17774,2.67969 10,16.25 0 0 1 5.13867,14.19531 10,16.25 0 0 1 -5.13867,14.17773 10,16.25 0 0 1 5.13867,14.19336 10,16.25 0 0 1 -5.14062,14.17969 10,16.25 0 0 1 5.14062,14.19336 10,16.25 0 0 1 -5.14062,14.17969 10,16.25 0 0 1 5.14062,14.19336 10,16.25 0 0 1 -5.13867,14.17773 10,16.25 0 0 1 5.13867,14.19532 10,16.25 0 0 1 -5.13867,14.17773 10,16.25 0 0 1 5.13867,14.19531 10,16.25 0 0 1 -5.13867,14.17774 10,16.25 0 0 1 5.13867,14.19336 10,16.25 0 0 1 -5.14062,14.17968 10,16.25 0 0 1 2.10547,2.54102 32.829956,104.03038 0 0 0 26.60742,-101.95508 32.829956,104.03038 0 0 0 -26.5332,-101.875 z"
       id="path5568" />
    <rect
       style="opacity:1;fill:#977845;fill-opacity:1;stroke:#392b21;stroke-width:1;stroke-linecap:round;stroke-linejoin:miter;stroke-miterlimit:4;stroke-dasharray:none;stroke-dashoffset:0;stroke-opacity:1"
       id="rect5570"
       width="6.3639612"
       height="205.58005"
       x="-473.18933"
       y="-151.38982" />
    <circle
       style="opacity:1;fill:#977845;fill-opacity:1;stroke:#392b21;stroke-width:1;stroke-linecap:round;stroke-linejoin:miter;stroke-miterlimit:4;stroke-dasharray:none;stroke-dashoffset:0;stroke-opacity:1"
       id="circle5572"
       cx="-471.11829"
       cy="-48.787994"
       r="10.606602" />
    <path
       inkscape:connector-curvature="0"
       style="opacity:1;fill:#977845;fill-opacity:1;stroke:#392b21;stroke-width:0.99999994;stroke-linecap:round;stroke-linejoin:miter;stroke-miterlimit:4;stroke-dasharray:none;stroke-dashoffset:0;stroke-opacity:1"
       d="m -503.5,-69.597656 0,44.548828 7.07227,0 0,-44.548828 -7.07227,0 z"
       id="rect6359" />
    <g
       id="g6354"
       transform="translate(5,-70.75)">
      <rect
         style="opacity:1;fill:#b89456;fill-opacity:1;stroke:#392b21;stroke-width:1;stroke-linecap:round;stroke-linejoin:miter;stroke-miterlimit:4;stroke-dasharray:none;stroke-dashoffset:0;stroke-opacity:1"
         id="rect6330"
         width="6.5070128"
         height="19.814857"
         x="-501.11313"
         y="45.924824" />
      <rect
         y="45.924824"
         x="-494.95856"
         height="19.814857"
         width="6.5070128"
         id="rect6332"
         style="opacity:1;fill:#876a3e;fill-opacity:1;stroke:#392b21;stroke-width:1;stroke-linecap:round;stroke-linejoin:miter;stroke-miterlimit:4;stroke-dasharray:none;stroke-dashoffset:0;stroke-opacity:1" />
      <rect
         style="opacity:1;fill:#735b35;fill-opacity:1;stroke:#392b21;stroke-width:1;stroke-linecap:round;stroke-linejoin:miter;stroke-miterlimit:4;stroke-dasharray:none;stroke-dashoffset:0;stroke-opacity:1"
         id="rect6334"
         width="6.5070128"
         height="19.814857"
         x="-488.80405"
         y="45.924824" />
    </g>
    <g
       transform="translate(5,-135.25)"
       id="g6365">
      <rect
         y="45.924824"
         x="-501.11313"
         height="19.814857"
         width="6.5070128"
         id="rect6367"
         style="opacity:1;fill:#b89456;fill-opacity:1;stroke:#392b21;stroke-width:1;stroke-linecap:round;stroke-linejoin:miter;stroke-miterlimit:4;stroke-dasharray:none;stroke-dashoffset:0;stroke-opacity:1" />
      <rect
         style="opacity:1;fill:#876a3e;fill-opacity:1;stroke:#392b21;stroke-width:1;stroke-linecap:round;stroke-linejoin:miter;stroke-miterlimit:4;stroke-dasharray:none;stroke-dashoffset:0;stroke-opacity:1"
         id="rect6369"
         width="6.5070128"
         height="19.814857"
         x="-494.95856"
         y="45.924824" />
      <rect
         y="45.924824"
         x="-488.80405"
         height="19.814857"
         width="6.5070128"
         id="rect6371"
         style="opacity:1;fill:#735b35;fill-opacity:1;stroke:#392b21;stroke-width:1;stroke-linecap:round;stroke-linejoin:miter;stroke-miterlimit:4;stroke-dasharray:none;stroke-dashoffset:0;stroke-opacity:1" />
    </g>
    <g
       id="g10774">
      <path
         inkscape:connector-curvature="0"
         id="rect5473"
         d="m -274.28516,-96.92383 0,27.32617 9.28516,0 0,-27.32617 -9.28516,0 z m 0,71.875 0,27.4101602 9.28516,0 0,-27.4101602 -9.28516,0 z"
         style="opacity:1;fill:#977845;fill-opacity:1;stroke:#392b21;stroke-width:1;stroke-linecap:round;stroke-linejoin:miter;stroke-miterlimit:4;stroke-dasharray:none;stroke-dashoffset:0;stroke-opacity:1" />
      <path
         inkscape:connector-curvature="0"
         id="path5558"
         transform="translate(-598.0955,-216.45873)"
         d="m 301.72852,37.978516 0,1.509765 a 10,16.25 0 0 1 7.5957,15.757813 10,16.25 0 0 1 -5.13672,14.177734 10,16.25 0 0 1 5.13672,14.195313 10,16.25 0 0 1 -5.13672,14.177734 10,16.25 0 0 1 5.13672,14.193355 10,16.25 0 0 1 -5.14063,14.17969 10,16.25 0 0 1 5.14063,14.19336 10,16.25 0 0 1 -5.14063,14.17969 10,16.25 0 0 1 5.14063,14.19336 10,16.25 0 0 1 -5.13672,14.17773 10,16.25 0 0 1 5.13672,14.19532 10,16.25 0 0 1 -5.13672,14.17773 10,16.25 0 0 1 5.13672,14.19531 10,16.25 0 0 1 -5.13672,14.17774 10,16.25 0 0 1 5.13672,14.19336 10,16.25 0 0 1 -5.14063,14.17968 10,16.25 0 0 1 5.14063,14.19336 10,16.25 0 0 1 -7.5957,15.75196 l 0,1.41796 A 32.829956,130.96646 0 0 0 333.04297,168.64453 32.829956,130.96646 0 0 0 301.72852,37.978516 Z"
         style="opacity:1;fill:url(#linearGradient6606);fill-opacity:1;stroke:none;stroke-width:8.69999981;stroke-linecap:round;stroke-linejoin:round;stroke-miterlimit:4;stroke-dasharray:none;stroke-dashoffset:0;stroke-opacity:1" />
      <rect
         style="opacity:1;fill:#977845;fill-opacity:1;stroke:#392b21;stroke-width:1;stroke-linecap:round;stroke-linejoin:miter;stroke-miterlimit:4;stroke-dasharray:none;stroke-dashoffset:0;stroke-opacity:1"
         id="rect5560"
         width="6.3639612"
         height="258.80988"
         x="-299.80078"
         y="-178.17703" />
      <path
         id="circle6608"
         d="m -297.73047,-65.582031 a 16.793785,16.793785 0 0 0 -16.79297,16.794922 16.793785,16.793785 0 0 0 16.79297,16.792968 16.793785,16.793785 0 0 0 16.79492,-16.792968 16.793785,16.793785 0 0 0 -16.79492,-16.794922 z m 0,6.1875 a 10.606602,10.606602 0 0 1 10.60742,10.607422 10.606602,10.606602 0 0 1 -10.60742,10.605468 10.606602,10.606602 0 0 1 -10.60547,-10.605468 10.606602,10.606602 0 0 1 10.60547,-10.607422 z"
         style="opacity:1;fill:#977845;fill-opacity:1;stroke:#392b21;stroke-width:0.99999994;stroke-linecap:round;stroke-linejoin:miter;stroke-miterlimit:4;stroke-dasharray:none;stroke-dashoffset:0;stroke-opacity:1"
         inkscape:connector-curvature="0" />
      <circle
         style="opacity:1;fill:#b79356;fill-opacity:1;stroke:#392b21;stroke-width:1;stroke-linecap:round;stroke-linejoin:miter;stroke-miterlimit:4;stroke-dasharray:none;stroke-dashoffset:0;stroke-opacity:1"
         id="circle5562"
         cx="-297.72971"
         cy="-48.787994"
         r="10.606602" />
      <circle
         r="8.8566017"
         cy="-48.787994"
         cx="-297.72971"
         id="circle7736"
         style="opacity:1;fill:#b79356;fill-opacity:1;stroke:#392b21;stroke-width:1;stroke-linecap:round;stroke-linejoin:miter;stroke-miterlimit:4;stroke-dasharray:none;stroke-dashoffset:0;stroke-opacity:1" />
      <rect
         y="-148.33424"
         x="-301.34549"
         height="3.25"
         width="9"
         id="rect10740"
         style="opacity:1;fill:#392b21;fill-opacity:1;stroke:none;stroke-width:5;stroke-linecap:round;stroke-linejoin:miter;stroke-miterlimit:4;stroke-dasharray:none;stroke-dashoffset:0;stroke-opacity:1" />
      <rect
         style="opacity:1;fill:#392b21;fill-opacity:1;stroke:none;stroke-width:5;stroke-linecap:round;stroke-linejoin:miter;stroke-miterlimit:4;stroke-dasharray:none;stroke-dashoffset:0;stroke-opacity:1"
         id="rect10742"
         width="9"
         height="3.25"
         x="-301.34549"
         y="-178.85201" />
      <rect
         style="opacity:1;fill:#392b21;fill-opacity:1;stroke:none;stroke-width:5;stroke-linecap:round;stroke-linejoin:miter;stroke-miterlimit:4;stroke-dasharray:none;stroke-dashoffset:0;stroke-opacity:1"
         id="rect10744"
         width="9"
         height="3.25"
         x="-301.34549"
         y="-91.459244" />
      <rect
         y="-120.20924"
         x="-301.34549"
         height="3.25"
         width="9"
         id="rect10746"
         style="opacity:1;fill:#392b21;fill-opacity:1;stroke:none;stroke-width:5;stroke-linecap:round;stroke-linejoin:miter;stroke-miterlimit:4;stroke-dasharray:none;stroke-dashoffset:0;stroke-opacity:1" />
      <rect
         y="21.790756"
         x="-301.34549"
         height="3.25"
         width="9"
         id="rect10748"
         style="opacity:1;fill:#392b21;fill-opacity:1;stroke:none;stroke-width:5;stroke-linecap:round;stroke-linejoin:miter;stroke-miterlimit:4;stroke-dasharray:none;stroke-dashoffset:0;stroke-opacity:1" />
      <rect
         style="opacity:1;fill:#392b21;fill-opacity:1;stroke:none;stroke-width:5;stroke-linecap:round;stroke-linejoin:miter;stroke-miterlimit:4;stroke-dasharray:none;stroke-dashoffset:0;stroke-opacity:1"
         id="rect10750"
         width="9"
         height="3.25"
         x="-301.34549"
         y="-6.9592433" />
      <rect
         style="opacity:1;fill:#392b21;fill-opacity:1;stroke:none;stroke-width:5;stroke-linecap:round;stroke-linejoin:miter;stroke-miterlimit:4;stroke-dasharray:none;stroke-dashoffset:0;stroke-opacity:1"
         id="rect10752"
         width="9"
         height="3.25"
         x="-301.34549"
         y="78.790756" />
      <rect
         y="50.040756"
         x="-301.34549"
         height="3.25"
         width="9"
         id="rect10754"
         style="opacity:1;fill:#392b21;fill-opacity:1;stroke:none;stroke-width:5;stroke-linecap:round;stroke-linejoin:miter;stroke-miterlimit:4;stroke-dasharray:none;stroke-dashoffset:0;stroke-opacity:1" />
    </g>
    <rect
       y="50.295174"
       x="-474.73047"
       height="3.25"
       width="9"
       id="rect10752-0"
       style="opacity:1;fill:#392b21;fill-opacity:1;stroke:none;stroke-width:5;stroke-linecap:round;stroke-linejoin:miter;stroke-miterlimit:4;stroke-dasharray:none;stroke-dashoffset:0;stroke-opacity:1" />
    <rect
       style="opacity:1;fill:#392b21;fill-opacity:1;stroke:none;stroke-width:5;stroke-linecap:round;stroke-linejoin:miter;stroke-miterlimit:4;stroke-dasharray:none;stroke-dashoffset:0;stroke-opacity:1"
       id="rect10754-0"
       width="9"
       height="3.25"
       x="-474.73047"
       y="21.545174" />
    <rect
       style="opacity:1;fill:#392b21;fill-opacity:1;stroke:none;stroke-width:5;stroke-linecap:round;stroke-linejoin:miter;stroke-miterlimit:4;stroke-dasharray:none;stroke-dashoffset:0;stroke-opacity:1"
       id="rect10790"
       width="9"
       height="3.25"
       x="-474.73047"
       y="-6.2048259" />
    <rect
       y="-34.954826"
       x="-474.73047"
       height="3.25"
       width="9"
       id="rect10792"
       style="opacity:1;fill:#392b21;fill-opacity:1;stroke:none;stroke-width:5;stroke-linecap:round;stroke-linejoin:miter;stroke-miterlimit:4;stroke-dasharray:none;stroke-dashoffset:0;stroke-opacity:1" />
    <rect
       y="-63.954826"
       x="-474.73047"
       height="3.25"
       width="9"
       id="rect10794"
       style="opacity:1;fill:#392b21;fill-opacity:1;stroke:none;stroke-width:5;stroke-linecap:round;stroke-linejoin:miter;stroke-miterlimit:4;stroke-dasharray:none;stroke-dashoffset:0;stroke-opacity:1" />
    <rect
       style="opacity:1;fill:#392b21;fill-opacity:1;stroke:none;stroke-width:5;stroke-linecap:round;stroke-linejoin:miter;stroke-miterlimit:4;stroke-dasharray:none;stroke-dashoffset:0;stroke-opacity:1"
       id="rect10796"
       width="9"
       height="3.25"
       x="-474.73047"
       y="-92.704826" />
    <rect
       style="opacity:1;fill:#392b21;fill-opacity:1;stroke:none;stroke-width:5;stroke-linecap:round;stroke-linejoin:miter;stroke-miterlimit:4;stroke-dasharray:none;stroke-dashoffset:0;stroke-opacity:1"
       id="rect10798"
       width="9"
       height="3.25"
       x="-474.73047"
       y="-120.95483" />
    <rect
       y="-149.70482"
       x="-474.73047"
       height="3.25"
       width="9"
       id="rect10800"
       style="opacity:1;fill:#392b21;fill-opacity:1;stroke:none;stroke-width:5;stroke-linecap:round;stroke-linejoin:miter;stroke-miterlimit:4;stroke-dasharray:none;stroke-dashoffset:0;stroke-opacity:1" />
    <path
       id="path10954"
       d="m -514.25,-60.847656 0,27.048828 7.07227,0 0,-27.048828 -7.07227,0 z"
       style="opacity:1;fill:#977845;fill-opacity:1;stroke:#392b21;stroke-width:0.99999994;stroke-linecap:round;stroke-linejoin:miter;stroke-miterlimit:4;stroke-dasharray:none;stroke-dashoffset:0;stroke-opacity:1"
       inkscape:connector-curvature="0" />
    <path
       inkscape:connector-curvature="0"
       style="opacity:1;fill:#977845;fill-opacity:1;stroke:#392b21;stroke-width:1;stroke-linecap:round;stroke-linejoin:miter;stroke-miterlimit:4;stroke-dasharray:none;stroke-dashoffset:0;stroke-opacity:1"
       d="m -519.75,-55.597655 0,16.548828 3.07227,0 0,-16.548828 -3.07227,0 z"
       id="path10956" />
    <ellipse
       style="opacity:1;fill:#392b21;fill-opacity:1;stroke:none;stroke-width:5;stroke-linecap:round;stroke-linejoin:miter;stroke-miterlimit:4;stroke-dasharray:none;stroke-dashoffset:0;stroke-opacity:1"
       id="path10958"
       cx="-518.17731"
       cy="-59.65387"
       rx="1.8561554"
       ry="4.433476" />
    <ellipse
       ry="2.3121557"
       rx="1.8561554"
       cy="-51.582802"
       cx="-518.17731"
       id="ellipse10960"
       style="opacity:1;fill:#392b21;fill-opacity:1;stroke:none;stroke-width:5;stroke-linecap:round;stroke-linejoin:miter;stroke-miterlimit:4;stroke-dasharray:none;stroke-dashoffset:0;stroke-opacity:1" />
    <ellipse
       ry="4.433476"
       rx="1.8561554"
       cy="35.095993"
       cx="-518.17731"
       id="ellipse10962"
       style="opacity:1;fill:#392b21;fill-opacity:1;stroke:none;stroke-width:5;stroke-linecap:round;stroke-linejoin:miter;stroke-miterlimit:4;stroke-dasharray:none;stroke-dashoffset:0;stroke-opacity:1"
       transform="scale(1,-1)" />
    <ellipse
       style="opacity:1;fill:#392b21;fill-opacity:1;stroke:none;stroke-width:5;stroke-linecap:round;stroke-linejoin:miter;stroke-miterlimit:4;stroke-dasharray:none;stroke-dashoffset:0;stroke-opacity:1"
       id="ellipse10964"
       cx="-518.05231"
       cy="44.417061"
       rx="1.8561554"
       ry="2.3121557"
       transform="scale(1,-1)" />
    <g
       id="g11507">
      <g
         transform="translate(0,0.01750154)"
         id="g11499">
        <g
           id="g11489">
          <circle
             style="opacity:1;fill:#b79356;fill-opacity:1;stroke:#392b21;stroke-width:1;stroke-linecap:round;stroke-linejoin:miter;stroke-miterlimit:4;stroke-dasharray:none;stroke-dashoffset:0;stroke-opacity:1"
             id="circle11483"
             cx="-220.35925"
             cy="-55.834248"
             r="4" />
          <circle
             r="1.875"
             cy="-55.834248"
             cx="-220.35925"
             id="circle11487"
             style="opacity:1;fill:#392b21;fill-opacity:1;stroke:#392b21;stroke-width:1;stroke-linecap:round;stroke-linejoin:miter;stroke-miterlimit:4;stroke-dasharray:none;stroke-dashoffset:0;stroke-opacity:1" />
        </g>
        <g
           id="g11493"
           transform="translate(0,17.058951)">
          <circle
             r="4"
             cy="-55.834248"
             cx="-220.35925"
             id="circle11495"
             style="opacity:1;fill:#b79356;fill-opacity:1;stroke:#392b21;stroke-width:1;stroke-linecap:round;stroke-linejoin:miter;stroke-miterlimit:4;stroke-dasharray:none;stroke-dashoffset:0;stroke-opacity:1" />
          <circle
             style="opacity:1;fill:#392b21;fill-opacity:1;stroke:#392b21;stroke-width:1;stroke-linecap:round;stroke-linejoin:miter;stroke-miterlimit:4;stroke-dasharray:none;stroke-dashoffset:0;stroke-opacity:1"
             id="circle11497"
             cx="-220.35925"
             cy="-55.834248"
             r="1.875" />
        </g>
      </g>
      <rect
         style="opacity:1;fill:#392b21;fill-opacity:1;stroke:none;stroke-width:5;stroke-linecap:round;stroke-linejoin:miter;stroke-miterlimit:4;stroke-dasharray:none;stroke-dashoffset:0;stroke-opacity:1"
         id="rect10970"
         width="2.8284271"
         height="17.818914"
         x="-221.77347"
         y="-56.196728" />
    </g>
    <rect
       style="opacity:1;fill:#392b21;fill-opacity:1;stroke:none;stroke-width:5;stroke-linecap:round;stroke-linejoin:miter;stroke-miterlimit:4;stroke-dasharray:none;stroke-dashoffset:0;stroke-opacity:1"
       id="rect10972"
       width="2.8284271"
       height="10.78338"
       x="-160.21965"
       y="-52.678959" />
    <g
       id="g11517"
       transform="translate(-10.253048,0)">
      <g
         id="g11519"
         transform="translate(0,0.01750154)">
        <g
           id="g11521">
          <circle
             r="4"
             cy="-55.834248"
             cx="-220.35925"
             id="circle11523"
             style="opacity:1;fill:#b79356;fill-opacity:1;stroke:#392b21;stroke-width:1;stroke-linecap:round;stroke-linejoin:miter;stroke-miterlimit:4;stroke-dasharray:none;stroke-dashoffset:0;stroke-opacity:1" />
          <circle
             style="opacity:1;fill:#392b21;fill-opacity:1;stroke:#392b21;stroke-width:1;stroke-linecap:round;stroke-linejoin:miter;stroke-miterlimit:4;stroke-dasharray:none;stroke-dashoffset:0;stroke-opacity:1"
             id="circle11525"
             cx="-220.35925"
             cy="-55.834248"
             r="1.875" />
        </g>
        <g
           transform="translate(0,17.058951)"
           id="g11527">
          <circle
             style="opacity:1;fill:#b79356;fill-opacity:1;stroke:#392b21;stroke-width:1;stroke-linecap:round;stroke-linejoin:miter;stroke-miterlimit:4;stroke-dasharray:none;stroke-dashoffset:0;stroke-opacity:1"
             id="circle11529"
             cx="-220.35925"
             cy="-55.834248"
             r="4" />
          <circle
             r="1.875"
             cy="-55.834248"
             cx="-220.35925"
             id="circle11531"
             style="opacity:1;fill:#392b21;fill-opacity:1;stroke:#392b21;stroke-width:1;stroke-linecap:round;stroke-linejoin:miter;stroke-miterlimit:4;stroke-dasharray:none;stroke-dashoffset:0;stroke-opacity:1" />
        </g>
      </g>
      <rect
         y="-56.196728"
         x="-221.77347"
         height="17.818914"
         width="2.8284271"
         id="rect11533"
         style="opacity:1;fill:#392b21;fill-opacity:1;stroke:none;stroke-width:5;stroke-linecap:round;stroke-linejoin:miter;stroke-miterlimit:4;stroke-dasharray:none;stroke-dashoffset:0;stroke-opacity:1" />
    </g>
  </g>
</svg>
